Varta-Regular.ufo
<glyph name="quotedbl" format="1">
  <advance width="868"/>
  <unicode hex="0022"/>
  <outline>
	<contour>
	  <point x="203" y="866" type="line"/>
	  <point x="304" y="866" type="line"/>
	  <point x="336" y="1226" type="line"/>
	  <point x="342" y="1413" type="line"/>
	  <point x="164" y="1413" type="line"/>
	  <point x="170" y="1226" type="line"/>
	</contour>
	<contour>
	  <point x="561" y="866" type="line"/>
	  <point x="665" y="866" type="line"/>
	  <point x="696" y="1226" type="line"/>
	  <point x="701" y="1413" type="line"/>
	  <point x="524" y="1413" type="line"/>
	  <point x="528" y="1226" type="line"/>
	</contour>
  </outline>
</glyph>
<glyph name="quotesingle" format="1">
  <advance width="508"/>
  <unicode hex="0027"/>
  <outline>
	<contour>
	  <point x="203" y="866" type="line"/>
	  <point x="304" y="866" type="line"/>
	  <point x="336" y="1226" type="line"/>
	  <point x="342" y="1413" type="line"/>
	  <point x="164" y="1413" type="line"/>
	  <point x="170" y="1226" type="line"/>
	</contour>
  </outline>
</glyph>
<glyph name="parenright" format="1">
  <advance width="619"/>
  <unicode hex="0029"/>
  <outline>
	<contour>
	  <point x="78" y="-311" type="curve"/>
	  <point x="180" y="-360" type="line"/>
	  <point x="350" y="-86"/>
	  <point x="451" y="209"/>
	  <point x="451" y="569" type="curve" smooth="yes"/>
	  <point x="451" y="930"/>
	  <point x="350" y="1225"/>
	  <point x="180" y="1499" type="curve"/>
	  <point x="78" y="1450" type="line"/>
	  <point x="236" y="1190"/>
	  <point x="313" y="881"/>
	  <point x="313" y="569" type="curve" smooth="yes"/>
	  <point x="313" y="258"/>
	  <point x="236" y="-51"/>
	</contour>
  </outline>
</glyph>
<glyph name="plus" format="1">
  <advance width="1017"/>
  <unicode hex="002B"/>
  <outline>
	<contour>
	  <point x="442" y="213" type="line"/>
	  <point x="574" y="213" type="line"/>
	  <point x="574" y="613" type="line"/>
	  <point x="947" y="613" type="line"/>
	  <point x="947" y="738" type="line"/>
	  <point x="574" y="738" type="line"/>
	  <point x="574" y="1139" type="line"/>
	  <point x="442" y="1139" type="line"/>
	  <point x="442" y="738" type="line"/>
	  <point x="70" y="738" type="line"/>
	  <point x="70" y="613" type="line"/>
	  <point x="442" y="613" type="line"/>
	</contour>
  </outline>
</glyph>
<glyph name="comma" format="1">
  <advance width="508"/>
  <unicode hex="002C"/>
  <outline>
	<contour>
	  <point x="137" y="-367" type="line"/>
	  <point x="302" y="-298"/>
	  <point x="404" y="-141"/>
	  <point x="404" y="35" type="curve" smooth="yes"/>
	  <point x="404" y="157"/>
	  <point x="351" y="231"/>
	  <point x="263" y="231" type="curve" smooth="yes"/>
	  <point x="197" y="231"/>
	  <point x="139" y="187"/>
	  <point x="139" y="114" type="curve" smooth="yes"/>
	  <point x="139" y="39"/>
	  <point x="195" y="-2"/>
	  <point x="259" y="-2" type="curve" smooth="yes"/>
	  <point x="265" y="-2"/>
	  <point x="273" y="-2"/>
	  <point x="280" y="0" type="curve"/>
	  <point x="280" y="-111"/>
	  <point x="210" y="-219"/>
	  <point x="96" y="-270" type="curve"/>
	</contour>
  </outline>
</glyph>
<glyph name="hyphen" format="1">
  <advance width="636"/>
  <unicode hex="002D"/>
  <outline>
	<contour>
	  <point x="84" y="450" type="line"/>
	  <point x="554" y="450" type="line"/>
	  <point x="554" y="577" type="line"/>
	  <point x="84" y="577" type="line"/>
	</contour>
  </outline>
</glyph>
<glyph name="period" format="1">
  <advance width="508"/>
  <unicode hex="002E"/>
  <outline>
	<contour>
	  <point x="133" y="101" type="curve" smooth="yes"/>
	  <point x="133" y="29"/>
	  <point x="188" y="-25"/>
	  <point x="255" y="-25" type="curve" smooth="yes"/>
	  <point x="321" y="-25"/>
	  <point x="375" y="29"/>
	  <point x="375" y="101" type="curve" smooth="yes"/>
	  <point x="375" y="179"/>
	  <point x="321" y="231"/>
	  <point x="255" y="231" type="curve" smooth="yes"/>
	  <point x="188" y="231"/>
	  <point x="133" y="179"/>
	</contour>
  </outline>
</glyph>
<glyph name="slash" format="1">
  <advance width="717"/>
  <unicode hex="002F"/>
  <outline>
	<contour>
	  <point x="20" y="-328" type="line"/>
	  <point x="144" y="-328" type="line"/>
	  <point x="691" y="1454" type="line"/>
	  <point x="569" y="1454" type="line"/>
	</contour>
  </outline>
</glyph>
<glyph name="zero" format="1">
  <advance width="1017"/>
  <unicode hex="0030"/>
  <outline>
	<contour>
	  <point x="508" y="-25" type="curve" smooth="yes"/>
	  <point x="779" y="-25"/>
	  <point x="927" y="232"/>
	  <point x="927" y="678" type="curve" smooth="yes"/>
	  <point x="927" y="1124"/>
	  <point x="779" y="1368"/>
	  <point x="508" y="1368" type="curve" smooth="yes"/>
	  <point x="236" y="1368"/>
	  <point x="90" y="1124"/>
	  <point x="90" y="678" type="curve" smooth="yes"/>
	  <point x="90" y="232"/>
	  <point x="236" y="-25"/>
	</contour>
	<contour>
	  <point x="508" y="110" type="curve" smooth="yes"/>
	  <point x="348" y="110"/>
	  <point x="252" y="287"/>
	  <point x="252" y="678" type="curve" smooth="yes"/>
	  <point x="252" y="1067"/>
	  <point x="348" y="1235"/>
	  <point x="508" y="1235" type="curve" smooth="yes"/>
	  <point x="668" y="1235"/>
	  <point x="765" y="1067"/>
	  <point x="765" y="678" type="curve" smooth="yes"/>
	  <point x="765" y="287"/>
	  <point x="668" y="110"/>
	</contour>
  </outline>
</glyph>
<glyph name="one" format="1">
  <advance width="1017"/>
  <unicode hex="0031"/>
  <outline>
	<contour>
	  <point x="162" y="0" type="line"/>
	  <point x="898" y="0" type="line"/>
	  <point x="898" y="137" type="line"/>
	  <point x="628" y="137" type="line"/>
	  <point x="628" y="1348" type="line"/>
	  <point x="500" y="1348" type="line"/>
	  <point x="428" y="1305"/>
	  <point x="342" y="1272"/>
	  <point x="224" y="1251" type="curve"/>
	  <point x="224" y="1144" type="line"/>
	  <point x="461" y="1155" type="line"/>
	  <point x="461" y="137" type="line"/>
	  <point x="162" y="137" type="line"/>
	</contour>
  </outline>
</glyph>
<glyph name="seven" format="1">
  <advance width="1017"/>
  <unicode hex="0037"/>
  <outline>
	<contour>
	  <point x="363" y="0" type="curve"/>
	  <point x="536" y="0" type="line"/>
	  <point x="552" y="510"/>
	  <point x="622" y="849"/>
	  <point x="931" y="1244" type="curve"/>
	  <point x="931" y="1348" type="line"/>
	  <point x="90" y="1348" type="line"/>
	  <point x="90" y="1204" type="line"/>
	  <point x="742" y="1204" type="line"/>
	  <point x="484" y="846"/>
	  <point x="379" y="493"/>
	</contour>
  </outline>
</glyph>
<glyph name="colon" format="1">
  <advance width="508"/>
  <unicode hex="003A"/>
  <outline>
	<contour>
	  <point x="133" y="842" type="curve" smooth="yes"/>
	  <point x="133" y="767"/>
	  <point x="188" y="716"/>
	  <point x="255" y="716" type="curve" smooth="yes"/>
	  <point x="321" y="716"/>
	  <point x="375" y="767"/>
	  <point x="375" y="842" type="curve" smooth="yes"/>
	  <point x="375" y="920"/>
	  <point x="321" y="970"/>
	  <point x="255" y="970" type="curve" smooth="yes"/>
	  <point x="188" y="970"/>
	  <point x="133" y="920"/>
	</contour>
	<contour>
	  <point x="133" y="101" type="curve" smooth="yes"/>
	  <point x="133" y="29"/>
	  <point x="188" y="-25"/>
	  <point x="255" y="-25" type="curve" smooth="yes"/>
	  <point x="321" y="-25"/>
	  <point x="375" y="29"/>
	  <point x="375" y="101" type="curve" smooth="yes"/>
	  <point x="375" y="179"/>
	  <point x="321" y="231"/>
	  <point x="255" y="231" type="curve" smooth="yes"/>
	  <point x="188" y="231"/>
	  <point x="133" y="179"/>
	</contour>
  </outline>
</glyph>
<glyph name="semicolon" format="1">
  <advance width="508"/>
  <unicode hex="003B"/>
  <outline>
	<contour>
	  <point x="255" y="716" type="curve" smooth="yes"/>
	  <point x="321" y="716"/>
	  <point x="375" y="767"/>
	  <point x="375" y="842" type="curve" smooth="yes"/>
	  <point x="375" y="920"/>
	  <point x="321" y="970"/>
	  <point x="255" y="970" type="curve" smooth="yes"/>
	  <point x="188" y="970"/>
	  <point x="133" y="920"/>
	  <point x="133" y="842" type="curve" smooth="yes"/>
	  <point x="133" y="767"/>
	  <point x="188" y="716"/>
	</contour>
	<contour>
	  <point x="137" y="-347" type="line"/>
	  <point x="302" y="-278"/>
	  <point x="404" y="-141"/>
	  <point x="404" y="35" type="curve" smooth="yes"/>
	  <point x="404" y="157"/>
	  <point x="351" y="231"/>
	  <point x="263" y="231" type="curve" smooth="yes"/>
	  <point x="197" y="231"/>
	  <point x="139" y="187"/>
	  <point x="139" y="114" type="curve" smooth="yes"/>
	  <point x="139" y="39"/>
	  <point x="195" y="-2"/>
	  <point x="259" y="-2" type="curve" smooth="yes"/>
	  <point x="265" y="-2"/>
	  <point x="273" y="-2"/>
	  <point x="280" y="0" type="curve"/>
	  <point x="280" y="-111"/>
	  <point x="210" y="-199"/>
	  <point x="96" y="-250" type="curve"/>
	</contour>
  </outline>
</glyph>
<glyph name="equal" format="1">
  <advance width="1017"/>
  <unicode hex="003D"/>
  <outline>
	<contour>
	  <point x="70" y="831" type="line"/>
	  <point x="947" y="831" type="line"/>
	  <point x="947" y="957" type="line"/>
	  <point x="70" y="957" type="line"/>
	</contour>
	<contour>
	  <point x="70" y="394" type="line"/>
	  <point x="947" y="394" type="line"/>
	  <point x="947" y="520" type="line"/>
	  <point x="70" y="520" type="line"/>
	</contour>
  </outline>
</glyph>
<glyph name="greater" format="1">
  <advance width="1017"/>
  <unicode hex="003E"/>
  <outline>
	<contour>
	  <point x="947" y="747" type="line"/>
	  <point x="70" y="1091" type="line"/>
	  <point x="70" y="947" type="line"/>
	  <point x="503" y="786" type="line"/>
	  <point x="777" y="684" type="line"/>
	  <point x="777" y="676" type="line"/>
	  <point x="503" y="573" type="line"/>
	  <point x="70" y="413" type="line"/>
	  <point x="70" y="269" type="line"/>
	  <point x="947" y="613" type="line"/>
	</contour>
  </outline>
</glyph>
<glyph name="B" format="1">
  <advance width="1193"/>
  <unicode hex="0042"/>
  <outline>
	<contour>
	  <point x="178" y="0" type="line"/>
	  <point x="613" y="0" type="line"/>
	  <point x="912" y="0"/>
	  <point x="1115" y="129"/>
	  <point x="1115" y="397" type="curve" smooth="yes"/>
	  <point x="1115" y="585"/>
	  <point x="1000" y="701"/>
	  <point x="804" y="715" type="curve"/>
	  <point x="804" y="723" type="line"/>
	  <point x="978" y="757"/>
	  <point x="1039" y="884"/>
	  <point x="1039" y="1020" type="curve" smooth="yes"/>
	  <point x="1039" y="1261"/>
	  <point x="858" y="1343"/>
	  <point x="586" y="1343" type="curve" smooth="yes"/>
	  <point x="178" y="1343" type="line"/>
	</contour>
	<contour>
	  <point x="348" y="770" type="line"/>
	  <point x="348" y="1210" type="line"/>
	  <point x="565" y="1210" type="line"/>
	  <point x="773" y="1210"/>
	  <point x="873" y="1155"/>
	  <point x="873" y="1005" type="curve" smooth="yes"/>
	  <point x="873" y="852"/>
	  <point x="782" y="770"/>
	  <point x="554" y="770" type="curve" smooth="yes"/>
	</contour>
	<contour>
	  <point x="348" y="134" type="line"/>
	  <point x="348" y="644" type="line"/>
	  <point x="589" y="644" type="line"/>
	  <point x="825" y="644"/>
	  <point x="949" y="574"/>
	  <point x="949" y="405" type="curve" smooth="yes"/>
	  <point x="949" y="219"/>
	  <point x="819" y="134"/>
	  <point x="589" y="134" type="curve" smooth="yes"/>
	</contour>
	<contour>
	  <point x="614" y="-45" type="move" name="mark0"/>
	</contour>
  </outline>
</glyph>
<glyph name="C" format="1">
  <advance width="1158"/>
  <unicode hex="0043"/>
  <outline>
	<contour>
	  <point x="100" y="672" type="curve" smooth="yes"/>
	  <point x="100" y="221"/>
	  <point x="347" y="-25"/>
	  <point x="685" y="-25" type="curve" smooth="yes"/>
	  <point x="855" y="-25"/>
	  <point x="988" y="44"/>
	  <point x="1093" y="167" type="curve"/>
	  <point x="997" y="270" type="line"/>
	  <point x="911" y="174"/>
	  <point x="816" y="123"/>
	  <point x="689" y="123" type="curve" smooth="yes"/>
	  <point x="432" y="123"/>
	  <point x="274" y="327"/>
	  <point x="274" y="678" type="curve" smooth="yes"/>
	  <point x="274" y="1023"/>
	  <point x="440" y="1221"/>
	  <point x="697" y="1221" type="curve" smooth="yes"/>
	  <point x="808" y="1221"/>
	  <point x="899" y="1174"/>
	  <point x="971" y="1098" type="curve"/>
	  <point x="1066" y="1205" type="line"/>
	  <point x="986" y="1293"/>
	  <point x="855" y="1368"/>
	  <point x="695" y="1368" type="curve" smooth="yes"/>
	  <point x="351" y="1368"/>
	  <point x="100" y="1119"/>
	</contour>
	<contour>
	  <point x="698" y="-45" type="move" name="mark0"/>
	</contour>
  </outline>
</glyph>
<glyph name="D" format="1">
  <advance width="1252"/>
  <unicode hex="0044"/>
  <outline>
	<contour>
	  <point x="178" y="0" type="line"/>
	  <point x="526" y="0" type="line"/>
	  <point x="933" y="0"/>
	  <point x="1147" y="241"/>
	  <point x="1147" y="679" type="curve" smooth="yes"/>
	  <point x="1147" y="1115"/>
	  <point x="942" y="1343"/>
	  <point x="528" y="1343" type="curve" smooth="yes"/>
	  <point x="178" y="1343" type="line"/>
	</contour>
	<contour>
	  <point x="348" y="137" type="line"/>
	  <point x="348" y="1206" type="line"/>
	  <point x="516" y="1206" type="line"/>
	  <point x="833" y="1206"/>
	  <point x="974" y="1026"/>
	  <point x="974" y="679" type="curve" smooth="yes"/>
	  <point x="974" y="331"/>
	  <point x="823" y="137"/>
	  <point x="507" y="137" type="curve" smooth="yes"/>
	</contour>
	<contour>
	  <point x="618" y="-45" type="move" name="mark0"/>
	</contour>
  </outline>
</glyph>
<glyph name="E" format="1">
  <advance width="1068"/>
  <unicode hex="0045"/>
  <outline>
	<contour>
	  <point x="178" y="0" type="line"/>
	  <point x="972" y="0" type="line"/>
	  <point x="972" y="143" type="line"/>
	  <point x="348" y="143" type="line"/>
	  <point x="348" y="634" type="line"/>
	  <point x="857" y="634" type="line"/>
	  <point x="857" y="777" type="line"/>
	  <point x="348" y="777" type="line"/>
	  <point x="348" y="1202" type="line"/>
	  <point x="951" y="1202" type="line"/>
	  <point x="951" y="1343" type="line"/>
	  <point x="178" y="1343" type="line"/>
	</contour>
	<contour>
	  <point x="791" y="0" type="move" name="mark0"/>
	</contour>
  </outline>
</glyph>
<glyph name="F" format="1">
  <advance width="999"/>
  <unicode hex="0046"/>
  <outline>
	<contour>
	  <point x="178" y="0" type="line"/>
	  <point x="348" y="0" type="line"/>
	  <point x="348" y="603" type="line"/>
	  <point x="861" y="603" type="line"/>
	  <point x="861" y="745" type="line"/>
	  <point x="348" y="745" type="line"/>
	  <point x="348" y="1202" type="line"/>
	  <point x="953" y="1202" type="line"/>
	  <point x="953" y="1343" type="line"/>
	  <point x="178" y="1343" type="line"/>
	</contour>
	<contour>
	  <point x="271" y="-45" type="move" name="mark0"/>
	</contour>
  </outline>
</glyph>
<glyph name="G" format="1">
  <advance width="1252"/>
  <unicode hex="0047"/>
  <outline>
	<contour>
	  <point x="100" y="669" type="curve" smooth="yes"/>
	  <point x="100" y="214"/>
	  <point x="352" y="-25"/>
	  <point x="704" y="-25" type="curve" smooth="yes"/>
	  <point x="884" y="-25"/>
	  <point x="1033" y="45"/>
	  <point x="1121" y="131" type="curve"/>
	  <point x="1121" y="695" type="line"/>
	  <point x="690" y="695" type="line"/>
	  <point x="690" y="556" type="line"/>
	  <point x="968" y="556" type="line"/>
	  <point x="968" y="204" type="line"/>
	  <point x="913" y="155"/>
	  <point x="819" y="123"/>
	  <point x="722" y="123" type="curve" smooth="yes"/>
	  <point x="435" y="123"/>
	  <point x="275" y="322"/>
	  <point x="275" y="673" type="curve" smooth="yes"/>
	  <point x="275" y="1034"/>
	  <point x="450" y="1221"/>
	  <point x="722" y="1221" type="curve" smooth="yes"/>
	  <point x="856" y="1221"/>
	  <point x="940" y="1176"/>
	  <point x="1008" y="1105" type="curve"/>
	  <point x="1105" y="1212" type="line"/>
	  <point x="1025" y="1294"/>
	  <point x="903" y="1368"/>
	  <point x="721" y="1368" type="curve" smooth="yes"/>
	  <point x="360" y="1368"/>
	  <point x="100" y="1136"/>
	</contour>
	<contour>
	  <point x="707" y="-45" type="move" name="mark0"/>
	</contour>
  </outline>
</glyph>
<glyph name="H" format="1">
  <advance width="1324"/>
  <unicode hex="0048"/>
  <outline>
	<contour>
	  <point x="178" y="0" type="line"/>
	  <point x="348" y="0" type="line"/>
	  <point x="348" y="634" type="line"/>
	  <point x="976" y="634" type="line"/>
	  <point x="976" y="0" type="line"/>
	  <point x="1144" y="0" type="line"/>
	  <point x="1144" y="1343" type="line"/>
	  <point x="976" y="1343" type="line"/>
	  <point x="976" y="779" type="line"/>
	  <point x="348" y="779" type="line"/>
	  <point x="348" y="1343" type="line"/>
	  <point x="178" y="1343" type="line"/>
	</contour>
	<contour>
	  <point x="659" y="-45" type="move" name="mark0"/>
	</contour>
  </outline>
</glyph>
<glyph name="I" format="1">
  <advance width="526"/>
  <unicode hex="0049"/>
  <outline>
	<contour>
	  <point x="178" y="0" type="line"/>
	  <point x="348" y="0" type="line"/>
	  <point x="348" y="1343" type="line"/>
	  <point x="178" y="1343" type="line"/>
	</contour>
	<contour>
	  <point x="216" y="0" type="move" name="mark0"/>
	</contour>
  </outline>
</glyph>
<glyph name="J" format="1">
  <advance width="970"/>
  <unicode hex="004A"/>
  <outline>
	<contour>
	  <point x="59" y="190" type="line"/>
	  <point x="137" y="49"/>
	  <point x="261" y="-25"/>
	  <point x="430" y="-25" type="curve" smooth="yes"/>
	  <point x="694" y="-25"/>
	  <point x="798" y="154"/>
	  <point x="798" y="385" type="curve" smooth="yes"/>
	  <point x="798" y="1343" type="line"/>
	  <point x="630" y="1343" type="line"/>
	  <point x="630" y="401" type="line"/>
	  <point x="630" y="196"/>
	  <point x="560" y="123"/>
	  <point x="417" y="123" type="curve" smooth="yes"/>
	  <point x="319" y="123"/>
	  <point x="241" y="168"/>
	  <point x="179" y="275" type="curve"/>
	</contour>
	<contour>
	  <point x="513" y="-45" type="move" name="mark0"/>
	</contour>
  </outline>
</glyph>
<glyph name="K" format="1">
  <advance width="1174"/>
  <unicode hex="004B"/>
  <outline>
	<contour>
	  <point x="178" y="0" type="line"/>
	  <point x="348" y="0" type="line"/>
	  <point x="348" y="427" type="line"/>
	  <point x="580" y="700" type="line"/>
	  <point x="982" y="0" type="line"/>
	  <point x="1170" y="0" type="line"/>
	  <point x="684" y="831" type="line"/>
	  <point x="1107" y="1343" type="line"/>
	  <point x="914" y="1343" type="line"/>
	  <point x="352" y="668" type="line"/>
	  <point x="348" y="668" type="line"/>
	  <point x="348" y="1343" type="line"/>
	  <point x="178" y="1343" type="line"/>
	</contour>
	<contour>
	  <point x="666" y="-45" type="move" name="mark0"/>
	</contour>
  </outline>
</glyph>
<glyph name="L" format="1">
  <advance width="983"/>
  <unicode hex="004C"/>
  <outline>
	<contour>
	  <point x="178" y="0" type="line"/>
	  <point x="935" y="0" type="line"/>
	  <point x="935" y="143" type="line"/>
	  <point x="348" y="143" type="line"/>
	  <point x="348" y="1343" type="line"/>
	  <point x="178" y="1343" type="line"/>
	</contour>
	<contour>
	  <point x="588" y="-45" type="move" name="mark0"/>
	</contour>
  </outline>
</glyph>
<glyph name="M" format="1">
  <advance width="1477"/>
  <unicode hex="004D"/>
  <outline>
	<contour>
	  <point x="169" y="0" type="line"/>
	  <point x="325" y="0" type="line"/>
	  <point x="325" y="743" type="line"/>
	  <point x="325" y="862"/>
	  <point x="323" y="1021"/>
	  <point x="314" y="1140" type="curve"/>
	  <point x="323" y="1140" type="line"/>
	  <point x="429" y="841" type="line"/>
	  <point x="688" y="135" type="line"/>
	  <point x="785" y="135" type="line"/>
	  <point x="1042" y="841" type="line"/>
	  <point x="1149" y="1140" type="line"/>
	  <point x="1157" y="1140" type="line"/>
	  <point x="1149" y="1021"/>
	  <point x="1145" y="862"/>
	  <point x="1145" y="743" type="curve" smooth="yes"/>
	  <point x="1148" y="0" type="line"/>
	  <point x="1307" y="0" type="line"/>
	  <point x="1285" y="1343" type="line"/>
	  <point x="1096" y="1343" type="line"/>
	  <point x="840" y="621" type="line"/>
	  <point x="744" y="346" type="line"/>
	  <point x="736" y="346" type="line"/>
	  <point x="640" y="621" type="line"/>
	  <point x="380" y="1343" type="line"/>
	  <point x="188" y="1343" type="line"/>
	</contour>
	<contour>
	  <point x="740" y="-45" type="move" name="mark0"/>
	</contour>
  </outline>
</glyph>
<glyph name="N" format="1">
  <advance width="1314"/>
  <unicode hex="004E"/>
  <outline>
	<contour>
	  <point x="178" y="0" type="line"/>
	  <point x="338" y="0" type="line"/>
	  <point x="338" y="705" type="line"/>
	  <point x="338" y="847"/>
	  <point x="327" y="990"/>
	  <point x="318" y="1125" type="curve"/>
	  <point x="327" y="1125" type="line"/>
	  <point x="472" y="849" type="line"/>
	  <point x="959" y="0" type="line"/>
	  <point x="1134" y="0" type="line"/>
	  <point x="1134" y="1343" type="line"/>
	  <point x="974" y="1343" type="line"/>
	  <point x="974" y="646" type="line"/>
	  <point x="974" y="505"/>
	  <point x="988" y="354"/>
	  <point x="996" y="219" type="curve"/>
	  <point x="988" y="219" type="line"/>
	  <point x="842" y="497" type="line"/>
	  <point x="352" y="1343" type="line"/>
	  <point x="178" y="1343" type="line"/>
	</contour>
	<contour>
	  <point x="665" y="-45" type="move" name="mark0"/>
	</contour>
  </outline>
</glyph>
<glyph name="O" format="1">
  <advance width="1349"/>
  <unicode hex="004F"/>
  <outline>
	<contour>
	  <point x="673" y="-25" type="curve" smooth="yes"/>
	  <point x="1021" y="-25"/>
	  <point x="1247" y="229"/>
	  <point x="1247" y="674" type="curve" smooth="yes"/>
	  <point x="1247" y="1116"/>
	  <point x="1021" y="1368"/>
	  <point x="673" y="1368" type="curve" smooth="yes"/>
	  <point x="322" y="1368"/>
	  <point x="100" y="1118"/>
	  <point x="100" y="674" type="curve" smooth="yes"/>
	  <point x="100" y="229"/>
	  <point x="322" y="-25"/>
	</contour>
	<contour>
	  <point x="673" y="123" type="curve" smooth="yes"/>
	  <point x="420" y="123"/>
	  <point x="274" y="326"/>
	  <point x="274" y="674" type="curve" smooth="yes"/>
	  <point x="274" y="1020"/>
	  <point x="420" y="1221"/>
	  <point x="673" y="1221" type="curve" smooth="yes"/>
	  <point x="922" y="1221"/>
	  <point x="1073" y="1020"/>
	  <point x="1073" y="674" type="curve" smooth="yes"/>
	  <point x="1073" y="326"/>
	  <point x="922" y="123"/>
	</contour>
	<contour>
	  <point x="676" y="0" type="move" name="mark0"/>
	</contour>
  </outline>
</glyph>
<glyph name="P" format="1">
  <advance width="1167"/>
  <unicode hex="0050"/>
  <outline>
	<contour>
	  <point x="178" y="0" type="line"/>
	  <point x="348" y="0" type="line"/>
	  <point x="348" y="514" type="line"/>
	  <point x="604" y="514" type="line"/>
	  <point x="907" y="514"/>
	  <point x="1086" y="659"/>
	  <point x="1086" y="941" type="curve" smooth="yes"/>
	  <point x="1086" y="1235"/>
	  <point x="908" y="1343"/>
	  <point x="601" y="1343" type="curve" smooth="yes"/>
	  <point x="178" y="1343" type="line"/>
	</contour>
	<contour>
	  <point x="348" y="652" type="line"/>
	  <point x="348" y="1208" type="line"/>
	  <point x="578" y="1208" type="line"/>
	  <point x="821" y="1208"/>
	  <point x="919" y="1137"/>
	  <point x="919" y="941" type="curve" smooth="yes"/>
	  <point x="919" y="750"/>
	  <point x="828" y="652"/>
	  <point x="581" y="652" type="curve" smooth="yes"/>
	</contour>
	<contour>
	  <point x="275" y="-45" type="move" name="mark0"/>
	</contour>
  </outline>
</glyph>
<glyph name="Q" format="1">
  <advance width="1349"/>
  <unicode hex="0051"/>
  <outline>
	<contour>
	  <point x="272" y="678" type="curve" smooth="yes"/>
	  <point x="272" y="1022"/>
	  <point x="421" y="1221"/>
	  <point x="671" y="1221" type="curve" smooth="yes"/>
	  <point x="919" y="1221"/>
	  <point x="1070" y="1022"/>
	  <point x="1070" y="678" type="curve" smooth="yes"/>
	  <point x="1070" y="333"/>
	  <point x="919" y="123"/>
	  <point x="671" y="123" type="curve" smooth="yes"/>
	  <point x="421" y="123"/>
	  <point x="272" y="333"/>
	</contour>
	<contour>
	  <point x="1242" y="-173" type="line"/>
	  <point x="1205" y="-183"/>
	  <point x="1150" y="-194"/>
	  <point x="1091" y="-194" type="curve" smooth="yes"/>
	  <point x="945" y="-194"/>
	  <point x="813" y="-136"/>
	  <point x="770" y="-16" type="curve"/>
	  <point x="1056" y="32"/>
	  <point x="1246" y="281"/>
	  <point x="1246" y="678" type="curve" smooth="yes"/>
	  <point x="1246" y="1117"/>
	  <point x="1020" y="1368"/>
	  <point x="671" y="1368" type="curve" smooth="yes"/>
	  <point x="320" y="1368"/>
	  <point x="98" y="1119"/>
	  <point x="98" y="678" type="curve" smooth="yes"/>
	  <point x="98" y="273"/>
	  <point x="295" y="23"/>
	  <point x="588" y="-18" type="curve"/>
	  <point x="656" y="-203"/>
	  <point x="826" y="-336"/>
	  <point x="1073" y="-336" type="curve" smooth="yes"/>
	  <point x="1152" y="-336"/>
	  <point x="1234" y="-319"/>
	  <point x="1275" y="-305" type="curve"/>
	</contour>
	<contour>
	  <point x="677" y="1405" type="move" name="mark0"/>
	</contour>
  </outline>
</glyph>
<glyph name="R" format="1">
  <advance width="1178"/>
  <unicode hex="0052"/>
  <outline>
	<contour>
	  <point x="348" y="1208" type="line"/>
	  <point x="589" y="1208" type="line"/>
	  <point x="799" y="1208"/>
	  <point x="900" y="1157"/>
	  <point x="900" y="971" type="curve" smooth="yes"/>
	  <point x="900" y="776"/>
	  <point x="799" y="707"/>
	  <point x="589" y="707" type="curve" smooth="yes"/>
	  <point x="348" y="707" type="line"/>
	</contour>
	<contour>
	  <point x="1108" y="0" type="line"/>
	  <point x="775" y="587" type="line"/>
	  <point x="958" y="634"/>
	  <point x="1068" y="742"/>
	  <point x="1068" y="971" type="curve" smooth="yes"/>
	  <point x="1068" y="1258"/>
	  <point x="886" y="1343"/>
	  <point x="614" y="1343" type="curve" smooth="yes"/>
	  <point x="178" y="1343" type="line"/>
	  <point x="178" y="0" type="line"/>
	  <point x="348" y="0" type="line"/>
	  <point x="348" y="568" type="line"/>
	  <point x="601" y="568" type="line"/>
	  <point x="916" y="0" type="line"/>
	</contour>
	<contour>
	  <point x="628" y="-45" type="move" name="mark0"/>
	</contour>
  </outline>
</glyph>
<glyph name="T" format="1">
  <advance width="1086"/>
  <unicode hex="0054"/>
  <outline>
	<contour>
	  <point x="460" y="0" type="line"/>
	  <point x="628" y="0" type="line"/>
	  <point x="628" y="1202" type="line"/>
	  <point x="1035" y="1202" type="line"/>
	  <point x="1035" y="1343" type="line"/>
	  <point x="51" y="1343" type="line"/>
	  <point x="51" y="1202" type="line"/>
	  <point x="460" y="1202" type="line"/>
	</contour>
	<contour>
	  <point x="545" y="-45" type="move" name="mark0"/>
	</contour>
  </outline>
</glyph>
<glyph name="U" format="1">
  <advance width="1310"/>
  <unicode hex="0055"/>
  <outline>
	<contour>
	  <point x="172" y="544" type="line"/>
	  <point x="172" y="118"/>
	  <point x="382" y="-25"/>
	  <point x="655" y="-25" type="curve" smooth="yes"/>
	  <point x="929" y="-25"/>
	  <point x="1138" y="115"/>
	  <point x="1138" y="544" type="curve" smooth="yes"/>
	  <point x="1138" y="1343" type="line"/>
	  <point x="976" y="1343" type="line"/>
	  <point x="976" y="541" type="line"/>
	  <point x="976" y="218"/>
	  <point x="834" y="123"/>
	  <point x="655" y="123" type="curve" smooth="yes"/>
	  <point x="480" y="123"/>
	  <point x="342" y="220"/>
	  <point x="342" y="541" type="curve" smooth="yes"/>
	  <point x="342" y="1343" type="line"/>
	  <point x="172" y="1343" type="line"/>
	</contour>
	<contour>
	  <point x="655" y="0" type="move" name="mark0"/>
	</contour>
  </outline>
</glyph>
<glyph name="V" format="1">
  <advance width="1042"/>
  <unicode hex="0056"/>
  <outline>
	<contour>
	  <point x="425" y="0" type="line"/>
	  <point x="621" y="0" type="line"/>
	  <point x="1047" y="1343" type="line"/>
	  <point x="875" y="1343" type="line"/>
	  <point x="659" y="617" type="line"/>
	  <point x="613" y="457"/>
	  <point x="579" y="330"/>
	  <point x="529" y="172" type="curve"/>
	  <point x="521" y="172" type="line"/>
	  <point x="472" y="330"/>
	  <point x="439" y="457"/>
	  <point x="392" y="617" type="curve" smooth="yes"/>
	  <point x="174" y="1343" type="line"/>
	  <point x="-4" y="1343" type="line"/>
	</contour>
	<contour>
	  <point x="521" y="-45" type="move" name="mark0"/>
	</contour>
  </outline>
</glyph>
<glyph name="Y" format="1">
  <advance width="963"/>
  <unicode hex="0059"/>
  <outline>
	<contour>
	  <point x="397" y="0" type="line"/>
	  <point x="565" y="0" type="line"/>
	  <point x="565" y="521" type="line"/>
	  <point x="969" y="1343" type="line"/>
	  <point x="795" y="1343" type="line"/>
	  <point x="621" y="964" type="line"/>
	  <point x="579" y="865"/>
	  <point x="531" y="771"/>
	  <point x="486" y="671" type="curve"/>
	  <point x="478" y="671" type="line"/>
	  <point x="431" y="771"/>
	  <point x="390" y="865"/>
	  <point x="347" y="964" type="curve" smooth="yes"/>
	  <point x="174" y="1343" type="line"/>
	  <point x="-8" y="1343" type="line"/>
	  <point x="397" y="521" type="line"/>
	</contour>
	<contour>
	  <point x="484" y="-45" type="move" name="mark0"/>
	</contour>
  </outline>
</glyph>
<glyph name="Z" format="1">
  <advance width="1093"/>
  <unicode hex="005A"/>
  <outline>
	<contour>
	  <point x="86" y="0" type="line"/>
	  <point x="1012" y="0" type="line"/>
	  <point x="1012" y="143" type="line"/>
	  <point x="295" y="143" type="line"/>
	  <point x="1006" y="1244" type="line"/>
	  <point x="1006" y="1343" type="line"/>
	  <point x="150" y="1343" type="line"/>
	  <point x="150" y="1202" type="line"/>
	  <point x="797" y="1202" type="line"/>
	  <point x="86" y="101" type="line"/>
	</contour>
	<contour>
	  <point x="571" y="-45" type="move" name="mark0"/>
	</contour>
  </outline>
</glyph>
<glyph name="bracketleft" format="1">
  <advance width="619"/>
  <unicode hex="005B"/>
  <outline>
	<contour>
	  <point x="193" y="-311" type="line"/>
	  <point x="558" y="-311" type="line"/>
	  <point x="558" y="-216" type="line"/>
	  <point x="318" y="-216" type="line"/>
	  <point x="318" y="1353" type="line"/>
	  <point x="558" y="1353" type="line"/>
	  <point x="558" y="1450" type="line"/>
	  <point x="193" y="1450" type="line"/>
	</contour>
  </outline>
</glyph>
<glyph name="backslash" format="1">
  <advance width="717"/>
  <unicode hex="005C"/>
  <outline>
	<contour>
	  <point x="575" y="-328" type="line"/>
	  <point x="696" y="-328" type="line"/>
	  <point x="148" y="1454" type="line"/>
	  <point x="29" y="1454" type="line"/>
	</contour>
  </outline>
</glyph>
<glyph name="bracketright" format="1">
  <advance width="619"/>
  <unicode hex="005D"/>
  <outline>
	<contour>
	  <point x="62" y="-216" type="line"/>
	  <point x="62" y="-311" type="line"/>
	  <point x="427" y="-311" type="line"/>
	  <point x="427" y="1450" type="line"/>
	  <point x="62" y="1450" type="line"/>
	  <point x="62" y="1353" type="line"/>
	  <point x="301" y="1353" type="line"/>
	  <point x="301" y="-216" type="line"/>
	</contour>
  </outline>
</glyph>
<glyph name="underscore" format="1">
  <advance width="1024"/>
  <unicode hex="005F"/>
  <outline>
	<contour>
	  <point x="25" y="-145" type="line"/>
	  <point x="25" y="-258" type="line"/>
	  <point x="999" y="-258" type="line"/>
	  <point x="999" y="-145" type="line"/>
	</contour>
  </outline>
</glyph>
<glyph name="grave" format="1">
  <advance width="1109"/>
  <unicode hex="0060"/>
  <outline>
	<contour>
	  <point x="560" y="1174" type="line"/>
	  <point x="687" y="1174" type="line"/>
	  <point x="503" y="1462" type="line"/>
	  <point x="329" y="1462" type="line"/>
	</contour>
  </outline>
</glyph>
<glyph name="a" format="1">
  <advance width="1048"/>
  <unicode hex="0061"/>
  <outline>
	<contour>
	  <point x="119" y="260" type="curve" smooth="yes"/>
	  <point x="119" y="81"/>
	  <point x="245" y="-25"/>
	  <point x="422" y="-25" type="curve" smooth="yes"/>
	  <point x="565" y="-25"/>
	  <point x="646" y="41"/>
	  <point x="742" y="119" type="curve"/>
	  <point x="746" y="119" type="line"/>
	  <point x="761" y="0" type="line"/>
	  <point x="898" y="0" type="line"/>
	  <point x="898" y="610" type="line"/>
	  <point x="898" y="871"/>
	  <point x="794" y="1020"/>
	  <point x="550" y="1020" type="curve" smooth="yes"/>
	  <point x="390" y="1020"/>
	  <point x="244" y="967"/>
	  <point x="153" y="908" type="curve"/>
	  <point x="219" y="794" type="line"/>
	  <point x="297" y="846"/>
	  <point x="407" y="882"/>
	  <point x="523" y="882" type="curve" smooth="yes"/>
	  <point x="686" y="882"/>
	  <point x="732" y="781"/>
	  <point x="732" y="631" type="curve"/>
	  <point x="303" y="610"/>
	  <point x="119" y="477"/>
	</contour>
	<contour>
	  <point x="284" y="269" type="curve" smooth="yes"/>
	  <point x="284" y="397"/>
	  <point x="392" y="507"/>
	  <point x="732" y="521" type="curve"/>
	  <point x="732" y="243" type="line"/>
	  <point x="635" y="157"/>
	  <point x="565" y="110"/>
	  <point x="468" y="110" type="curve" smooth="yes"/>
	  <point x="359" y="110"/>
	  <point x="284" y="157"/>
	</contour>
	<contour>
	  <point x="848" y="0" type="move" name="mark0"/>
	</contour>
  </outline>
</glyph>
<glyph name="b" format="1">
  <advance width="1136"/>
  <unicode hex="0062"/>
  <outline>
	<contour>
	  <point x="169" y="0" type="line"/>
	  <point x="302" y="0" type="line"/>
	  <point x="316" y="98" type="line"/>
	  <point x="323" y="98" type="line"/>
	  <point x="411" y="20"/>
	  <point x="515" y="-25"/>
	  <point x="611" y="-25" type="curve" smooth="yes"/>
	  <point x="848" y="-25"/>
	  <point x="1037" y="162"/>
	  <point x="1037" y="511" type="curve" smooth="yes"/>
	  <point x="1037" y="827"/>
	  <point x="916" y="1020"/>
	  <point x="647" y="1020" type="curve" smooth="yes"/>
	  <point x="532" y="1020"/>
	  <point x="421" y="960"/>
	  <point x="331" y="880" type="curve"/>
	  <point x="335" y="1061" type="line"/>
	  <point x="335" y="1458" type="line"/>
	  <point x="169" y="1458" type="line"/>
	</contour>
	<contour>
	  <point x="335" y="220" type="curve"/>
	  <point x="335" y="744" type="line"/>
	  <point x="429" y="832"/>
	  <point x="518" y="880"/>
	  <point x="606" y="880" type="curve" smooth="yes"/>
	  <point x="803" y="880"/>
	  <point x="865" y="735"/>
	  <point x="865" y="509" type="curve" smooth="yes"/>
	  <point x="865" y="257"/>
	  <point x="752" y="115"/>
	  <point x="583" y="115" type="curve" smooth="yes"/>
	  <point x="513" y="115"/>
	  <point x="423" y="144"/>
	</contour>
	<contour>
	  <point x="582" y="-45" type="move" name="mark0"/>
	</contour>
  </outline>
</glyph>
<glyph name="c" format="1">
  <advance width="933"/>
  <unicode hex="0063"/>
  <outline>
	<contour>
	  <point x="94" y="500" type="curve" smooth="yes"/>
	  <point x="94" y="156"/>
	  <point x="294" y="-25"/>
	  <point x="558" y="-25" type="curve" smooth="yes"/>
	  <point x="677" y="-25"/>
	  <point x="785" y="15"/>
	  <point x="875" y="94" type="curve"/>
	  <point x="800" y="204" type="line"/>
	  <point x="740" y="151"/>
	  <point x="667" y="113"/>
	  <point x="572" y="113" type="curve" smooth="yes"/>
	  <point x="389" y="113"/>
	  <point x="265" y="261"/>
	  <point x="265" y="500" type="curve" smooth="yes"/>
	  <point x="265" y="739"/>
	  <point x="395" y="882"/>
	  <point x="576" y="882" type="curve" smooth="yes"/>
	  <point x="656" y="882"/>
	  <point x="721" y="848"/>
	  <point x="780" y="797" type="curve"/>
	  <point x="863" y="904" type="line"/>
	  <point x="797" y="967"/>
	  <point x="702" y="1020"/>
	  <point x="570" y="1020" type="curve" smooth="yes"/>
	  <point x="314" y="1020"/>
	  <point x="94" y="846"/>
	</contour>
	<contour>
	  <point x="553" y="-45" type="move" name="mark0"/>
	</contour>
  </outline>
</glyph>
<glyph name="e" format="1">
  <advance width="1015"/>
  <unicode hex="0065"/>
  <outline>
	<contour>
	  <point x="93" y="497" type="curve" smooth="yes"/>
	  <point x="93" y="160"/>
	  <point x="305" y="-25"/>
	  <point x="571" y="-25" type="curve" smooth="yes"/>
	  <point x="707" y="-25"/>
	  <point x="811" y="14"/>
	  <point x="896" y="69" type="curve"/>
	  <point x="838" y="178" type="line"/>
	  <point x="764" y="131"/>
	  <point x="686" y="110"/>
	  <point x="591" y="110" type="curve" smooth="yes"/>
	  <point x="400" y="110"/>
	  <point x="270" y="238"/>
	  <point x="258" y="461" type="curve"/>
	  <point x="931" y="461" type="line"/>
	  <point x="935" y="485"/>
	  <point x="937" y="518"/>
	  <point x="937" y="553" type="curve" smooth="yes"/>
	  <point x="937" y="848"/>
	  <point x="809" y="1021"/>
	  <point x="539" y="1021" type="curve" smooth="yes"/>
	  <point x="296" y="1021"/>
	  <point x="93" y="831"/>
	</contour>
	<contour>
	  <point x="256" y="570" type="line"/>
	  <point x="275" y="775"/>
	  <point x="393" y="888"/>
	  <point x="543" y="888" type="curve" smooth="yes"/>
	  <point x="708" y="888"/>
	  <point x="792" y="784"/>
	  <point x="792" y="570" type="curve"/>
	</contour>
	<contour>
	  <point x="797" y="0" type="move" name="mark0"/>
	</contour>
  </outline>
</glyph>
<glyph name="f" format="1">
  <advance width="596"/>
  <unicode hex="0066"/>
  <outline>
	<contour>
	  <point x="651" y="1450" type="line"/>
	  <point x="606" y="1468"/>
	  <point x="548" y="1483"/>
	  <point x="486" y="1483" type="curve" smooth="yes"/>
	  <point x="289" y="1483"/>
	  <point x="197" y="1361"/>
	  <point x="197" y="1158" type="curve" smooth="yes"/>
	  <point x="197" y="995" type="line"/>
	  <point x="61" y="985" type="line"/>
	  <point x="61" y="859" type="line"/>
	  <point x="197" y="859" type="line"/>
	  <point x="197" y="0" type="line"/>
	  <point x="363" y="0" type="line"/>
	  <point x="363" y="859" type="line"/>
	  <point x="574" y="859" type="line"/>
	  <point x="574" y="995" type="line"/>
	  <point x="363" y="995" type="line"/>
	  <point x="363" y="1158" type="line"/>
	  <point x="363" y="1285"/>
	  <point x="408" y="1348"/>
	  <point x="503" y="1348" type="curve" smooth="yes"/>
	  <point x="540" y="1348"/>
	  <point x="579" y="1339"/>
	  <point x="615" y="1323" type="curve"/>
	</contour>
	<contour>
	  <point x="280" y="-45" type="move" name="mark0"/>
	</contour>
  </outline>
</glyph>
<glyph name="g" format="1">
  <advance width="1031"/>
  <unicode hex="0067"/>
  <outline>
	<contour>
	  <point x="241" y="-169" type="curve" smooth="yes"/>
	  <point x="241" y="-108"/>
	  <point x="269" y="-35"/>
	  <point x="341" y="16" type="curve"/>
	  <point x="385" y="4"/>
	  <point x="432" y="0"/>
	  <point x="470" y="0" type="curve" smooth="yes"/>
	  <point x="643" y="0" type="line"/>
	  <point x="774" y="0"/>
	  <point x="845" y="-46"/>
	  <point x="845" y="-139" type="curve" smooth="yes"/>
	  <point x="845" y="-245"/>
	  <point x="728" y="-341"/>
	  <point x="528" y="-341" type="curve" smooth="yes"/>
	  <point x="337" y="-341"/>
	  <point x="241" y="-275"/>
	</contour>
	<contour>
	  <point x="92" y="-190" type="curve" smooth="yes"/>
	  <point x="92" y="-362"/>
	  <point x="228" y="-459"/>
	  <point x="502" y="-459" type="curve" smooth="yes"/>
	  <point x="826" y="-459"/>
	  <point x="1007" y="-299"/>
	  <point x="1007" y="-116" type="curve" smooth="yes"/>
	  <point x="1007" y="50"/>
	  <point x="912" y="135"/>
	  <point x="680" y="135" type="curve" smooth="yes"/>
	  <point x="466" y="135" type="line"/>
	  <point x="331" y="135"/>
	  <point x="290" y="180"/>
	  <point x="290" y="243" type="curve" smooth="yes"/>
	  <point x="290" y="299"/>
	  <point x="318" y="319"/>
	  <point x="353" y="350" type="curve"/>
	  <point x="398" y="328"/>
	  <point x="451" y="315"/>
	  <point x="504" y="315" type="curve" smooth="yes"/>
	  <point x="716" y="315"/>
	  <point x="869" y="436"/>
	  <point x="869" y="661" type="curve" smooth="yes"/>
	  <point x="869" y="751"/>
	  <point x="833" y="824"/>
	  <point x="785" y="867" type="curve"/>
	  <point x="990" y="867" type="line"/>
	  <point x="990" y="995" type="line"/>
	  <point x="644" y="995" type="line"/>
	  <point x="608" y="1010"/>
	  <point x="568" y="1020"/>
	  <point x="504" y="1020" type="curve" smooth="yes"/>
	  <point x="291" y="1020"/>
	  <point x="129" y="896"/>
	  <point x="129" y="665" type="curve" smooth="yes"/>
	  <point x="129" y="538"/>
	  <point x="193" y="451"/>
	  <point x="258" y="397" type="curve"/>
	  <point x="258" y="389" type="line"/>
	  <point x="208" y="354"/>
	  <point x="150" y="302"/>
	  <point x="150" y="218" type="curve" smooth="yes"/>
	  <point x="150" y="140"/>
	  <point x="188" y="87"/>
	  <point x="238" y="56" type="curve"/>
	  <point x="238" y="48" type="line"/>
	  <point x="147" y="-10"/>
	  <point x="92" y="-101"/>
	</contour>
	<contour>
	  <point x="504" y="427" type="curve" smooth="yes"/>
	  <point x="388" y="427"/>
	  <point x="291" y="509"/>
	  <point x="291" y="665" type="curve" smooth="yes"/>
	  <point x="291" y="821"/>
	  <point x="376" y="898"/>
	  <point x="504" y="898" type="curve" smooth="yes"/>
	  <point x="631" y="898"/>
	  <point x="716" y="821"/>
	  <point x="716" y="665" type="curve" smooth="yes"/>
	  <point x="716" y="506"/>
	  <point x="618" y="427"/>
	</contour>
	<contour>
	  <point x="512" y="-471" type="move" name="mark0"/>
	</contour>
  </outline>
</glyph>
<glyph name="h" format="1">
  <advance width="1113"/>
  <unicode hex="0068"/>
  <outline>
	<contour>
	  <point x="169" y="0" type="line"/>
	  <point x="335" y="0" type="line"/>
	  <point x="335" y="722" type="line"/>
	  <point x="435" y="822"/>
	  <point x="506" y="875"/>
	  <point x="609" y="875" type="curve" smooth="yes"/>
	  <point x="744" y="875"/>
	  <point x="798" y="800"/>
	  <point x="798" y="612" type="curve" smooth="yes"/>
	  <point x="798" y="0" type="line"/>
	  <point x="964" y="0" type="line"/>
	  <point x="964" y="635" type="line"/>
	  <point x="964" y="889"/>
	  <point x="876" y="1020"/>
	  <point x="661" y="1020" type="curve" smooth="yes"/>
	  <point x="523" y="1020"/>
	  <point x="423" y="946"/>
	  <point x="329" y="855" type="curve"/>
	  <point x="335" y="1061" type="line"/>
	  <point x="335" y="1458" type="line"/>
	  <point x="169" y="1458" type="line"/>
	</contour>
	<contour>
	  <point x="586" y="-45" type="move" name="mark0"/>
	</contour>
  </outline>
</glyph>
<glyph name="i" format="1">
  <advance width="503"/>
  <unicode hex="0069"/>
  <outline>
	<contour>
	  <point x="254" y="1201" type="curve" smooth="yes"/>
	  <point x="318" y="1201"/>
	  <point x="370" y="1245"/>
	  <point x="370" y="1309" type="curve" smooth="yes"/>
	  <point x="370" y="1373"/>
	  <point x="318" y="1416"/>
	  <point x="254" y="1416" type="curve" smooth="yes"/>
	  <point x="188" y="1416"/>
	  <point x="137" y="1373"/>
	  <point x="137" y="1309" type="curve" smooth="yes"/>
	  <point x="137" y="1245"/>
	  <point x="188" y="1201"/>
	</contour>
	<contour>
	  <point x="169" y="0" type="line"/>
	  <point x="335" y="0" type="line"/>
	  <point x="335" y="995" type="line"/>
	  <point x="169" y="995" type="line"/>
	</contour>
	<contour>
	  <point x="310" y="0" type="move" name="mark0"/>
	</contour>
  </outline>
</glyph>
<glyph name="j" format="1">
  <advance width="505"/>
  <unicode hex="006A"/>
  <outline>
	<contour>
	  <point x="170" y="-120" type="line"/>
	  <point x="170" y="-241"/>
	  <point x="146" y="-309"/>
	  <point x="47" y="-309" type="curve" smooth="yes"/>
	  <point x="12" y="-309"/>
	  <point x="-23" y="-301"/>
	  <point x="-47" y="-293" type="curve"/>
	  <point x="-82" y="-419" type="line"/>
	  <point x="-47" y="-433"/>
	  <point x="4" y="-445"/>
	  <point x="66" y="-445" type="curve" smooth="yes"/>
	  <point x="263" y="-445"/>
	  <point x="337" y="-322"/>
	  <point x="337" y="-121" type="curve" smooth="yes"/>
	  <point x="337" y="995" type="line"/>
	  <point x="170" y="995" type="line"/>
	</contour>
	<contour>
	  <point x="255" y="1201" type="curve" smooth="yes"/>
	  <point x="318" y="1201"/>
	  <point x="370" y="1245"/>
	  <point x="370" y="1309" type="curve" smooth="yes"/>
	  <point x="370" y="1373"/>
	  <point x="318" y="1416"/>
	  <point x="255" y="1416" type="curve" smooth="yes"/>
	  <point x="190" y="1416"/>
	  <point x="139" y="1373"/>
	  <point x="139" y="1309" type="curve" smooth="yes"/>
	  <point x="139" y="1245"/>
	  <point x="190" y="1201"/>
	</contour>
	<contour>
	  <point x="120" y="-473" type="move" name="mark0"/>
	</contour>
  </outline>
</glyph>
<glyph name="k" format="1">
  <advance width="1012"/>
  <unicode hex="006B"/>
  <outline>
	<contour>
	  <point x="169" y="0" type="line"/>
	  <point x="333" y="0" type="line"/>
	  <point x="333" y="262" type="line"/>
	  <point x="519" y="480" type="line"/>
	  <point x="811" y="0" type="line"/>
	  <point x="993" y="0" type="line"/>
	  <point x="614" y="596" type="line"/>
	  <point x="948" y="995" type="line"/>
	  <point x="764" y="995" type="line"/>
	  <point x="339" y="469" type="line"/>
	  <point x="333" y="469" type="line"/>
	  <point x="333" y="1458" type="line"/>
	  <point x="169" y="1458" type="line"/>
	</contour>
	<contour>
	  <point x="554" y="-45" type="move" name="mark0"/>
	</contour>
  </outline>
</glyph>
<glyph name="n" format="1">
  <advance width="1119"/>
  <unicode hex="006E"/>
  <outline>
	<contour>
	  <point x="169" y="0" type="line"/>
	  <point x="335" y="0" type="line"/>
	  <point x="335" y="722" type="line"/>
	  <point x="435" y="822"/>
	  <point x="505" y="875"/>
	  <point x="608" y="875" type="curve" smooth="yes"/>
	  <point x="749" y="875"/>
	  <point x="798" y="801"/>
	  <point x="798" y="613" type="curve" smooth="yes"/>
	  <point x="798" y="0" type="line"/>
	  <point x="964" y="0" type="line"/>
	  <point x="964" y="636" type="line"/>
	  <point x="964" y="890"/>
	  <point x="878" y="1020"/>
	  <point x="661" y="1020" type="curve" smooth="yes"/>
	  <point x="523" y="1020"/>
	  <point x="421" y="946"/>
	  <point x="327" y="851" type="curve"/>
	  <point x="321" y="851" type="line"/>
	  <point x="306" y="995" type="line"/>
	  <point x="169" y="995" type="line"/>
	</contour>
	<contour>
	  <point x="569" y="-45" type="move" name="mark0"/>
	</contour>
  </outline>
</glyph>
<glyph name="o" format="1">
  <advance width="1109"/>
  <unicode hex="006F"/>
  <outline>
	<contour>
	  <point x="95" y="498" type="curve" smooth="yes"/>
	  <point x="95" y="161"/>
	  <point x="303" y="-25"/>
	  <point x="554" y="-25" type="curve" smooth="yes"/>
	  <point x="805" y="-25"/>
	  <point x="1015" y="161"/>
	  <point x="1015" y="498" type="curve" smooth="yes"/>
	  <point x="1015" y="838"/>
	  <point x="805" y="1020"/>
	  <point x="554" y="1020" type="curve" smooth="yes"/>
	  <point x="303" y="1020"/>
	  <point x="95" y="838"/>
	</contour>
	<contour>
	  <point x="267" y="498" type="curve" smooth="yes"/>
	  <point x="267" y="732"/>
	  <point x="378" y="882"/>
	  <point x="554" y="882" type="curve" smooth="yes"/>
	  <point x="732" y="882"/>
	  <point x="843" y="732"/>
	  <point x="843" y="498" type="curve" smooth="yes"/>
	  <point x="843" y="264"/>
	  <point x="732" y="113"/>
	  <point x="554" y="113" type="curve" smooth="yes"/>
	  <point x="378" y="113"/>
	  <point x="267" y="264"/>
	</contour>
	<contour>
	  <point x="655" y="0" type="move" name="mark0"/>
	</contour>
  </outline>
</glyph>
<glyph name="p" format="1">
  <advance width="1136"/>
  <unicode hex="0070"/>
  <outline>
	<contour>
	  <point x="331" y="90" type="line"/>
	  <point x="423" y="18"/>
	  <point x="510" y="-25"/>
	  <point x="606" y="-25" type="curve" smooth="yes"/>
	  <point x="840" y="-25"/>
	  <point x="1037" y="164"/>
	  <point x="1037" y="510" type="curve" smooth="yes"/>
	  <point x="1037" y="827"/>
	  <point x="907" y="1020"/>
	  <point x="643" y="1020" type="curve" smooth="yes"/>
	  <point x="523" y="1020"/>
	  <point x="417" y="955"/>
	  <point x="327" y="880" type="curve"/>
	  <point x="321" y="880" type="line"/>
	  <point x="306" y="995" type="line"/>
	  <point x="169" y="995" type="line"/>
	  <point x="169" y="-421" type="line"/>
	  <point x="335" y="-421" type="line"/>
	  <point x="335" y="-84" type="line"/>
	</contour>
	<contour>
	  <point x="335" y="220" type="curve"/>
	  <point x="335" y="744" type="line"/>
	  <point x="433" y="832"/>
	  <point x="514" y="880"/>
	  <point x="600" y="880" type="curve" smooth="yes"/>
	  <point x="796" y="880"/>
	  <point x="865" y="736"/>
	  <point x="865" y="510" type="curve" smooth="yes"/>
	  <point x="865" y="259"/>
	  <point x="746" y="115"/>
	  <point x="577" y="115" type="curve" smooth="yes"/>
	  <point x="509" y="115"/>
	  <point x="425" y="144"/>
	</contour>
	<contour>
	  <point x="240" y="-446" type="move" name="mark0"/>
	</contour>
  </outline>
</glyph>
<glyph name="q" format="1">
  <advance width="1125"/>
  <unicode hex="0071"/>
  <outline>
	<contour>
	  <point x="96" y="494" type="curve" smooth="yes"/>
	  <point x="96" y="151"/>
	  <point x="250" y="-25"/>
	  <point x="509" y="-25" type="curve" smooth="yes"/>
	  <point x="629" y="-25"/>
	  <point x="728" y="37"/>
	  <point x="808" y="111" type="curve"/>
	  <point x="800" y="-66" type="line"/>
	  <point x="800" y="-421" type="line"/>
	  <point x="968" y="-421" type="line"/>
	  <point x="968" y="995" type="line"/>
	  <point x="834" y="995" type="line"/>
	  <point x="818" y="901" type="line"/>
	  <point x="814" y="901" type="line"/>
	  <point x="724" y="979"/>
	  <point x="649" y="1020"/>
	  <point x="530" y="1020" type="curve" smooth="yes"/>
	  <point x="295" y="1020"/>
	  <point x="96" y="826"/>
	</contour>
	<contour>
	  <point x="268" y="496" type="curve" smooth="yes"/>
	  <point x="268" y="730"/>
	  <point x="393" y="880"/>
	  <point x="560" y="880" type="curve" smooth="yes"/>
	  <point x="645" y="880"/>
	  <point x="715" y="851"/>
	  <point x="800" y="775" type="curve"/>
	  <point x="800" y="253" type="line"/>
	  <point x="717" y="161"/>
	  <point x="643" y="115"/>
	  <point x="547" y="115" type="curve" smooth="yes"/>
	  <point x="366" y="115"/>
	  <point x="268" y="249"/>
	</contour>
	<contour>
	  <point x="872" y="-446" type="move" name="mark0"/>
	</contour>
  </outline>
</glyph>
<glyph name="r" format="1">
  <advance width="709"/>
  <unicode hex="0072"/>
  <outline>
	<contour>
	  <point x="169" y="0" type="line"/>
	  <point x="335" y="0" type="line"/>
	  <point x="335" y="640" type="line"/>
	  <point x="402" y="808"/>
	  <point x="503" y="869"/>
	  <point x="587" y="869" type="curve" smooth="yes"/>
	  <point x="628" y="869"/>
	  <point x="650" y="863"/>
	  <point x="683" y="853" type="curve"/>
	  <point x="715" y="999" type="line"/>
	  <point x="682" y="1014"/>
	  <point x="652" y="1020"/>
	  <point x="609" y="1020" type="curve" smooth="yes"/>
	  <point x="497" y="1020"/>
	  <point x="394" y="940"/>
	  <point x="327" y="815" type="curve"/>
	  <point x="321" y="815" type="line"/>
	  <point x="306" y="995" type="line"/>
	  <point x="169" y="995" type="line"/>
	</contour>
	<contour>
	  <point x="251" y="-45" type="move" name="mark0"/>
	</contour>
  </outline>
</glyph>
<glyph name="t" format="1">
  <advance width="690"/>
  <unicode hex="0074"/>
  <outline>
	<contour>
	  <point x="197" y="306" type="line"/>
	  <point x="197" y="111"/>
	  <point x="268" y="-25"/>
	  <point x="480" y="-25" type="curve" smooth="yes"/>
	  <point x="542" y="-25"/>
	  <point x="609" y="-6"/>
	  <point x="665" y="12" type="curve"/>
	  <point x="632" y="138" type="line"/>
	  <point x="599" y="126"/>
	  <point x="554" y="112"/>
	  <point x="519" y="112" type="curve" smooth="yes"/>
	  <point x="404" y="112"/>
	  <point x="365" y="181"/>
	  <point x="365" y="304" type="curve" smooth="yes"/>
	  <point x="365" y="859" type="line"/>
	  <point x="634" y="859" type="line"/>
	  <point x="634" y="995" type="line"/>
	  <point x="365" y="995" type="line"/>
	  <point x="365" y="1274" type="line"/>
	  <point x="225" y="1274" type="line"/>
	  <point x="205" y="995" type="line"/>
	  <point x="49" y="985" type="line"/>
	  <point x="49" y="859" type="line"/>
	  <point x="197" y="859" type="line"/>
	</contour>
	<contour>
	  <point x="433" y="-45" type="move" name="mark0"/>
	</contour>
  </outline>
</glyph>
<glyph name="u" format="1">
  <advance width="1113"/>
  <unicode hex="0075"/>
  <outline>
	<contour>
	  <point x="155" y="361" type="line"/>
	  <point x="155" y="107"/>
	  <point x="239" y="-25"/>
	  <point x="459" y="-25" type="curve" smooth="yes"/>
	  <point x="606" y="-25"/>
	  <point x="694" y="47"/>
	  <point x="786" y="156" type="curve"/>
	  <point x="793" y="156" type="line"/>
	  <point x="807" y="0" type="line"/>
	  <point x="945" y="0" type="line"/>
	  <point x="945" y="995" type="line"/>
	  <point x="779" y="995" type="line"/>
	  <point x="779" y="288" type="line"/>
	  <point x="684" y="171"/>
	  <point x="622" y="119"/>
	  <point x="509" y="119" type="curve" smooth="yes"/>
	  <point x="368" y="119"/>
	  <point x="322" y="196"/>
	  <point x="322" y="383" type="curve" smooth="yes"/>
	  <point x="322" y="995" type="line"/>
	  <point x="155" y="995" type="line"/>
	</contour>
	<contour>
	  <point x="876" y="0" type="move" name="mark0"/>
	</contour>
  </outline>
</glyph>
<glyph name="v" format="1">
  <advance width="954"/>
  <unicode hex="0076"/>
  <outline>
	<contour>
	  <point x="383" y="0" type="line"/>
	  <point x="578" y="0" type="line"/>
	  <point x="930" y="995" type="line"/>
	  <point x="766" y="995" type="line"/>
	  <point x="577" y="428" type="line"/>
	  <point x="548" y="330"/>
	  <point x="515" y="230"/>
	  <point x="486" y="136" type="curve"/>
	  <point x="478" y="136" type="line"/>
	  <point x="448" y="230"/>
	  <point x="415" y="330"/>
	  <point x="386" y="428" type="curve"/>
	  <point x="197" y="995" type="line"/>
	  <point x="25" y="995" type="line"/>
	</contour>
	<contour>
	  <point x="480" y="-45" type="move" name="mark0"/>
	</contour>
  </outline>
</glyph>
<glyph name="w" format="1">
  <advance width="1468"/>
  <unicode hex="0077"/>
  <outline>
	<contour>
	  <point x="326" y="0" type="line"/>
	  <point x="520" y="0" type="line"/>
	  <point x="661" y="534" type="line"/>
	  <point x="687" y="629"/>
	  <point x="708" y="723"/>
	  <point x="730" y="823" type="curve"/>
	  <point x="738" y="823" type="line"/>
	  <point x="763" y="723"/>
	  <point x="781" y="631"/>
	  <point x="806" y="537" type="curve" smooth="yes"/>
	  <point x="950" y="0" type="line"/>
	  <point x="1153" y="0" type="line"/>
	  <point x="1419" y="995" type="line"/>
	  <point x="1262" y="995" type="line"/>
	  <point x="1115" y="418" type="line"/>
	  <point x="1095" y="324"/>
	  <point x="1076" y="234"/>
	  <point x="1054" y="141" type="curve"/>
	  <point x="1046" y="141" type="line"/>
	  <point x="1023" y="234"/>
	  <point x="1000" y="324"/>
	  <point x="976" y="418" type="curve" smooth="yes"/>
	  <point x="819" y="995" type="line"/>
	  <point x="657" y="995" type="line"/>
	  <point x="503" y="418" type="line"/>
	  <point x="478" y="326"/>
	  <point x="458" y="234"/>
	  <point x="435" y="141" type="curve"/>
	  <point x="427" y="141" type="line"/>
	  <point x="409" y="234"/>
	  <point x="390" y="324"/>
	  <point x="368" y="418" type="curve"/>
	  <point x="219" y="995" type="line"/>
	  <point x="49" y="995" type="line"/>
	</contour>
	<contour>
	  <point x="736" y="-45" type="move" name="mark0"/>
	</contour>
  </outline>
</glyph>
<glyph name="y" format="1">
  <advance width="954"/>
  <unicode hex="0079"/>
  <outline>
	<contour>
	  <point x="99" y="-276" type="curve"/>
	  <point x="68" y="-409" type="line"/>
	  <point x="99" y="-421"/>
	  <point x="138" y="-429"/>
	  <point x="183" y="-429" type="curve" smooth="yes"/>
	  <point x="383" y="-429"/>
	  <point x="485" y="-279"/>
	  <point x="555" y="-83" type="curve" smooth="yes"/>
	  <point x="930" y="995" type="line"/>
	  <point x="764" y="995" type="line"/>
	  <point x="587" y="442" type="line"/>
	  <point x="560" y="354"/>
	  <point x="534" y="252"/>
	  <point x="505" y="162" type="curve"/>
	  <point x="497" y="162" type="line"/>
	  <point x="466" y="254"/>
	  <point x="431" y="356"/>
	  <point x="400" y="442" type="curve" smooth="yes"/>
	  <point x="197" y="995" type="line"/>
	  <point x="25" y="995" type="line"/>
	  <point x="424" y="-2" type="line"/>
	  <point x="401" y="-77" type="line"/>
	  <point x="360" y="-200"/>
	  <point x="289" y="-291"/>
	  <point x="175" y="-291" type="curve" smooth="yes"/>
	  <point x="151" y="-291"/>
	  <point x="120" y="-283"/>
	</contour>
	<contour>
	  <point x="409" y="-496" type="move" name="mark0"/>
	</contour>
  </outline>
</glyph>
<glyph name="z" format="1">
  <advance width="868"/>
  <unicode hex="007A"/>
  <outline>
	<contour>
	  <point x="63" y="0" type="line"/>
	  <point x="816" y="0" type="line"/>
	  <point x="816" y="136" type="line"/>
	  <point x="273" y="136" type="line"/>
	  <point x="800" y="906" type="line"/>
	  <point x="800" y="995" type="line"/>
	  <point x="121" y="995" type="line"/>
	  <point x="121" y="859" type="line"/>
	  <point x="589" y="859" type="line"/>
	  <point x="63" y="89" type="line"/>
	</contour>
	<contour>
	  <point x="466" y="-45" type="move" name="mark0"/>
	</contour>
  </outline>
</glyph>
<glyph name="bar" format="1">
  <advance width="493"/>
  <unicode hex="007C"/>
  <outline>
	<contour>
	  <point x="188" y="-512" type="line"/>
	  <point x="306" y="-512" type="line"/>
	  <point x="306" y="1536" type="line"/>
	  <point x="188" y="1536" type="line"/>
	</contour>
  </outline>
</glyph>
<glyph name="braceright" format="1">
  <advance width="619"/>
  <unicode hex="007D"/>
  <outline>
	<contour>
	  <point x="62" y="-216" type="line"/>
	  <point x="62" y="-311" type="line"/>
	  <point x="153" y="-311" type="line"/>
	  <point x="316" y="-311"/>
	  <point x="392" y="-250"/>
	  <point x="392" y="-39" type="curve" smooth="yes"/>
	  <point x="392" y="111"/>
	  <point x="374" y="219"/>
	  <point x="374" y="356" type="curve" smooth="yes"/>
	  <point x="374" y="436"/>
	  <point x="413" y="515"/>
	  <point x="550" y="517" type="curve"/>
	  <point x="550" y="622" type="line"/>
	  <point x="413" y="624"/>
	  <point x="374" y="702"/>
	  <point x="374" y="780" type="curve" smooth="yes"/>
	  <point x="374" y="909"/>
	  <point x="392" y="1036"/>
	  <point x="392" y="1178" type="curve" smooth="yes"/>
	  <point x="392" y="1386"/>
	  <point x="316" y="1450"/>
	  <point x="153" y="1450" type="curve" smooth="yes"/>
	  <point x="62" y="1450" type="line"/>
	  <point x="62" y="1353" type="line"/>
	  <point x="117" y="1353" type="line"/>
	  <point x="227" y="1353"/>
	  <point x="256" y="1301"/>
	  <point x="256" y="1167" type="curve" smooth="yes"/>
	  <point x="256" y="1049"/>
	  <point x="246" y="922"/>
	  <point x="246" y="797" type="curve" smooth="yes"/>
	  <point x="246" y="664"/>
	  <point x="279" y="598"/>
	  <point x="367" y="573" type="curve"/>
	  <point x="367" y="565" type="line"/>
	  <point x="279" y="541"/>
	  <point x="246" y="473"/>
	  <point x="246" y="342" type="curve" smooth="yes"/>
	  <point x="246" y="203"/>
	  <point x="256" y="96"/>
	  <point x="256" y="-29" type="curve" smooth="yes"/>
	  <point x="256" y="-163"/>
	  <point x="227" y="-216"/>
	  <point x="117" y="-216" type="curve" smooth="yes"/>
	</contour>
  </outline>
</glyph>
<glyph name="exclamdown" format="1">
  <advance width="590"/>
  <unicode hex="00A1"/>
  <outline>
	<contour>
	  <point x="353" y="591" type="line"/>
	  <point x="238" y="591" type="line"/>
	  <point x="215" y="-186" type="line"/>
	  <point x="211" y="-377" type="line"/>
	  <point x="379" y="-377" type="line"/>
	  <point x="375" y="-186" type="line"/>
	</contour>
	<contour>
	  <point x="416" y="894" type="curve" smooth="yes"/>
	  <point x="416" y="967"/>
	  <point x="361" y="1020"/>
	  <point x="296" y="1020" type="curve" smooth="yes"/>
	  <point x="229" y="1020"/>
	  <point x="174" y="967"/>
	  <point x="174" y="894" type="curve" smooth="yes"/>
	  <point x="174" y="816"/>
	  <point x="229" y="764"/>
	  <point x="296" y="764" type="curve" smooth="yes"/>
	  <point x="361" y="764"/>
	  <point x="416" y="816"/>
	</contour>
  </outline>
</glyph>
<glyph name="brokenbar" format="1">
  <advance width="493"/>
  <unicode hex="00A6"/>
  <outline>
	<contour>
	  <point x="188" y="595" type="line"/>
	  <point x="306" y="595" type="line"/>
	  <point x="306" y="1536" type="line"/>
	  <point x="188" y="1536" type="line"/>
	</contour>
	<contour>
	  <point x="188" y="438" type="line"/>
	  <point x="188" y="-512" type="line"/>
	  <point x="306" y="-512" type="line"/>
	  <point x="306" y="438" type="line"/>
	</contour>
  </outline>
</glyph>
<glyph name="dieresis" format="1">
  <advance width="1109"/>
  <unicode hex="00A8"/>
  <outline>
	<contour>
	  <point x="379" y="1205" type="curve" smooth="yes"/>
	  <point x="436" y="1205"/>
	  <point x="479" y="1247"/>
	  <point x="479" y="1305" type="curve" smooth="yes"/>
	  <point x="479" y="1361"/>
	  <point x="436" y="1404"/>
	  <point x="379" y="1404" type="curve" smooth="yes"/>
	  <point x="323" y="1404"/>
	  <point x="280" y="1361"/>
	  <point x="280" y="1305" type="curve" smooth="yes"/>
	  <point x="280" y="1247"/>
	  <point x="323" y="1205"/>
	</contour>
	<contour>
	  <point x="730" y="1205" type="curve" smooth="yes"/>
	  <point x="790" y="1205"/>
	  <point x="830" y="1247"/>
	  <point x="830" y="1305" type="curve" smooth="yes"/>
	  <point x="830" y="1361"/>
	  <point x="790" y="1404"/>
	  <point x="730" y="1404" type="curve" smooth="yes"/>
	  <point x="674" y="1404"/>
	  <point x="633" y="1361"/>
	  <point x="633" y="1305" type="curve" smooth="yes"/>
	  <point x="633" y="1247"/>
	  <point x="674" y="1205"/>
	</contour>
  </outline>
</glyph>
<glyph name="guillemotleft" format="1">
  <advance width="877"/>
  <unicode hex="00AB"/>
  <outline>
	<contour>
	  <point x="371" y="135" type="line"/>
	  <point x="443" y="193" type="line"/>
	  <point x="202" y="516" type="line"/>
	  <point x="443" y="836" type="line"/>
	  <point x="371" y="897" type="line"/>
	  <point x="92" y="579" type="line"/>
	  <point x="92" y="454" type="line"/>
	</contour>
	<contour>
	  <point x="695" y="135" type="line"/>
	  <point x="766" y="193" type="line"/>
	  <point x="524" y="516" type="line"/>
	  <point x="766" y="836" type="line"/>
	  <point x="695" y="897" type="line"/>
	  <point x="415" y="579" type="line"/>
	  <point x="415" y="454" type="line"/>
	</contour>
  </outline>
</glyph>
<glyph name="macron" format="1">
  <advance width="1109"/>
  <unicode hex="00AF"/>
  <outline>
	<contour>
	  <point x="305" y="1231" type="line"/>
	  <point x="806" y="1231" type="line"/>
	  <point x="806" y="1347" type="line"/>
	  <point x="305" y="1347" type="line"/>
	</contour>
  </outline>
</glyph>
<glyph name="acute" format="1">
  <advance width="1109"/>
  <unicode hex="00B4"/>
  <outline>
	<contour>
	  <point x="781" y="1462" type="line"/>
	  <point x="606" y="1462" type="line"/>
	  <point x="422" y="1174" type="line"/>
	  <point x="550" y="1174" type="line"/>
	</contour>
  </outline>
</glyph>
<glyph name="paragraph" format="1">
  <advance width="1144"/>
  <unicode hex="00B6"/>
  <outline>
	<contour>
	  <point x="778" y="-164" type="line"/>
	  <point x="948" y="-164" type="line"/>
	  <point x="948" y="1343" type="line"/>
	  <point x="778" y="1343" type="line"/>
	</contour>
	<contour>
	  <point x="600" y="464" type="curve"/>
	  <point x="639" y="464" type="line"/>
	  <point x="639" y="1343" type="line"/>
	  <point x="578" y="1343" type="line"/>
	  <point x="295" y="1343"/>
	  <point x="84" y="1229"/>
	  <point x="84" y="907" type="curve" smooth="yes"/>
	  <point x="84" y="599"/>
	  <point x="303" y="464"/>
	</contour>
  </outline>
</glyph>
<glyph name="periodcentered" format="1">
  <advance width="508"/>
  <unicode hex="00B7"/>
  <outline>
	<contour>
	  <point x="133" y="657" type="curve" smooth="yes"/>
	  <point x="133" y="584"/>
	  <point x="188" y="531"/>
	  <point x="255" y="531" type="curve" smooth="yes"/>
	  <point x="321" y="531"/>
	  <point x="375" y="584"/>
	  <point x="375" y="657" type="curve" smooth="yes"/>
	  <point x="375" y="735"/>
	  <point x="321" y="787"/>
	  <point x="255" y="787" type="curve" smooth="yes"/>
	  <point x="188" y="787"/>
	  <point x="133" y="735"/>
	</contour>
  </outline>
</glyph>
<glyph name="cedilla" format="1">
  <advance width="1109"/>
  <unicode hex="00B8"/>
  <outline>
	<contour>
	  <point x="447" y="-154" type="line"/>
	  <point x="530" y="-174"/>
	  <point x="579" y="-201"/>
	  <point x="579" y="-254" type="curve" smooth="yes"/>
	  <point x="579" y="-309"/>
	  <point x="503" y="-338"/>
	  <point x="395" y="-352" type="curve"/>
	  <point x="412" y="-436" type="line"/>
	  <point x="565" y="-422"/>
	  <point x="706" y="-367"/>
	  <point x="706" y="-248" type="curve" smooth="yes"/>
	  <point x="706" y="-164"/>
	  <point x="652" y="-125"/>
	  <point x="585" y="-102" type="curve"/>
	  <point x="639" y="6" type="line"/>
	  <point x="529" y="6" type="line"/>
	</contour>
  </outline>
</glyph>
<glyph name="guillemotright" format="1">
  <advance width="877"/>
  <unicode hex="00BB"/>
  <outline>
	<contour>
	  <point x="111" y="193" type="line"/>
	  <point x="181" y="135" type="line"/>
	  <point x="462" y="454" type="line"/>
	  <point x="462" y="579" type="line"/>
	  <point x="181" y="897" type="line"/>
	  <point x="111" y="836" type="line"/>
	  <point x="352" y="516" type="line"/>
	</contour>
	<contour>
	  <point x="433" y="193" type="line"/>
	  <point x="506" y="135" type="line"/>
	  <point x="785" y="454" type="line"/>
	  <point x="785" y="579" type="line"/>
	  <point x="506" y="897" type="line"/>
	  <point x="433" y="836" type="line"/>
	  <point x="675" y="516" type="line"/>
	</contour>
  </outline>
</glyph>
<glyph name="onequarter" format="1">
  <advance width="1598"/>
  <unicode hex="00BC"/>
  <outline>
	<contour>
	  <point x="433" y="545" type="line"/>
	  <point x="433" y="1343" type="line"/>
	  <point x="326" y="1343" type="line"/>
	  <point x="270" y="1303"/>
	  <point x="219" y="1278"/>
	  <point x="129" y="1262" type="curve"/>
	  <point x="129" y="1177" type="line"/>
	  <point x="303" y="1177" type="line"/>
	  <point x="303" y="545" type="line"/>
	</contour>
	<contour>
	  <point x="1110" y="1368" type="line"/>
	  <point x="369" y="-25" type="line"/>
	  <point x="482" y="-25" type="line"/>
	  <point x="1224" y="1368" type="line"/>
	</contour>
	<contour>
	  <point x="1068" y="307" type="line"/>
	  <point x="1195" y="508" type="line"/>
	  <point x="1298" y="674" type="line"/>
	  <point x="1307" y="674" type="line"/>
	  <point x="1296" y="452" type="line"/>
	  <point x="1296" y="307" type="line"/>
	</contour>
	<contour>
	  <point x="1532" y="307" type="line"/>
	  <point x="1413" y="307" type="line"/>
	  <point x="1413" y="799" type="line"/>
	  <point x="1268" y="799" type="line"/>
	  <point x="934" y="281" type="line"/>
	  <point x="934" y="214" type="line"/>
	  <point x="1296" y="214" type="line"/>
	  <point x="1296" y="0" type="line"/>
	  <point x="1413" y="0" type="line"/>
	  <point x="1413" y="214" type="line"/>
	  <point x="1532" y="214" type="line"/>
	</contour>
  </outline>
</glyph>
<glyph name="onehalf" format="1">
  <advance width="1653"/>
  <unicode hex="00BD"/>
  <outline>
	<contour>
	  <point x="303" y="545" type="line"/>
	  <point x="433" y="545" type="line"/>
	  <point x="433" y="1343" type="line"/>
	  <point x="326" y="1343" type="line"/>
	  <point x="270" y="1303"/>
	  <point x="219" y="1278"/>
	  <point x="129" y="1262" type="curve"/>
	  <point x="129" y="1177" type="line"/>
	  <point x="303" y="1177" type="line"/>
	</contour>
	<contour>
	  <point x="441" y="-25" type="line"/>
	  <point x="1183" y="1368" type="line"/>
	  <point x="1069" y="1368" type="line"/>
	  <point x="328" y="-25" type="line"/>
	</contour>
	<contour>
	  <point x="1009" y="0" type="line"/>
	  <point x="1558" y="0" type="line"/>
	  <point x="1558" y="112" type="line"/>
	  <point x="1218" y="112" type="line"/>
	  <point x="1389" y="287"/>
	  <point x="1517" y="412"/>
	  <point x="1517" y="565" type="curve" smooth="yes"/>
	  <point x="1517" y="733"/>
	  <point x="1410" y="823"/>
	  <point x="1250" y="823" type="curve" smooth="yes"/>
	  <point x="1142" y="823"/>
	  <point x="1046" y="760"/>
	  <point x="984" y="668" type="curve"/>
	  <point x="1062" y="597" type="line"/>
	  <point x="1107" y="663"/>
	  <point x="1166" y="714"/>
	  <point x="1234" y="714" type="curve" smooth="yes"/>
	  <point x="1328" y="714"/>
	  <point x="1389" y="650"/>
	  <point x="1389" y="545" type="curve" smooth="yes"/>
	  <point x="1389" y="424"/>
	  <point x="1257" y="299"/>
	  <point x="1009" y="75" type="curve"/>
	</contour>
  </outline>
</glyph>
<glyph name="threequarters" format="1">
  <advance width="1629"/>
  <unicode hex="00BE"/>
  <outline>
	<contour>
	  <point x="180" y="1168" type="line"/>
	  <point x="227" y="1226"/>
	  <point x="285" y="1265"/>
	  <point x="344" y="1265" type="curve" smooth="yes"/>
	  <point x="432" y="1265"/>
	  <point x="488" y="1215"/>
	  <point x="488" y="1138" type="curve" smooth="yes"/>
	  <point x="488" y="1055"/>
	  <point x="408" y="993"/>
	  <point x="270" y="993" type="curve"/>
	  <point x="270" y="909" type="line"/>
	  <point x="428" y="909"/>
	  <point x="519" y="860"/>
	  <point x="519" y="768" type="curve" smooth="yes"/>
	  <point x="519" y="677"/>
	  <point x="446" y="624"/>
	  <point x="358" y="624" type="curve" smooth="yes"/>
	  <point x="276" y="624"/>
	  <point x="205" y="669"/>
	  <point x="156" y="743" type="curve"/>
	  <point x="70" y="678" type="line"/>
	  <point x="131" y="588"/>
	  <point x="236" y="520"/>
	  <point x="367" y="520" type="curve" smooth="yes"/>
	  <point x="522" y="520"/>
	  <point x="649" y="612"/>
	  <point x="649" y="760" type="curve" smooth="yes"/>
	  <point x="649" y="866"/>
	  <point x="568" y="934"/>
	  <point x="478" y="958" type="curve"/>
	  <point x="560" y="995"/>
	  <point x="617" y="1059"/>
	  <point x="617" y="1153" type="curve" smooth="yes"/>
	  <point x="617" y="1288"/>
	  <point x="502" y="1368"/>
	  <point x="362" y="1368" type="curve" smooth="yes"/>
	  <point x="252" y="1368"/>
	  <point x="170" y="1317"/>
	  <point x="102" y="1237" type="curve"/>
	</contour>
	<contour>
	  <point x="1189" y="1368" type="line"/>
	  <point x="446" y="-25" type="line"/>
	  <point x="558" y="-25" type="line"/>
	  <point x="1300" y="1368" type="line"/>
	</contour>
	<contour>
	  <point x="1099" y="307" type="line"/>
	  <point x="1226" y="508" type="line"/>
	  <point x="1329" y="674" type="line"/>
	  <point x="1337" y="674" type="line"/>
	  <point x="1327" y="452" type="line"/>
	  <point x="1327" y="307" type="line"/>
	</contour>
	<contour>
	  <point x="1564" y="307" type="line"/>
	  <point x="1445" y="307" type="line"/>
	  <point x="1445" y="799" type="line"/>
	  <point x="1299" y="799" type="line"/>
	  <point x="963" y="281" type="line"/>
	  <point x="963" y="214" type="line"/>
	  <point x="1327" y="214" type="line"/>
	  <point x="1327" y="0" type="line"/>
	  <point x="1445" y="0" type="line"/>
	  <point x="1445" y="214" type="line"/>
	  <point x="1564" y="214" type="line"/>
	</contour>
  </outline>
</glyph>
<glyph name="questiondown" format="1">
  <advance width="868"/>
  <unicode hex="00BF"/>
  <outline>
	<contour>
	  <point x="542" y="591" type="curve"/>
	  <point x="393" y="591" type="line"/>
	  <point x="428" y="303"/>
	  <point x="98" y="195"/>
	  <point x="98" y="-75" type="curve" smooth="yes"/>
	  <point x="98" y="-276"/>
	  <point x="238" y="-401"/>
	  <point x="448" y="-401" type="curve" smooth="yes"/>
	  <point x="593" y="-401"/>
	  <point x="706" y="-328"/>
	  <point x="792" y="-232" type="curve"/>
	  <point x="694" y="-145" type="line"/>
	  <point x="631" y="-219"/>
	  <point x="550" y="-262"/>
	  <point x="460" y="-262" type="curve" smooth="yes"/>
	  <point x="326" y="-262"/>
	  <point x="260" y="-173"/>
	  <point x="260" y="-64" type="curve" smooth="yes"/>
	  <point x="260" y="154"/>
	  <point x="587" y="270"/>
	</contour>
	<contour>
	  <point x="585" y="894" type="curve" smooth="yes"/>
	  <point x="585" y="967"/>
	  <point x="529" y="1020"/>
	  <point x="464" y="1020" type="curve" smooth="yes"/>
	  <point x="397" y="1020"/>
	  <point x="342" y="967"/>
	  <point x="342" y="894" type="curve" smooth="yes"/>
	  <point x="342" y="816"/>
	  <point x="397" y="764"/>
	  <point x="464" y="764" type="curve" smooth="yes"/>
	  <point x="529" y="764"/>
	  <point x="585" y="816"/>
	</contour>
  </outline>
</glyph>
<glyph name="Acircumflex" format="1">
  <advance width="1101"/>
  <unicode hex="00C2"/>
  <outline>
	<contour>
	  <point x="545" y="1585" type="line"/>
	  <point x="553" y="1585" type="line"/>
	  <point x="690" y="1446" type="line"/>
	  <point x="826" y="1446" type="line"/>
	  <point x="630" y="1675" type="line"/>
	  <point x="468" y="1675" type="line"/>
	  <point x="271" y="1446" type="line"/>
	  <point x="407" y="1446" type="line"/>
	</contour>
	<contour>
	  <point x="345" y="547" type="line"/>
	  <point x="411" y="753" type="line"/>
	  <point x="458" y="902"/>
	  <point x="501" y="1050"/>
	  <point x="545" y="1205" type="curve"/>
	  <point x="553" y="1205" type="line"/>
	  <point x="596" y="1050"/>
	  <point x="639" y="902"/>
	  <point x="686" y="753" type="curve" smooth="yes"/>
	  <point x="751" y="547" type="line"/>
	</contour>
	<contour>
	  <point x="923" y="0" type="line"/>
	  <point x="1101" y="0" type="line"/>
	  <point x="645" y="1343" type="line"/>
	  <point x="456" y="1343" type="line"/>
	  <point x="0" y="0" type="line"/>
	  <point x="172" y="0" type="line"/>
	  <point x="302" y="411" type="line"/>
	  <point x="793" y="411" type="line"/>
	</contour>
  </outline>
</glyph>
<glyph name="Atilde" format="1">
  <advance width="1101"/>
  <unicode hex="00C3"/>
  <outline>
	<contour>
	  <point x="752" y="1676" type="line"/>
	  <point x="739" y="1609"/>
	  <point x="709" y="1570"/>
	  <point x="668" y="1570" type="curve" smooth="yes"/>
	  <point x="591" y="1570"/>
	  <point x="532" y="1676"/>
	  <point x="426" y="1676" type="curve" smooth="yes"/>
	  <point x="328" y="1676"/>
	  <point x="264" y="1582"/>
	  <point x="252" y="1456" type="curve"/>
	  <point x="345" y="1456" type="line"/>
	  <point x="355" y="1526"/>
	  <point x="386" y="1564"/>
	  <point x="428" y="1564" type="curve" smooth="yes"/>
	  <point x="504" y="1564"/>
	  <point x="563" y="1456"/>
	  <point x="671" y="1456" type="curve" smooth="yes"/>
	  <point x="769" y="1456"/>
	  <point x="833" y="1552"/>
	  <point x="843" y="1676" type="curve"/>
	</contour>
	<contour>
	  <point x="345" y="547" type="line"/>
	  <point x="411" y="753" type="line"/>
	  <point x="458" y="902"/>
	  <point x="501" y="1050"/>
	  <point x="545" y="1205" type="curve"/>
	  <point x="553" y="1205" type="line"/>
	  <point x="596" y="1050"/>
	  <point x="639" y="902"/>
	  <point x="686" y="753" type="curve" smooth="yes"/>
	  <point x="751" y="547" type="line"/>
	</contour>
	<contour>
	  <point x="923" y="0" type="line"/>
	  <point x="1101" y="0" type="line"/>
	  <point x="645" y="1343" type="line"/>
	  <point x="456" y="1343" type="line"/>
	  <point x="0" y="0" type="line"/>
	  <point x="172" y="0" type="line"/>
	  <point x="302" y="411" type="line"/>
	  <point x="793" y="411" type="line"/>
	</contour>
  </outline>
</glyph>
<glyph name="Adieresis" format="1">
  <advance width="1101"/>
  <unicode hex="00C4"/>
  <outline>
	<contour>
	  <point x="724" y="1465" type="curve" smooth="yes"/>
	  <point x="781" y="1465"/>
	  <point x="824" y="1507"/>
	  <point x="824" y="1565" type="curve" smooth="yes"/>
	  <point x="824" y="1624"/>
	  <point x="781" y="1664"/>
	  <point x="724" y="1664" type="curve" smooth="yes"/>
	  <point x="668" y="1664"/>
	  <point x="625" y="1624"/>
	  <point x="625" y="1565" type="curve" smooth="yes"/>
	  <point x="625" y="1507"/>
	  <point x="668" y="1465"/>
	</contour>
	<contour>
	  <point x="371" y="1465" type="curve" smooth="yes"/>
	  <point x="430" y="1465"/>
	  <point x="470" y="1507"/>
	  <point x="470" y="1565" type="curve" smooth="yes"/>
	  <point x="470" y="1624"/>
	  <point x="430" y="1664"/>
	  <point x="371" y="1664" type="curve" smooth="yes"/>
	  <point x="313" y="1664"/>
	  <point x="273" y="1624"/>
	  <point x="273" y="1565" type="curve" smooth="yes"/>
	  <point x="273" y="1507"/>
	  <point x="313" y="1465"/>
	</contour>
	<contour>
	  <point x="345" y="547" type="line"/>
	  <point x="411" y="753" type="line"/>
	  <point x="458" y="902"/>
	  <point x="501" y="1050"/>
	  <point x="545" y="1205" type="curve"/>
	  <point x="553" y="1205" type="line"/>
	  <point x="596" y="1050"/>
	  <point x="639" y="902"/>
	  <point x="686" y="753" type="curve" smooth="yes"/>
	  <point x="751" y="547" type="line"/>
	</contour>
	<contour>
	  <point x="923" y="0" type="line"/>
	  <point x="1101" y="0" type="line"/>
	  <point x="645" y="1343" type="line"/>
	  <point x="456" y="1343" type="line"/>
	  <point x="0" y="0" type="line"/>
	  <point x="172" y="0" type="line"/>
	  <point x="302" y="411" type="line"/>
	  <point x="793" y="411" type="line"/>
	</contour>
  </outline>
</glyph>
<glyph name="Aring" format="1">
  <advance width="1101"/>
  <unicode hex="00C5"/>
  <outline>
	<contour>
	  <point x="549" y="1716" type="curve" smooth="yes"/>
	  <point x="600" y="1716"/>
	  <point x="645" y="1675"/>
	  <point x="645" y="1612" type="curve" smooth="yes"/>
	  <point x="645" y="1544"/>
	  <point x="600" y="1505"/>
	  <point x="549" y="1505" type="curve" smooth="yes"/>
	  <point x="493" y="1505"/>
	  <point x="450" y="1544"/>
	  <point x="450" y="1612" type="curve" smooth="yes"/>
	  <point x="450" y="1675"/>
	  <point x="493" y="1716"/>
	</contour>
	<contour>
	  <point x="549" y="1432" type="curve" smooth="yes"/>
	  <point x="656" y="1432"/>
	  <point x="738" y="1501"/>
	  <point x="738" y="1612" type="curve" smooth="yes"/>
	  <point x="738" y="1720"/>
	  <point x="656" y="1791"/>
	  <point x="549" y="1791" type="curve" smooth="yes"/>
	  <point x="436" y="1791"/>
	  <point x="356" y="1720"/>
	  <point x="356" y="1612" type="curve" smooth="yes"/>
	  <point x="356" y="1501"/>
	  <point x="436" y="1432"/>
	</contour>
	<contour>
	  <point x="345" y="547" type="line"/>
	  <point x="411" y="753" type="line"/>
	  <point x="458" y="902"/>
	  <point x="501" y="1050"/>
	  <point x="545" y="1205" type="curve"/>
	  <point x="553" y="1205" type="line"/>
	  <point x="596" y="1050"/>
	  <point x="639" y="902"/>
	  <point x="686" y="753" type="curve" smooth="yes"/>
	  <point x="751" y="547" type="line"/>
	</contour>
	<contour>
	  <point x="923" y="0" type="line"/>
	  <point x="1101" y="0" type="line"/>
	  <point x="645" y="1343" type="line"/>
	  <point x="456" y="1343" type="line"/>
	  <point x="0" y="0" type="line"/>
	  <point x="172" y="0" type="line"/>
	  <point x="302" y="411" type="line"/>
	  <point x="793" y="411" type="line"/>
	</contour>
  </outline>
</glyph>
<glyph name="AE" format="1">
  <advance width="1672"/>
  <unicode hex="00C6"/>
  <outline>
	<contour>
	  <point x="462" y="528" type="line"/>
	  <point x="587" y="771" type="line"/>
	  <point x="659" y="916"/>
	  <point x="737" y="1064"/>
	  <point x="809" y="1210" type="curve"/>
	  <point x="817" y="1210" type="line"/>
	  <point x="817" y="528" type="line"/>
	</contour>
	<contour>
	  <point x="985" y="143" type="line"/>
	  <point x="985" y="634" type="line"/>
	  <point x="1463" y="634" type="line"/>
	  <point x="1463" y="777" type="line"/>
	  <point x="985" y="777" type="line"/>
	  <point x="985" y="1202" type="line"/>
	  <point x="1558" y="1202" type="line"/>
	  <point x="1558" y="1343" type="line"/>
	  <point x="719" y="1343" type="line"/>
	  <point x="13" y="0" type="line"/>
	  <point x="187" y="0" type="line"/>
	  <point x="391" y="392" type="line"/>
	  <point x="817" y="392" type="line"/>
	  <point x="817" y="0" type="line"/>
	  <point x="1578" y="0" type="line"/>
	  <point x="1578" y="143" type="line"/>
	</contour>
	<contour>
	  <point x="1150" y="1421" type="move" name="mark0"/>
	</contour>
  </outline>
</glyph>
<glyph name="Eacute" format="1">
  <advance width="1068"/>
  <unicode hex="00C9"/>
  <outline>
	<contour>
	  <point x="178" y="0" type="line"/>
	  <point x="972" y="0" type="line"/>
	  <point x="972" y="143" type="line"/>
	  <point x="348" y="143" type="line"/>
	  <point x="348" y="634" type="line"/>
	  <point x="857" y="634" type="line"/>
	  <point x="857" y="777" type="line"/>
	  <point x="348" y="777" type="line"/>
	  <point x="348" y="1202" type="line"/>
	  <point x="951" y="1202" type="line"/>
	  <point x="951" y="1343" type="line"/>
	  <point x="178" y="1343" type="line"/>
	</contour>
	<contour>
	  <point x="845" y="1675" type="line"/>
	  <point x="654" y="1675" type="line"/>
	  <point x="474" y="1446" type="line"/>
	  <point x="613" y="1446" type="line"/>
	</contour>
  </outline>
</glyph>
<glyph name="Ecircumflex" format="1">
  <advance width="1068"/>
  <unicode hex="00CA"/>
  <outline>
	<contour>
	  <point x="178" y="0" type="line"/>
	  <point x="972" y="0" type="line"/>
	  <point x="972" y="143" type="line"/>
	  <point x="348" y="143" type="line"/>
	  <point x="348" y="634" type="line"/>
	  <point x="857" y="634" type="line"/>
	  <point x="857" y="777" type="line"/>
	  <point x="348" y="777" type="line"/>
	  <point x="348" y="1202" type="line"/>
	  <point x="951" y="1202" type="line"/>
	  <point x="951" y="1343" type="line"/>
	  <point x="178" y="1343" type="line"/>
	</contour>
	<contour>
	  <point x="435" y="1446" type="line"/>
	  <point x="573" y="1585" type="line"/>
	  <point x="582" y="1585" type="line"/>
	  <point x="719" y="1446" type="line"/>
	  <point x="855" y="1446" type="line"/>
	  <point x="658" y="1675" type="line"/>
	  <point x="497" y="1675" type="line"/>
	  <point x="300" y="1446" type="line"/>
	</contour>
  </outline>
</glyph>
<glyph name="Edieresis" format="1">
  <advance width="1068"/>
  <unicode hex="00CB"/>
  <outline>
	<contour>
	  <point x="178" y="0" type="line"/>
	  <point x="972" y="0" type="line"/>
	  <point x="972" y="143" type="line"/>
	  <point x="348" y="143" type="line"/>
	  <point x="348" y="634" type="line"/>
	  <point x="857" y="634" type="line"/>
	  <point x="857" y="777" type="line"/>
	  <point x="348" y="777" type="line"/>
	  <point x="348" y="1202" type="line"/>
	  <point x="951" y="1202" type="line"/>
	  <point x="951" y="1343" type="line"/>
	  <point x="178" y="1343" type="line"/>
	</contour>
	<contour>
	  <point x="399" y="1465" type="curve" smooth="yes"/>
	  <point x="459" y="1465"/>
	  <point x="500" y="1507"/>
	  <point x="500" y="1565" type="curve" smooth="yes"/>
	  <point x="500" y="1624"/>
	  <point x="459" y="1664"/>
	  <point x="399" y="1664" type="curve" smooth="yes"/>
	  <point x="343" y="1664"/>
	  <point x="302" y="1624"/>
	  <point x="302" y="1565" type="curve" smooth="yes"/>
	  <point x="302" y="1507"/>
	  <point x="343" y="1465"/>
	</contour>
	<contour>
	  <point x="753" y="1465" type="curve" smooth="yes"/>
	  <point x="810" y="1465"/>
	  <point x="853" y="1507"/>
	  <point x="853" y="1565" type="curve" smooth="yes"/>
	  <point x="853" y="1624"/>
	  <point x="810" y="1664"/>
	  <point x="753" y="1664" type="curve" smooth="yes"/>
	  <point x="696" y="1664"/>
	  <point x="653" y="1624"/>
	  <point x="653" y="1565" type="curve" smooth="yes"/>
	  <point x="653" y="1507"/>
	  <point x="696" y="1465"/>
	</contour>
  </outline>
</glyph>
<glyph name="Igrave" format="1">
  <advance width="526"/>
  <unicode hex="00CC"/>
  <outline>
	<contour>
	  <point x="178" y="0" type="line"/>
	  <point x="348" y="0" type="line"/>
	  <point x="348" y="1343" type="line"/>
	  <point x="178" y="1343" type="line"/>
	</contour>
	<contour>
	  <point x="227" y="1446" type="line"/>
	  <point x="368" y="1446" type="line"/>
	  <point x="186" y="1675" type="line"/>
	  <point x="-4" y="1675" type="line"/>
	</contour>
  </outline>
</glyph>
<glyph name="Iacute" format="1">
  <advance width="526"/>
  <unicode hex="00CD"/>
  <outline>
	<contour>
	  <point x="178" y="0" type="line"/>
	  <point x="348" y="0" type="line"/>
	  <point x="348" y="1343" type="line"/>
	  <point x="178" y="1343" type="line"/>
	</contour>
	<contour>
	  <point x="530" y="1675" type="line"/>
	  <point x="340" y="1675" type="line"/>
	  <point x="160" y="1446" type="line"/>
	  <point x="300" y="1446" type="line"/>
	</contour>
  </outline>
</glyph>
<glyph name="Icircumflex" format="1">
  <advance width="526"/>
  <unicode hex="00CE"/>
  <outline>
	<contour>
	  <point x="178" y="0" type="line"/>
	  <point x="348" y="0" type="line"/>
	  <point x="348" y="1343" type="line"/>
	  <point x="178" y="1343" type="line"/>
	</contour>
	<contour>
	  <point x="122" y="1446" type="line"/>
	  <point x="259" y="1585" type="line"/>
	  <point x="267" y="1585" type="line"/>
	  <point x="406" y="1446" type="line"/>
	  <point x="541" y="1446" type="line"/>
	  <point x="344" y="1675" type="line"/>
	  <point x="182" y="1675" type="line"/>
	  <point x="-14" y="1446" type="line"/>
	</contour>
  </outline>
</glyph>
<glyph name="Idieresis" format="1">
  <advance width="526"/>
  <unicode hex="00CF"/>
  <outline>
	<contour>
	  <point x="178" y="0" type="line"/>
	  <point x="348" y="0" type="line"/>
	  <point x="348" y="1343" type="line"/>
	  <point x="178" y="1343" type="line"/>
	</contour>
	<contour>
	  <point x="88" y="1465" type="curve" smooth="yes"/>
	  <point x="144" y="1465"/>
	  <point x="187" y="1507"/>
	  <point x="187" y="1565" type="curve" smooth="yes"/>
	  <point x="187" y="1624"/>
	  <point x="144" y="1664"/>
	  <point x="88" y="1664" type="curve" smooth="yes"/>
	  <point x="29" y="1664"/>
	  <point x="-12" y="1624"/>
	  <point x="-12" y="1565" type="curve" smooth="yes"/>
	  <point x="-12" y="1507"/>
	  <point x="29" y="1465"/>
	</contour>
	<contour>
	  <point x="439" y="1465" type="curve" smooth="yes"/>
	  <point x="499" y="1465"/>
	  <point x="539" y="1507"/>
	  <point x="539" y="1565" type="curve" smooth="yes"/>
	  <point x="539" y="1624"/>
	  <point x="499" y="1664"/>
	  <point x="439" y="1664" type="curve" smooth="yes"/>
	  <point x="382" y="1664"/>
	  <point x="340" y="1624"/>
	  <point x="340" y="1565" type="curve" smooth="yes"/>
	  <point x="340" y="1507"/>
	  <point x="382" y="1465"/>
	</contour>
  </outline>
</glyph>
<glyph name="Ntilde" format="1">
  <advance width="1314"/>
  <unicode hex="00D1"/>
  <outline>
	<contour>
	  <point x="178" y="0" type="line"/>
	  <point x="338" y="0" type="line"/>
	  <point x="338" y="705" type="line"/>
	  <point x="338" y="847"/>
	  <point x="327" y="990"/>
	  <point x="318" y="1125" type="curve"/>
	  <point x="327" y="1125" type="line"/>
	  <point x="472" y="849" type="line"/>
	  <point x="959" y="0" type="line"/>
	  <point x="1134" y="0" type="line"/>
	  <point x="1134" y="1343" type="line"/>
	  <point x="974" y="1343" type="line"/>
	  <point x="974" y="646" type="line"/>
	  <point x="974" y="505"/>
	  <point x="988" y="354"/>
	  <point x="996" y="219" type="curve"/>
	  <point x="988" y="219" type="line"/>
	  <point x="842" y="497" type="line"/>
	  <point x="352" y="1343" type="line"/>
	  <point x="178" y="1343" type="line"/>
	</contour>
	<contour>
	  <point x="786" y="1456" type="curve" smooth="yes"/>
	  <point x="885" y="1456"/>
	  <point x="947" y="1552"/>
	  <point x="960" y="1676" type="curve"/>
	  <point x="866" y="1676" type="line"/>
	  <point x="856" y="1609"/>
	  <point x="823" y="1570"/>
	  <point x="784" y="1570" type="curve" smooth="yes"/>
	  <point x="709" y="1570"/>
	  <point x="649" y="1676"/>
	  <point x="541" y="1676" type="curve" smooth="yes"/>
	  <point x="442" y="1676"/>
	  <point x="379" y="1582"/>
	  <point x="368" y="1456" type="curve"/>
	  <point x="461" y="1456" type="line"/>
	  <point x="471" y="1526"/>
	  <point x="504" y="1564"/>
	  <point x="543" y="1564" type="curve" smooth="yes"/>
	  <point x="618" y="1564"/>
	  <point x="678" y="1456"/>
	</contour>
  </outline>
</glyph>
<glyph name="Otilde" format="1">
  <advance width="1349"/>
  <unicode hex="00D5"/>
  <outline>
	<contour>
	  <point x="676" y="-25" type="curve" smooth="yes"/>
	  <point x="1011" y="-25"/>
	  <point x="1248" y="246"/>
	  <point x="1248" y="678" type="curve" smooth="yes"/>
	  <point x="1248" y="1106"/>
	  <point x="1011" y="1368"/>
	  <point x="676" y="1368" type="curve" smooth="yes"/>
	  <point x="338" y="1368"/>
	  <point x="100" y="1108"/>
	  <point x="100" y="678" type="curve" smooth="yes"/>
	  <point x="100" y="246"/>
	  <point x="338" y="-25"/>
	</contour>
	<contour>
	  <point x="676" y="123" type="curve" smooth="yes"/>
	  <point x="433" y="123"/>
	  <point x="274" y="341"/>
	  <point x="274" y="678" type="curve" smooth="yes"/>
	  <point x="274" y="1013"/>
	  <point x="433" y="1221"/>
	  <point x="676" y="1221" type="curve" smooth="yes"/>
	  <point x="915" y="1221"/>
	  <point x="1074" y="1013"/>
	  <point x="1074" y="678" type="curve" smooth="yes"/>
	  <point x="1074" y="341"/>
	  <point x="915" y="123"/>
	</contour>
	<contour>
	  <point x="799" y="1456" type="curve" smooth="yes"/>
	  <point x="894" y="1456"/>
	  <point x="957" y="1552"/>
	  <point x="970" y="1676" type="curve"/>
	  <point x="879" y="1676" type="line"/>
	  <point x="866" y="1609"/>
	  <point x="836" y="1570"/>
	  <point x="795" y="1570" type="curve" smooth="yes"/>
	  <point x="719" y="1570"/>
	  <point x="659" y="1676"/>
	  <point x="551" y="1676" type="curve" smooth="yes"/>
	  <point x="455" y="1676"/>
	  <point x="391" y="1582"/>
	  <point x="379" y="1456" type="curve"/>
	  <point x="472" y="1456" type="line"/>
	  <point x="482" y="1526"/>
	  <point x="514" y="1564"/>
	  <point x="555" y="1564" type="curve" smooth="yes"/>
	  <point x="631" y="1564"/>
	  <point x="690" y="1456"/>
	</contour>
  </outline>
</glyph>
<glyph name="Odieresis" format="1">
  <advance width="1349"/>
  <unicode hex="00D6"/>
  <outline>
	<contour>
	  <point x="676" y="-25" type="curve" smooth="yes"/>
	  <point x="1011" y="-25"/>
	  <point x="1248" y="246"/>
	  <point x="1248" y="678" type="curve" smooth="yes"/>
	  <point x="1248" y="1106"/>
	  <point x="1011" y="1368"/>
	  <point x="676" y="1368" type="curve" smooth="yes"/>
	  <point x="338" y="1368"/>
	  <point x="100" y="1108"/>
	  <point x="100" y="678" type="curve" smooth="yes"/>
	  <point x="100" y="246"/>
	  <point x="338" y="-25"/>
	</contour>
	<contour>
	  <point x="676" y="123" type="curve" smooth="yes"/>
	  <point x="433" y="123"/>
	  <point x="274" y="341"/>
	  <point x="274" y="678" type="curve" smooth="yes"/>
	  <point x="274" y="1013"/>
	  <point x="433" y="1221"/>
	  <point x="676" y="1221" type="curve" smooth="yes"/>
	  <point x="915" y="1221"/>
	  <point x="1074" y="1013"/>
	  <point x="1074" y="678" type="curve" smooth="yes"/>
	  <point x="1074" y="341"/>
	  <point x="915" y="123"/>
	</contour>
	<contour>
	  <point x="498" y="1465" type="curve" smooth="yes"/>
	  <point x="557" y="1465"/>
	  <point x="597" y="1507"/>
	  <point x="597" y="1565" type="curve" smooth="yes"/>
	  <point x="597" y="1624"/>
	  <point x="557" y="1664"/>
	  <point x="498" y="1664" type="curve" smooth="yes"/>
	  <point x="440" y="1664"/>
	  <point x="398" y="1624"/>
	  <point x="398" y="1565" type="curve" smooth="yes"/>
	  <point x="398" y="1507"/>
	  <point x="440" y="1465"/>
	</contour>
	<contour>
	  <point x="851" y="1465" type="curve" smooth="yes"/>
	  <point x="908" y="1465"/>
	  <point x="951" y="1507"/>
	  <point x="951" y="1565" type="curve" smooth="yes"/>
	  <point x="951" y="1624"/>
	  <point x="908" y="1664"/>
	  <point x="851" y="1664" type="curve" smooth="yes"/>
	  <point x="795" y="1664"/>
	  <point x="752" y="1624"/>
	  <point x="752" y="1565" type="curve" smooth="yes"/>
	  <point x="752" y="1507"/>
	  <point x="795" y="1465"/>
	</contour>
  </outline>
</glyph>
<glyph name="Uacute" format="1">
  <advance width="1310"/>
  <unicode hex="00DA"/>
  <outline>
	<contour>
	  <point x="172" y="554" type="line"/>
	  <point x="172" y="122"/>
	  <point x="382" y="-25"/>
	  <point x="655" y="-25" type="curve" smooth="yes"/>
	  <point x="929" y="-25"/>
	  <point x="1138" y="122"/>
	  <point x="1138" y="554" type="curve" smooth="yes"/>
	  <point x="1138" y="1343" type="line"/>
	  <point x="976" y="1343" type="line"/>
	  <point x="976" y="550" type="line"/>
	  <point x="976" y="226"/>
	  <point x="834" y="123"/>
	  <point x="655" y="123" type="curve" smooth="yes"/>
	  <point x="480" y="123"/>
	  <point x="342" y="226"/>
	  <point x="342" y="550" type="curve" smooth="yes"/>
	  <point x="342" y="1343" type="line"/>
	  <point x="172" y="1343" type="line"/>
	</contour>
	<contour>
	  <point x="923" y="1675" type="line"/>
	  <point x="732" y="1675" type="line"/>
	  <point x="551" y="1446" type="line"/>
	  <point x="691" y="1446" type="line"/>
	</contour>
  </outline>
</glyph>
<glyph name="Udieresis" format="1">
  <advance width="1310"/>
  <unicode hex="00DC"/>
  <outline>
	<contour>
	  <point x="172" y="554" type="line"/>
	  <point x="172" y="122"/>
	  <point x="382" y="-25"/>
	  <point x="655" y="-25" type="curve" smooth="yes"/>
	  <point x="929" y="-25"/>
	  <point x="1138" y="122"/>
	  <point x="1138" y="554" type="curve" smooth="yes"/>
	  <point x="1138" y="1343" type="line"/>
	  <point x="976" y="1343" type="line"/>
	  <point x="976" y="550" type="line"/>
	  <point x="976" y="226"/>
	  <point x="834" y="123"/>
	  <point x="655" y="123" type="curve" smooth="yes"/>
	  <point x="480" y="123"/>
	  <point x="342" y="226"/>
	  <point x="342" y="550" type="curve" smooth="yes"/>
	  <point x="342" y="1343" type="line"/>
	  <point x="172" y="1343" type="line"/>
	</contour>
	<contour>
	  <point x="479" y="1465" type="curve" smooth="yes"/>
	  <point x="537" y="1465"/>
	  <point x="579" y="1507"/>
	  <point x="579" y="1565" type="curve" smooth="yes"/>
	  <point x="579" y="1624"/>
	  <point x="537" y="1664"/>
	  <point x="479" y="1664" type="curve" smooth="yes"/>
	  <point x="422" y="1664"/>
	  <point x="380" y="1624"/>
	  <point x="380" y="1565" type="curve" smooth="yes"/>
	  <point x="380" y="1507"/>
	  <point x="422" y="1465"/>
	</contour>
	<contour>
	  <point x="833" y="1465" type="curve" smooth="yes"/>
	  <point x="890" y="1465"/>
	  <point x="931" y="1507"/>
	  <point x="931" y="1565" type="curve" smooth="yes"/>
	  <point x="931" y="1624"/>
	  <point x="890" y="1664"/>
	  <point x="833" y="1664" type="curve" smooth="yes"/>
	  <point x="774" y="1664"/>
	  <point x="733" y="1624"/>
	  <point x="733" y="1565" type="curve" smooth="yes"/>
	  <point x="733" y="1507"/>
	  <point x="774" y="1465"/>
	</contour>
  </outline>
</glyph>
<glyph name="Thorn" format="1">
  <advance width="1192"/>
  <unicode hex="00DE"/>
  <outline>
	<contour>
	  <point x="182" y="0" type="line"/>
	  <point x="350" y="0" type="line"/>
	  <point x="350" y="308" type="line"/>
	  <point x="593" y="308" type="line"/>
	  <point x="888" y="308"/>
	  <point x="1089" y="439"/>
	  <point x="1089" y="723" type="curve" smooth="yes"/>
	  <point x="1089" y="1016"/>
	  <point x="890" y="1118"/>
	  <point x="593" y="1118" type="curve" smooth="yes"/>
	  <point x="350" y="1118" type="line"/>
	  <point x="350" y="1343" type="line"/>
	  <point x="182" y="1343" type="line"/>
	</contour>
	<contour>
	  <point x="350" y="445" type="line"/>
	  <point x="350" y="980" type="line"/>
	  <point x="572" y="980" type="line"/>
	  <point x="805" y="980"/>
	  <point x="921" y="916"/>
	  <point x="921" y="723" type="curve" smooth="yes"/>
	  <point x="921" y="530"/>
	  <point x="807" y="445"/>
	  <point x="572" y="445" type="curve" smooth="yes"/>
	</contour>
  </outline>
</glyph>
<glyph name="edieresis" format="1">
  <advance width="1015"/>
  <unicode hex="00EB"/>
  <outline>
	<contour>
	  <point x="94" y="496" type="curve" smooth="yes"/>
	  <point x="94" y="170"/>
	  <point x="305" y="-25"/>
	  <point x="571" y="-25" type="curve" smooth="yes"/>
	  <point x="707" y="-25"/>
	  <point x="812" y="23"/>
	  <point x="898" y="78" type="curve"/>
	  <point x="840" y="187" type="line"/>
	  <point x="766" y="140"/>
	  <point x="686" y="110"/>
	  <point x="591" y="110" type="curve" smooth="yes"/>
	  <point x="400" y="110"/>
	  <point x="270" y="246"/>
	  <point x="258" y="461" type="curve"/>
	  <point x="931" y="461" type="line"/>
	  <point x="935" y="485"/>
	  <point x="937" y="518"/>
	  <point x="937" y="553" type="curve" smooth="yes"/>
	  <point x="937" y="838"/>
	  <point x="794" y="1020"/>
	  <point x="541" y="1020" type="curve" smooth="yes"/>
	  <point x="313" y="1020"/>
	  <point x="94" y="821"/>
	</contour>
	<contour>
	  <point x="256" y="570" type="line"/>
	  <point x="277" y="772"/>
	  <point x="405" y="888"/>
	  <point x="545" y="888" type="curve" smooth="yes"/>
	  <point x="700" y="888"/>
	  <point x="792" y="775"/>
	  <point x="792" y="570" type="curve"/>
	</contour>
	<contour>
	  <point x="365" y="1205" type="curve" smooth="yes"/>
	  <point x="422" y="1205"/>
	  <point x="465" y="1247"/>
	  <point x="465" y="1305" type="curve" smooth="yes"/>
	  <point x="465" y="1361"/>
	  <point x="422" y="1404"/>
	  <point x="365" y="1404" type="curve" smooth="yes"/>
	  <point x="308" y="1404"/>
	  <point x="265" y="1361"/>
	  <point x="265" y="1305" type="curve" smooth="yes"/>
	  <point x="265" y="1247"/>
	  <point x="308" y="1205"/>
	</contour>
	<contour>
	  <point x="718" y="1205" type="curve" smooth="yes"/>
	  <point x="775" y="1205"/>
	  <point x="818" y="1247"/>
	  <point x="818" y="1305" type="curve" smooth="yes"/>
	  <point x="818" y="1361"/>
	  <point x="775" y="1404"/>
	  <point x="718" y="1404" type="curve" smooth="yes"/>
	  <point x="659" y="1404"/>
	  <point x="618" y="1361"/>
	  <point x="618" y="1305" type="curve" smooth="yes"/>
	  <point x="618" y="1247"/>
	  <point x="659" y="1205"/>
	</contour>
  </outline>
</glyph>
<glyph name="igrave" format="1">
  <advance width="503"/>
  <unicode hex="00EC"/>
  <outline>
	<contour>
	  <point x="169" y="0" type="line"/>
	  <point x="335" y="0" type="line"/>
	  <point x="335" y="995" type="line"/>
	  <point x="169" y="995" type="line"/>
	</contour>
	<contour>
	  <point x="256" y="1174" type="line"/>
	  <point x="384" y="1174" type="line"/>
	  <point x="200" y="1462" type="line"/>
	  <point x="26" y="1462" type="line"/>
	</contour>
  </outline>
</glyph>
<glyph name="iacute" format="1">
  <advance width="503"/>
  <unicode hex="00ED"/>
  <outline>
	<contour>
	  <point x="169" y="0" type="line"/>
	  <point x="335" y="0" type="line"/>
	  <point x="335" y="995" type="line"/>
	  <point x="169" y="995" type="line"/>
	</contour>
	<contour>
	  <point x="477" y="1462" type="line"/>
	  <point x="303" y="1462" type="line"/>
	  <point x="119" y="1174" type="line"/>
	  <point x="247" y="1174" type="line"/>
	</contour>
  </outline>
</glyph>
<glyph name="icircumflex" format="1">
  <advance width="503"/>
  <unicode hex="00EE"/>
  <outline>
	<contour>
	  <point x="169" y="0" type="line"/>
	  <point x="335" y="0" type="line"/>
	  <point x="335" y="995" type="line"/>
	  <point x="169" y="995" type="line"/>
	</contour>
	<contour>
	  <point x="-10" y="1174" type="line"/>
	  <point x="110" y="1174" type="line"/>
	  <point x="248" y="1360" type="line"/>
	  <point x="256" y="1360" type="line"/>
	  <point x="393" y="1174" type="line"/>
	  <point x="515" y="1174" type="line"/>
	  <point x="321" y="1462" type="line"/>
	  <point x="182" y="1462" type="line"/>
	</contour>
  </outline>
</glyph>
<glyph name="idieresis" format="1">
  <advance width="503"/>
  <unicode hex="00EF"/>
  <outline>
	<contour>
	  <point x="169" y="0" type="line"/>
	  <point x="335" y="0" type="line"/>
	  <point x="335" y="995" type="line"/>
	  <point x="169" y="995" type="line"/>
	</contour>
	<contour>
	  <point x="76" y="1205" type="curve" smooth="yes"/>
	  <point x="133" y="1205"/>
	  <point x="175" y="1247"/>
	  <point x="175" y="1305" type="curve" smooth="yes"/>
	  <point x="175" y="1361"/>
	  <point x="133" y="1404"/>
	  <point x="76" y="1404" type="curve" smooth="yes"/>
	  <point x="18" y="1404"/>
	  <point x="-24" y="1361"/>
	  <point x="-24" y="1305" type="curve" smooth="yes"/>
	  <point x="-24" y="1247"/>
	  <point x="18" y="1205"/>
	</contour>
	<contour>
	  <point x="427" y="1205" type="curve" smooth="yes"/>
	  <point x="486" y="1205"/>
	  <point x="527" y="1247"/>
	  <point x="527" y="1305" type="curve" smooth="yes"/>
	  <point x="527" y="1361"/>
	  <point x="486" y="1404"/>
	  <point x="427" y="1404" type="curve" smooth="yes"/>
	  <point x="371" y="1404"/>
	  <point x="330" y="1361"/>
	  <point x="330" y="1305" type="curve" smooth="yes"/>
	  <point x="330" y="1247"/>
	  <point x="371" y="1205"/>
	</contour>
  </outline>
</glyph>
<glyph name="ntilde" format="1">
  <advance width="1119"/>
  <unicode hex="00F1"/>
  <outline>
	<contour>
	  <point x="169" y="0" type="line"/>
	  <point x="335" y="0" type="line"/>
	  <point x="335" y="722" type="line"/>
	  <point x="435" y="822"/>
	  <point x="505" y="875"/>
	  <point x="608" y="875" type="curve" smooth="yes"/>
	  <point x="740" y="875"/>
	  <point x="798" y="796"/>
	  <point x="798" y="608" type="curve" smooth="yes"/>
	  <point x="798" y="0" type="line"/>
	  <point x="964" y="0" type="line"/>
	  <point x="964" y="631" type="line"/>
	  <point x="964" y="885"/>
	  <point x="869" y="1020"/>
	  <point x="661" y="1020" type="curve" smooth="yes"/>
	  <point x="523" y="1020"/>
	  <point x="421" y="946"/>
	  <point x="327" y="851" type="curve"/>
	  <point x="321" y="851" type="line"/>
	  <point x="306" y="995" type="line"/>
	  <point x="169" y="995" type="line"/>
	</contour>
	<contour>
	  <point x="313" y="1186" type="curve"/>
	  <point x="407" y="1186" type="line"/>
	  <point x="419" y="1255"/>
	  <point x="441" y="1290"/>
	  <point x="483" y="1290" type="curve" smooth="yes"/>
	  <point x="553" y="1290"/>
	  <point x="611" y="1186"/>
	  <point x="716" y="1186" type="curve" smooth="yes"/>
	  <point x="816" y="1186"/>
	  <point x="871" y="1280"/>
	  <point x="882" y="1402" type="curve"/>
	  <point x="786" y="1402" type="line"/>
	  <point x="776" y="1332"/>
	  <point x="754" y="1297"/>
	  <point x="713" y="1297" type="curve" smooth="yes"/>
	  <point x="644" y="1297"/>
	  <point x="582" y="1402"/>
	  <point x="479" y="1402" type="curve" smooth="yes"/>
	  <point x="379" y="1402"/>
	  <point x="324" y="1308"/>
	</contour>
  </outline>
</glyph>
<glyph name="otilde" format="1">
  <advance width="1109"/>
  <unicode hex="00F5"/>
  <outline>
	<contour>
	  <point x="94" y="496" type="curve" smooth="yes"/>
	  <point x="94" y="166"/>
	  <point x="311" y="-25"/>
	  <point x="555" y="-25" type="curve" smooth="yes"/>
	  <point x="799" y="-25"/>
	  <point x="1015" y="166"/>
	  <point x="1015" y="496" type="curve" smooth="yes"/>
	  <point x="1015" y="829"/>
	  <point x="799" y="1020"/>
	  <point x="555" y="1020" type="curve" smooth="yes"/>
	  <point x="311" y="1020"/>
	  <point x="94" y="829"/>
	</contour>
	<contour>
	  <point x="266" y="496" type="curve" smooth="yes"/>
	  <point x="266" y="726"/>
	  <point x="384" y="882"/>
	  <point x="555" y="882" type="curve" smooth="yes"/>
	  <point x="727" y="882"/>
	  <point x="843" y="726"/>
	  <point x="843" y="496" type="curve" smooth="yes"/>
	  <point x="843" y="267"/>
	  <point x="727" y="113"/>
	  <point x="555" y="113" type="curve" smooth="yes"/>
	  <point x="384" y="113"/>
	  <point x="266" y="267"/>
	</contour>
	<contour>
	  <point x="271" y="1186" type="curve"/>
	  <point x="367" y="1186" type="line"/>
	  <point x="377" y="1255"/>
	  <point x="399" y="1290"/>
	  <point x="440" y="1290" type="curve" smooth="yes"/>
	  <point x="510" y="1290"/>
	  <point x="571" y="1186"/>
	  <point x="674" y="1186" type="curve" smooth="yes"/>
	  <point x="774" y="1186"/>
	  <point x="828" y="1280"/>
	  <point x="839" y="1402" type="curve"/>
	  <point x="745" y="1402" type="line"/>
	  <point x="733" y="1332"/>
	  <point x="711" y="1297"/>
	  <point x="670" y="1297" type="curve" smooth="yes"/>
	  <point x="604" y="1297"/>
	  <point x="541" y="1402"/>
	  <point x="436" y="1402" type="curve" smooth="yes"/>
	  <point x="336" y="1402"/>
	  <point x="282" y="1308"/>
	</contour>
  </outline>
</glyph>
<glyph name="odieresis" format="1">
  <advance width="1109"/>
  <unicode hex="00F6"/>
  <outline>
	<contour>
	  <point x="94" y="496" type="curve" smooth="yes"/>
	  <point x="94" y="166"/>
	  <point x="311" y="-25"/>
	  <point x="555" y="-25" type="curve" smooth="yes"/>
	  <point x="799" y="-25"/>
	  <point x="1015" y="166"/>
	  <point x="1015" y="496" type="curve" smooth="yes"/>
	  <point x="1015" y="829"/>
	  <point x="799" y="1020"/>
	  <point x="555" y="1020" type="curve" smooth="yes"/>
	  <point x="311" y="1020"/>
	  <point x="94" y="829"/>
	</contour>
	<contour>
	  <point x="266" y="496" type="curve" smooth="yes"/>
	  <point x="266" y="726"/>
	  <point x="384" y="882"/>
	  <point x="555" y="882" type="curve" smooth="yes"/>
	  <point x="727" y="882"/>
	  <point x="843" y="726"/>
	  <point x="843" y="496" type="curve" smooth="yes"/>
	  <point x="843" y="267"/>
	  <point x="727" y="113"/>
	  <point x="555" y="113" type="curve" smooth="yes"/>
	  <point x="384" y="113"/>
	  <point x="266" y="267"/>
	</contour>
	<contour>
	  <point x="379" y="1205" type="curve" smooth="yes"/>
	  <point x="323" y="1205"/>
	  <point x="280" y="1247"/>
	  <point x="280" y="1305" type="curve" smooth="yes"/>
	  <point x="280" y="1361"/>
	  <point x="323" y="1404"/>
	  <point x="379" y="1404" type="curve" smooth="yes"/>
	  <point x="436" y="1404"/>
	  <point x="479" y="1361"/>
	  <point x="479" y="1305" type="curve" smooth="yes"/>
	  <point x="479" y="1247"/>
	  <point x="436" y="1205"/>
	</contour>
	<contour>
	  <point x="730" y="1205" type="curve" smooth="yes"/>
	  <point x="790" y="1205"/>
	  <point x="830" y="1247"/>
	  <point x="830" y="1305" type="curve" smooth="yes"/>
	  <point x="830" y="1361"/>
	  <point x="790" y="1404"/>
	  <point x="730" y="1404" type="curve" smooth="yes"/>
	  <point x="674" y="1404"/>
	  <point x="633" y="1361"/>
	  <point x="633" y="1305" type="curve" smooth="yes"/>
	  <point x="633" y="1247"/>
	  <point x="674" y="1205"/>
	</contour>
  </outline>
</glyph>
<glyph name="ugrave" format="1">
  <advance width="1113"/>
  <unicode hex="00F9"/>
  <outline>
	<contour>
	  <point x="155" y="365" type="line"/>
	  <point x="155" y="111"/>
	  <point x="249" y="-25"/>
	  <point x="459" y="-25" type="curve" smooth="yes"/>
	  <point x="596" y="-25"/>
	  <point x="694" y="47"/>
	  <point x="786" y="156" type="curve"/>
	  <point x="793" y="156" type="line"/>
	  <point x="807" y="0" type="line"/>
	  <point x="945" y="0" type="line"/>
	  <point x="945" y="995" type="line"/>
	  <point x="779" y="995" type="line"/>
	  <point x="779" y="288" type="line"/>
	  <point x="684" y="171"/>
	  <point x="612" y="119"/>
	  <point x="509" y="119" type="curve" smooth="yes"/>
	  <point x="378" y="119"/>
	  <point x="322" y="200"/>
	  <point x="322" y="386" type="curve" smooth="yes"/>
	  <point x="322" y="995" type="line"/>
	  <point x="155" y="995" type="line"/>
	</contour>
	<contour>
	  <point x="561" y="1174" type="line"/>
	  <point x="691" y="1174" type="line"/>
	  <point x="505" y="1462" type="line"/>
	  <point x="331" y="1462" type="line"/>
	</contour>
  </outline>
</glyph>
<glyph name="udieresis" format="1">
  <advance width="1113"/>
  <unicode hex="00FC"/>
  <outline>
	<contour>
	  <point x="155" y="365" type="line"/>
	  <point x="155" y="111"/>
	  <point x="249" y="-25"/>
	  <point x="459" y="-25" type="curve" smooth="yes"/>
	  <point x="596" y="-25"/>
	  <point x="694" y="47"/>
	  <point x="786" y="156" type="curve"/>
	  <point x="793" y="156" type="line"/>
	  <point x="807" y="0" type="line"/>
	  <point x="945" y="0" type="line"/>
	  <point x="945" y="995" type="line"/>
	  <point x="779" y="995" type="line"/>
	  <point x="779" y="288" type="line"/>
	  <point x="684" y="171"/>
	  <point x="612" y="119"/>
	  <point x="509" y="119" type="curve" smooth="yes"/>
	  <point x="378" y="119"/>
	  <point x="322" y="200"/>
	  <point x="322" y="386" type="curve" smooth="yes"/>
	  <point x="322" y="995" type="line"/>
	  <point x="155" y="995" type="line"/>
	</contour>
	<contour>
	  <point x="381" y="1205" type="curve" smooth="yes"/>
	  <point x="438" y="1205"/>
	  <point x="480" y="1247"/>
	  <point x="480" y="1305" type="curve" smooth="yes"/>
	  <point x="480" y="1361"/>
	  <point x="438" y="1404"/>
	  <point x="381" y="1404" type="curve" smooth="yes"/>
	  <point x="324" y="1404"/>
	  <point x="282" y="1361"/>
	  <point x="282" y="1305" type="curve" smooth="yes"/>
	  <point x="282" y="1247"/>
	  <point x="324" y="1205"/>
	</contour>
	<contour>
	  <point x="734" y="1205" type="curve" smooth="yes"/>
	  <point x="792" y="1205"/>
	  <point x="835" y="1247"/>
	  <point x="835" y="1305" type="curve" smooth="yes"/>
	  <point x="835" y="1361"/>
	  <point x="792" y="1404"/>
	  <point x="734" y="1404" type="curve" smooth="yes"/>
	  <point x="676" y="1404"/>
	  <point x="635" y="1361"/>
	  <point x="635" y="1305" type="curve" smooth="yes"/>
	  <point x="635" y="1247"/>
	  <point x="676" y="1205"/>
	</contour>
  </outline>
</glyph>
<glyph name="ydieresis" format="1">
  <advance width="954"/>
  <unicode hex="00FF"/>
  <outline>
	<contour>
	  <point x="99" y="-276" type="curve"/>
	  <point x="68" y="-409" type="line"/>
	  <point x="99" y="-421"/>
	  <point x="138" y="-429"/>
	  <point x="183" y="-429" type="curve" smooth="yes"/>
	  <point x="383" y="-429"/>
	  <point x="485" y="-279"/>
	  <point x="555" y="-83" type="curve" smooth="yes"/>
	  <point x="930" y="995" type="line"/>
	  <point x="768" y="995" type="line"/>
	  <point x="589" y="442" type="line"/>
	  <point x="562" y="354"/>
	  <point x="534" y="252"/>
	  <point x="505" y="162" type="curve"/>
	  <point x="497" y="162" type="line"/>
	  <point x="466" y="254"/>
	  <point x="431" y="356"/>
	  <point x="400" y="442" type="curve" smooth="yes"/>
	  <point x="197" y="995" type="line"/>
	  <point x="25" y="995" type="line"/>
	  <point x="424" y="-2" type="line"/>
	  <point x="401" y="-77" type="line"/>
	  <point x="360" y="-200"/>
	  <point x="289" y="-291"/>
	  <point x="175" y="-291" type="curve" smooth="yes"/>
	  <point x="151" y="-291"/>
	  <point x="120" y="-283"/>
	</contour>
	<contour>
	  <point x="322" y="1205" type="curve" smooth="yes"/>
	  <point x="378" y="1205"/>
	  <point x="421" y="1247"/>
	  <point x="421" y="1305" type="curve" smooth="yes"/>
	  <point x="421" y="1361"/>
	  <point x="378" y="1404"/>
	  <point x="322" y="1404" type="curve" smooth="yes"/>
	  <point x="264" y="1404"/>
	  <point x="221" y="1361"/>
	  <point x="221" y="1305" type="curve" smooth="yes"/>
	  <point x="221" y="1247"/>
	  <point x="264" y="1205"/>
	</contour>
	<contour>
	  <point x="673" y="1205" type="curve" smooth="yes"/>
	  <point x="731" y="1205"/>
	  <point x="772" y="1247"/>
	  <point x="772" y="1305" type="curve" smooth="yes"/>
	  <point x="772" y="1361"/>
	  <point x="731" y="1404"/>
	  <point x="673" y="1404" type="curve" smooth="yes"/>
	  <point x="615" y="1404"/>
	  <point x="574" y="1361"/>
	  <point x="574" y="1305" type="curve" smooth="yes"/>
	  <point x="574" y="1247"/>
	  <point x="615" y="1205"/>
	</contour>
  </outline>
</glyph>
<glyph name="Abreve" format="1">
  <advance width="1101"/>
  <unicode hex="0102"/>
  <outline>
	<contour>
	  <point x="698" y="1675" type="line"/>
	  <point x="686" y="1610"/>
	  <point x="641" y="1545"/>
	  <point x="549" y="1545" type="curve" smooth="yes"/>
	  <point x="456" y="1545"/>
	  <point x="411" y="1610"/>
	  <point x="398" y="1675" type="curve"/>
	  <point x="297" y="1675" type="line"/>
	  <point x="309" y="1561"/>
	  <point x="385" y="1450"/>
	  <point x="549" y="1450" type="curve" smooth="yes"/>
	  <point x="712" y="1450"/>
	  <point x="785" y="1561"/>
	  <point x="800" y="1675" type="curve"/>
	</contour>
	<contour>
	  <point x="345" y="547" type="line"/>
	  <point x="411" y="753" type="line"/>
	  <point x="458" y="902"/>
	  <point x="501" y="1050"/>
	  <point x="545" y="1205" type="curve"/>
	  <point x="553" y="1205" type="line"/>
	  <point x="596" y="1050"/>
	  <point x="639" y="902"/>
	  <point x="686" y="753" type="curve" smooth="yes"/>
	  <point x="751" y="547" type="line"/>
	</contour>
	<contour>
	  <point x="923" y="0" type="line"/>
	  <point x="1101" y="0" type="line"/>
	  <point x="645" y="1343" type="line"/>
	  <point x="456" y="1343" type="line"/>
	  <point x="0" y="0" type="line"/>
	  <point x="172" y="0" type="line"/>
	  <point x="302" y="411" type="line"/>
	  <point x="793" y="411" type="line"/>
	</contour>
  </outline>
</glyph>
<glyph name="cdotaccent" format="1">
  <advance width="933"/>
  <unicode hex="010B"/>
  <outline>
	<contour>
	  <point x="94" y="496" type="curve" smooth="yes"/>
	  <point x="94" y="166"/>
	  <point x="297" y="-25"/>
	  <point x="561" y="-25" type="curve" smooth="yes"/>
	  <point x="680" y="-25"/>
	  <point x="795" y="25"/>
	  <point x="885" y="104" type="curve"/>
	  <point x="809" y="214" type="line"/>
	  <point x="750" y="161"/>
	  <point x="670" y="113"/>
	  <point x="575" y="113" type="curve" smooth="yes"/>
	  <point x="392" y="113"/>
	  <point x="266" y="267"/>
	  <point x="266" y="496" type="curve" smooth="yes"/>
	  <point x="266" y="726"/>
	  <point x="398" y="882"/>
	  <point x="579" y="882" type="curve" smooth="yes"/>
	  <point x="659" y="882"/>
	  <point x="721" y="845"/>
	  <point x="780" y="794" type="curve"/>
	  <point x="863" y="901" type="line"/>
	  <point x="797" y="965"/>
	  <point x="705" y="1020"/>
	  <point x="573" y="1020" type="curve" smooth="yes"/>
	  <point x="317" y="1020"/>
	  <point x="94" y="829"/>
	</contour>
	<contour>
	  <point x="571" y="1201" type="curve" smooth="yes"/>
	  <point x="634" y="1201"/>
	  <point x="681" y="1245"/>
	  <point x="681" y="1311" type="curve" smooth="yes"/>
	  <point x="681" y="1373"/>
	  <point x="634" y="1420"/>
	  <point x="571" y="1420" type="curve" smooth="yes"/>
	  <point x="506" y="1420"/>
	  <point x="460" y="1373"/>
	  <point x="460" y="1311" type="curve" smooth="yes"/>
	  <point x="460" y="1245"/>
	  <point x="506" y="1201"/>
	</contour>
  </outline>
</glyph>
<glyph name="Ccaron" format="1">
  <advance width="1158"/>
  <unicode hex="010C"/>
  <outline>
	<contour>
	  <point x="100" y="672" type="curve" smooth="yes"/>
	  <point x="100" y="233"/>
	  <point x="352" y="-25"/>
	  <point x="689" y="-25" type="curve" smooth="yes"/>
	  <point x="860" y="-25"/>
	  <point x="992" y="47"/>
	  <point x="1097" y="170" type="curve"/>
	  <point x="1001" y="273" type="line"/>
	  <point x="915" y="176"/>
	  <point x="821" y="123"/>
	  <point x="693" y="123" type="curve" smooth="yes"/>
	  <point x="437" y="123"/>
	  <point x="274" y="337"/>
	  <point x="274" y="676" type="curve" smooth="yes"/>
	  <point x="274" y="1011"/>
	  <point x="444" y="1221"/>
	  <point x="701" y="1221" type="curve" smooth="yes"/>
	  <point x="813" y="1221"/>
	  <point x="899" y="1171"/>
	  <point x="971" y="1095" type="curve"/>
	  <point x="1066" y="1202" type="line"/>
	  <point x="986" y="1290"/>
	  <point x="859" y="1368"/>
	  <point x="700" y="1368" type="curve" smooth="yes"/>
	  <point x="356" y="1368"/>
	  <point x="100" y="1104"/>
	</contour>
	<contour>
	  <point x="813" y="1675" type="line"/>
	  <point x="676" y="1536" type="line"/>
	  <point x="668" y="1536" type="line"/>
	  <point x="529" y="1675" type="line"/>
	  <point x="394" y="1675" type="line"/>
	  <point x="591" y="1446" type="line"/>
	  <point x="753" y="1446" type="line"/>
	  <point x="949" y="1675" type="line"/>
	</contour>
  </outline>
</glyph>
<glyph name="ccaron" format="1">
  <advance width="933"/>
  <unicode hex="010D"/>
  <outline>
	<contour>
	  <point x="94" y="496" type="curve" smooth="yes"/>
	  <point x="94" y="166"/>
	  <point x="297" y="-25"/>
	  <point x="561" y="-25" type="curve" smooth="yes"/>
	  <point x="680" y="-25"/>
	  <point x="795" y="25"/>
	  <point x="885" y="104" type="curve"/>
	  <point x="809" y="214" type="line"/>
	  <point x="750" y="161"/>
	  <point x="670" y="113"/>
	  <point x="575" y="113" type="curve" smooth="yes"/>
	  <point x="392" y="113"/>
	  <point x="266" y="267"/>
	  <point x="266" y="496" type="curve" smooth="yes"/>
	  <point x="266" y="726"/>
	  <point x="398" y="882"/>
	  <point x="579" y="882" type="curve" smooth="yes"/>
	  <point x="659" y="882"/>
	  <point x="721" y="845"/>
	  <point x="780" y="794" type="curve"/>
	  <point x="863" y="901" type="line"/>
	  <point x="797" y="965"/>
	  <point x="705" y="1020"/>
	  <point x="573" y="1020" type="curve" smooth="yes"/>
	  <point x="317" y="1020"/>
	  <point x="94" y="829"/>
	</contour>
	<contour>
	  <point x="502" y="1174" type="line"/>
	  <point x="638" y="1174" type="line"/>
	  <point x="833" y="1462" type="line"/>
	  <point x="713" y="1462" type="line"/>
	  <point x="575" y="1273" type="line"/>
	  <point x="567" y="1273" type="line"/>
	  <point x="429" y="1462" type="line"/>
	  <point x="307" y="1462" type="line"/>
	</contour>
  </outline>
</glyph>
<glyph name="Dcaron" format="1">
  <advance width="1252"/>
  <unicode hex="010E"/>
  <outline>
	<contour>
	  <point x="178" y="0" type="line"/>
	  <point x="522" y="0" type="line"/>
	  <point x="928" y="0"/>
	  <point x="1148" y="251"/>
	  <point x="1148" y="678" type="curve" smooth="yes"/>
	  <point x="1148" y="1104"/>
	  <point x="928" y="1343"/>
	  <point x="514" y="1343" type="curve" smooth="yes"/>
	  <point x="178" y="1343" type="line"/>
	</contour>
	<contour>
	  <point x="348" y="137" type="line"/>
	  <point x="348" y="1206" type="line"/>
	  <point x="502" y="1206" type="line"/>
	  <point x="818" y="1206"/>
	  <point x="974" y="1016"/>
	  <point x="974" y="678" type="curve" smooth="yes"/>
	  <point x="974" y="338"/>
	  <point x="818" y="137"/>
	  <point x="502" y="137" type="curve" smooth="yes"/>
	</contour>
	<contour>
	  <point x="768" y="1675" type="line"/>
	  <point x="631" y="1536" type="line"/>
	  <point x="623" y="1536" type="line"/>
	  <point x="484" y="1675" type="line"/>
	  <point x="349" y="1675" type="line"/>
	  <point x="546" y="1446" type="line"/>
	  <point x="706" y="1446" type="line"/>
	  <point x="902" y="1675" type="line"/>
	</contour>
  </outline>
</glyph>
<glyph name="dcaron" format="1">
  <advance width="1172"/>
  <unicode hex="010F"/>
  <outline>
	<contour>
	  <point x="96" y="496" type="curve" smooth="yes"/>
	  <point x="96" y="164"/>
	  <point x="258" y="-25"/>
	  <point x="508" y="-25" type="curve" smooth="yes"/>
	  <point x="626" y="-25"/>
	  <point x="732" y="41"/>
	  <point x="810" y="117" type="curve"/>
	  <point x="816" y="117" type="line"/>
	  <point x="829" y="0" type="line"/>
	  <point x="968" y="0" type="line"/>
	  <point x="968" y="1458" type="line"/>
	  <point x="800" y="1458" type="line"/>
	  <point x="800" y="1075" type="line"/>
	  <point x="808" y="905" type="line"/>
	  <point x="720" y="977"/>
	  <point x="643" y="1020"/>
	  <point x="528" y="1020" type="curve" smooth="yes"/>
	  <point x="301" y="1020"/>
	  <point x="96" y="819"/>
	</contour>
	<contour>
	  <point x="268" y="498" type="curve" smooth="yes"/>
	  <point x="268" y="725"/>
	  <point x="396" y="880"/>
	  <point x="557" y="880" type="curve" smooth="yes"/>
	  <point x="639" y="880"/>
	  <point x="715" y="851"/>
	  <point x="800" y="775" type="curve"/>
	  <point x="800" y="253" type="line"/>
	  <point x="717" y="161"/>
	  <point x="637" y="115"/>
	  <point x="545" y="115" type="curve" smooth="yes"/>
	  <point x="370" y="115"/>
	  <point x="268" y="259"/>
	</contour>
	<contour>
	  <point x="1166" y="1122" type="line"/>
	  <point x="1194" y="1440" type="line"/>
	  <point x="1196" y="1556" type="line"/>
	  <point x="1076" y="1556" type="line"/>
	  <point x="1084" y="1122" type="line"/>
	</contour>
  </outline>
</glyph>
<glyph name="Ebreve" format="1">
  <advance width="1068"/>
  <unicode hex="0114"/>
  <outline>
	<contour>
	  <point x="178" y="0" type="line"/>
	  <point x="972" y="0" type="line"/>
	  <point x="972" y="143" type="line"/>
	  <point x="348" y="143" type="line"/>
	  <point x="348" y="634" type="line"/>
	  <point x="857" y="634" type="line"/>
	  <point x="857" y="777" type="line"/>
	  <point x="348" y="777" type="line"/>
	  <point x="348" y="1202" type="line"/>
	  <point x="951" y="1202" type="line"/>
	  <point x="951" y="1343" type="line"/>
	  <point x="178" y="1343" type="line"/>
	</contour>
	<contour>
	  <point x="578" y="1450" type="curve" smooth="yes"/>
	  <point x="741" y="1450"/>
	  <point x="814" y="1561"/>
	  <point x="828" y="1675" type="curve"/>
	  <point x="727" y="1675" type="line"/>
	  <point x="715" y="1610"/>
	  <point x="670" y="1545"/>
	  <point x="578" y="1545" type="curve" smooth="yes"/>
	  <point x="484" y="1545"/>
	  <point x="439" y="1610"/>
	  <point x="427" y="1675" type="curve"/>
	  <point x="326" y="1675" type="line"/>
	  <point x="338" y="1561"/>
	  <point x="414" y="1450"/>
	</contour>
  </outline>
</glyph>
<glyph name="ebreve" format="1">
  <advance width="1015"/>
  <unicode hex="0115"/>
  <outline>
	<contour>
	  <point x="94" y="496" type="curve" smooth="yes"/>
	  <point x="94" y="170"/>
	  <point x="305" y="-25"/>
	  <point x="571" y="-25" type="curve" smooth="yes"/>
	  <point x="707" y="-25"/>
	  <point x="812" y="23"/>
	  <point x="898" y="78" type="curve"/>
	  <point x="840" y="187" type="line"/>
	  <point x="766" y="140"/>
	  <point x="686" y="110"/>
	  <point x="591" y="110" type="curve" smooth="yes"/>
	  <point x="400" y="110"/>
	  <point x="270" y="246"/>
	  <point x="258" y="461" type="curve"/>
	  <point x="931" y="461" type="line"/>
	  <point x="935" y="485"/>
	  <point x="937" y="518"/>
	  <point x="937" y="553" type="curve" smooth="yes"/>
	  <point x="937" y="838"/>
	  <point x="794" y="1020"/>
	  <point x="541" y="1020" type="curve" smooth="yes"/>
	  <point x="313" y="1020"/>
	  <point x="94" y="821"/>
	</contour>
	<contour>
	  <point x="256" y="570" type="line"/>
	  <point x="277" y="772"/>
	  <point x="405" y="888"/>
	  <point x="545" y="888" type="curve" smooth="yes"/>
	  <point x="700" y="888"/>
	  <point x="792" y="775"/>
	  <point x="792" y="570" type="curve"/>
	</contour>
	<contour>
	  <point x="541" y="1178" type="curve" smooth="yes"/>
	  <point x="717" y="1178"/>
	  <point x="790" y="1317"/>
	  <point x="800" y="1438" type="curve"/>
	  <point x="696" y="1438" type="line"/>
	  <point x="684" y="1357"/>
	  <point x="637" y="1281"/>
	  <point x="541" y="1281" type="curve" smooth="yes"/>
	  <point x="445" y="1281"/>
	  <point x="396" y="1357"/>
	  <point x="386" y="1438" type="curve"/>
	  <point x="283" y="1438" type="line"/>
	  <point x="293" y="1317"/>
	  <point x="367" y="1178"/>
	</contour>
  </outline>
</glyph>
<glyph name="Edotaccent" format="1">
  <advance width="1068"/>
  <unicode hex="0116"/>
  <outline>
	<contour>
	  <point x="178" y="0" type="line"/>
	  <point x="972" y="0" type="line"/>
	  <point x="972" y="143" type="line"/>
	  <point x="348" y="143" type="line"/>
	  <point x="348" y="634" type="line"/>
	  <point x="857" y="634" type="line"/>
	  <point x="857" y="777" type="line"/>
	  <point x="348" y="777" type="line"/>
	  <point x="348" y="1202" type="line"/>
	  <point x="951" y="1202" type="line"/>
	  <point x="951" y="1343" type="line"/>
	  <point x="178" y="1343" type="line"/>
	</contour>
	<contour>
	  <point x="578" y="1462" type="curve" smooth="yes"/>
	  <point x="642" y="1462"/>
	  <point x="693" y="1507"/>
	  <point x="693" y="1573" type="curve" smooth="yes"/>
	  <point x="693" y="1635"/>
	  <point x="642" y="1680"/>
	  <point x="578" y="1680" type="curve" smooth="yes"/>
	  <point x="512" y="1680"/>
	  <point x="462" y="1635"/>
	  <point x="462" y="1573" type="curve" smooth="yes"/>
	  <point x="462" y="1507"/>
	  <point x="512" y="1462"/>
	</contour>
  </outline>
</glyph>
<glyph name="edotaccent" format="1">
  <advance width="1015"/>
  <unicode hex="0117"/>
  <outline>
	<contour>
	  <point x="94" y="496" type="curve" smooth="yes"/>
	  <point x="94" y="170"/>
	  <point x="305" y="-25"/>
	  <point x="571" y="-25" type="curve" smooth="yes"/>
	  <point x="707" y="-25"/>
	  <point x="812" y="23"/>
	  <point x="898" y="78" type="curve"/>
	  <point x="840" y="187" type="line"/>
	  <point x="766" y="140"/>
	  <point x="686" y="110"/>
	  <point x="591" y="110" type="curve" smooth="yes"/>
	  <point x="400" y="110"/>
	  <point x="270" y="246"/>
	  <point x="258" y="461" type="curve"/>
	  <point x="931" y="461" type="line"/>
	  <point x="935" y="485"/>
	  <point x="937" y="518"/>
	  <point x="937" y="553" type="curve" smooth="yes"/>
	  <point x="937" y="838"/>
	  <point x="794" y="1020"/>
	  <point x="541" y="1020" type="curve" smooth="yes"/>
	  <point x="313" y="1020"/>
	  <point x="94" y="821"/>
	</contour>
	<contour>
	  <point x="256" y="570" type="line"/>
	  <point x="277" y="772"/>
	  <point x="405" y="888"/>
	  <point x="545" y="888" type="curve" smooth="yes"/>
	  <point x="700" y="888"/>
	  <point x="792" y="775"/>
	  <point x="792" y="570" type="curve"/>
	</contour>
	<contour>
	  <point x="541" y="1201" type="curve" smooth="yes"/>
	  <point x="605" y="1201"/>
	  <point x="650" y="1245"/>
	  <point x="650" y="1311" type="curve" smooth="yes"/>
	  <point x="650" y="1373"/>
	  <point x="605" y="1420"/>
	  <point x="541" y="1420" type="curve" smooth="yes"/>
	  <point x="477" y="1420"/>
	  <point x="431" y="1373"/>
	  <point x="431" y="1311" type="curve" smooth="yes"/>
	  <point x="431" y="1245"/>
	  <point x="477" y="1201"/>
	</contour>
  </outline>
</glyph>
<glyph name="Gbreve" format="1">
  <advance width="1252"/>
  <unicode hex="011E"/>
  <outline>
	<contour>
	  <point x="100" y="672" type="curve" smooth="yes"/>
	  <point x="100" y="233"/>
	  <point x="352" y="-25"/>
	  <point x="704" y="-25" type="curve" smooth="yes"/>
	  <point x="884" y="-25"/>
	  <point x="1033" y="45"/>
	  <point x="1121" y="131" type="curve"/>
	  <point x="1121" y="695" type="line"/>
	  <point x="682" y="695" type="line"/>
	  <point x="682" y="556" type="line"/>
	  <point x="968" y="556" type="line"/>
	  <point x="968" y="204" type="line"/>
	  <point x="913" y="155"/>
	  <point x="819" y="123"/>
	  <point x="722" y="123" type="curve" smooth="yes"/>
	  <point x="435" y="123"/>
	  <point x="274" y="337"/>
	  <point x="274" y="676" type="curve" smooth="yes"/>
	  <point x="274" y="1011"/>
	  <point x="450" y="1221"/>
	  <point x="722" y="1221" type="curve" smooth="yes"/>
	  <point x="856" y="1221"/>
	  <point x="940" y="1167"/>
	  <point x="1008" y="1095" type="curve"/>
	  <point x="1105" y="1202" type="line"/>
	  <point x="1025" y="1284"/>
	  <point x="903" y="1368"/>
	  <point x="721" y="1368" type="curve" smooth="yes"/>
	  <point x="360" y="1368"/>
	  <point x="100" y="1104"/>
	</contour>
	<contour>
	  <point x="719" y="1450" type="curve" smooth="yes"/>
	  <point x="882" y="1450"/>
	  <point x="955" y="1561"/>
	  <point x="970" y="1675" type="curve"/>
	  <point x="868" y="1675" type="line"/>
	  <point x="856" y="1610"/>
	  <point x="811" y="1545"/>
	  <point x="719" y="1545" type="curve" smooth="yes"/>
	  <point x="626" y="1545"/>
	  <point x="581" y="1610"/>
	  <point x="568" y="1675" type="curve"/>
	  <point x="467" y="1675" type="line"/>
	  <point x="481" y="1561"/>
	  <point x="555" y="1450"/>
	</contour>
  </outline>
</glyph>
<glyph name="Gdotaccent" format="1">
  <advance width="1252"/>
  <unicode hex="0120"/>
  <outline>
	<contour>
	  <point x="100" y="672" type="curve" smooth="yes"/>
	  <point x="100" y="233"/>
	  <point x="352" y="-25"/>
	  <point x="704" y="-25" type="curve" smooth="yes"/>
	  <point x="884" y="-25"/>
	  <point x="1033" y="45"/>
	  <point x="1121" y="131" type="curve"/>
	  <point x="1121" y="695" type="line"/>
	  <point x="682" y="695" type="line"/>
	  <point x="682" y="556" type="line"/>
	  <point x="968" y="556" type="line"/>
	  <point x="968" y="204" type="line"/>
	  <point x="913" y="155"/>
	  <point x="819" y="123"/>
	  <point x="722" y="123" type="curve" smooth="yes"/>
	  <point x="435" y="123"/>
	  <point x="274" y="337"/>
	  <point x="274" y="676" type="curve" smooth="yes"/>
	  <point x="274" y="1011"/>
	  <point x="450" y="1221"/>
	  <point x="722" y="1221" type="curve" smooth="yes"/>
	  <point x="856" y="1221"/>
	  <point x="940" y="1167"/>
	  <point x="1008" y="1095" type="curve"/>
	  <point x="1105" y="1202" type="line"/>
	  <point x="1025" y="1284"/>
	  <point x="903" y="1368"/>
	  <point x="721" y="1368" type="curve" smooth="yes"/>
	  <point x="360" y="1368"/>
	  <point x="100" y="1104"/>
	</contour>
	<contour>
	  <point x="719" y="1462" type="curve" smooth="yes"/>
	  <point x="783" y="1462"/>
	  <point x="835" y="1507"/>
	  <point x="835" y="1573" type="curve" smooth="yes"/>
	  <point x="835" y="1635"/>
	  <point x="783" y="1680"/>
	  <point x="719" y="1680" type="curve" smooth="yes"/>
	  <point x="653" y="1680"/>
	  <point x="602" y="1635"/>
	  <point x="602" y="1573" type="curve" smooth="yes"/>
	  <point x="602" y="1507"/>
	  <point x="653" y="1462"/>
	</contour>
  </outline>
</glyph>
<glyph name="gdotaccent" format="1">
  <advance width="1031"/>
  <unicode hex="0121"/>
  <outline>
	<contour>
	  <point x="239" y="-169" type="curve" smooth="yes"/>
	  <point x="239" y="-111"/>
	  <point x="269" y="-51"/>
	  <point x="341" y="0" type="curve"/>
	  <point x="385" y="-12"/>
	  <point x="432" y="-16"/>
	  <point x="470" y="-16" type="curve" smooth="yes"/>
	  <point x="643" y="-16" type="line"/>
	  <point x="773" y="-16"/>
	  <point x="845" y="-47"/>
	  <point x="845" y="-139" type="curve" smooth="yes"/>
	  <point x="845" y="-245"/>
	  <point x="720" y="-343"/>
	  <point x="528" y="-343" type="curve" smooth="yes"/>
	  <point x="347" y="-343"/>
	  <point x="239" y="-275"/>
	</contour>
	<contour>
	  <point x="92" y="-190" type="curve" smooth="yes"/>
	  <point x="92" y="-362"/>
	  <point x="260" y="-459"/>
	  <point x="504" y="-459" type="curve" smooth="yes"/>
	  <point x="812" y="-459"/>
	  <point x="1007" y="-299"/>
	  <point x="1007" y="-116" type="curve" smooth="yes"/>
	  <point x="1007" y="50"/>
	  <point x="891" y="122"/>
	  <point x="659" y="122" type="curve" smooth="yes"/>
	  <point x="466" y="122" type="line"/>
	  <point x="331" y="122"/>
	  <point x="290" y="167"/>
	  <point x="290" y="231" type="curve" smooth="yes"/>
	  <point x="290" y="287"/>
	  <point x="318" y="319"/>
	  <point x="353" y="350" type="curve"/>
	  <point x="398" y="328"/>
	  <point x="455" y="315"/>
	  <point x="504" y="315" type="curve" smooth="yes"/>
	  <point x="707" y="315"/>
	  <point x="867" y="449"/>
	  <point x="867" y="662" type="curve" smooth="yes"/>
	  <point x="867" y="745"/>
	  <point x="833" y="822"/>
	  <point x="785" y="867" type="curve"/>
	  <point x="990" y="867" type="line"/>
	  <point x="990" y="995" type="line"/>
	  <point x="644" y="995" type="line"/>
	  <point x="608" y="1010"/>
	  <point x="559" y="1020"/>
	  <point x="504" y="1020" type="curve" smooth="yes"/>
	  <point x="301" y="1020"/>
	  <point x="130" y="883"/>
	  <point x="130" y="666" type="curve" smooth="yes"/>
	  <point x="130" y="547"/>
	  <point x="193" y="451"/>
	  <point x="258" y="397" type="curve"/>
	  <point x="258" y="389" type="line"/>
	  <point x="208" y="354"/>
	  <point x="150" y="289"/>
	  <point x="150" y="205" type="curve" smooth="yes"/>
	  <point x="150" y="127"/>
	  <point x="188" y="74"/>
	  <point x="238" y="43" type="curve"/>
	  <point x="238" y="35" type="line"/>
	  <point x="147" y="-27"/>
	  <point x="92" y="-106"/>
	</contour>
	<contour>
	  <point x="504" y="427" type="curve" smooth="yes"/>
	  <point x="388" y="427"/>
	  <point x="292" y="519"/>
	  <point x="292" y="666" type="curve" smooth="yes"/>
	  <point x="292" y="811"/>
	  <point x="386" y="898"/>
	  <point x="504" y="898" type="curve" smooth="yes"/>
	  <point x="621" y="898"/>
	  <point x="716" y="811"/>
	  <point x="716" y="666" type="curve" smooth="yes"/>
	  <point x="716" y="519"/>
	  <point x="618" y="427"/>
	</contour>
	<contour>
	  <point x="492" y="1201" type="curve" smooth="yes"/>
	  <point x="554" y="1201"/>
	  <point x="601" y="1245"/>
	  <point x="601" y="1311" type="curve" smooth="yes"/>
	  <point x="601" y="1373"/>
	  <point x="554" y="1420"/>
	  <point x="492" y="1420" type="curve" smooth="yes"/>
	  <point x="426" y="1420"/>
	  <point x="380" y="1373"/>
	  <point x="380" y="1311" type="curve" smooth="yes"/>
	  <point x="380" y="1245"/>
	  <point x="426" y="1201"/>
	</contour>
  </outline>
</glyph>
<glyph name="uni0122" format="1">
  <advance width="1252"/>
  <unicode hex="0122"/>
  <outline>
	<contour>
	  <point x="100" y="672" type="curve" smooth="yes"/>
	  <point x="100" y="233"/>
	  <point x="352" y="-25"/>
	  <point x="704" y="-25" type="curve" smooth="yes"/>
	  <point x="884" y="-25"/>
	  <point x="1033" y="45"/>
	  <point x="1121" y="131" type="curve"/>
	  <point x="1121" y="695" type="line"/>
	  <point x="682" y="695" type="line"/>
	  <point x="682" y="556" type="line"/>
	  <point x="968" y="556" type="line"/>
	  <point x="968" y="204" type="line"/>
	  <point x="913" y="155"/>
	  <point x="819" y="123"/>
	  <point x="722" y="123" type="curve" smooth="yes"/>
	  <point x="435" y="123"/>
	  <point x="274" y="337"/>
	  <point x="274" y="676" type="curve" smooth="yes"/>
	  <point x="274" y="1011"/>
	  <point x="450" y="1221"/>
	  <point x="722" y="1221" type="curve" smooth="yes"/>
	  <point x="856" y="1221"/>
	  <point x="940" y="1167"/>
	  <point x="1008" y="1095" type="curve"/>
	  <point x="1105" y="1202" type="line"/>
	  <point x="1025" y="1284"/>
	  <point x="903" y="1368"/>
	  <point x="721" y="1368" type="curve" smooth="yes"/>
	  <point x="360" y="1368"/>
	  <point x="100" y="1104"/>
	</contour>
	<contour>
	  <point x="649" y="-98" type="curve"/>
	  <point x="612" y="-176" type="line"/>
	  <point x="670" y="-190"/>
	  <point x="717" y="-213"/>
	  <point x="717" y="-266" type="curve" smooth="yes"/>
	  <point x="717" y="-319"/>
	  <point x="641" y="-346"/>
	  <point x="535" y="-360" type="curve"/>
	  <point x="551" y="-442" type="line"/>
	  <point x="706" y="-430"/>
	  <point x="847" y="-375"/>
	  <point x="847" y="-256" type="curve" smooth="yes"/>
	  <point x="847" y="-164"/>
	  <point x="785" y="-119"/>
	</contour>
  </outline>
</glyph>
<glyph name="Hcircumflex" format="1">
  <advance width="1324"/>
  <unicode hex="0124"/>
  <outline>
	<contour>
	  <point x="178" y="0" type="line"/>
	  <point x="348" y="0" type="line"/>
	  <point x="348" y="634" type="line"/>
	  <point x="976" y="634" type="line"/>
	  <point x="976" y="0" type="line"/>
	  <point x="1144" y="0" type="line"/>
	  <point x="1144" y="1343" type="line"/>
	  <point x="976" y="1343" type="line"/>
	  <point x="976" y="779" type="line"/>
	  <point x="348" y="779" type="line"/>
	  <point x="348" y="1343" type="line"/>
	  <point x="178" y="1343" type="line"/>
	</contour>
	<contour>
	  <point x="519" y="1446" type="line"/>
	  <point x="657" y="1585" type="line"/>
	  <point x="666" y="1585" type="line"/>
	  <point x="803" y="1446" type="line"/>
	  <point x="939" y="1446" type="line"/>
	  <point x="742" y="1675" type="line"/>
	  <point x="581" y="1675" type="line"/>
	  <point x="384" y="1446" type="line"/>
	</contour>
  </outline>
</glyph>
<glyph name="hcircumflex" format="1">
  <advance width="1113"/>
  <unicode hex="0125"/>
  <outline>
	<contour>
	  <point x="169" y="0" type="line"/>
	  <point x="335" y="0" type="line"/>
	  <point x="335" y="722" type="line"/>
	  <point x="435" y="822"/>
	  <point x="505" y="875"/>
	  <point x="608" y="875" type="curve" smooth="yes"/>
	  <point x="740" y="875"/>
	  <point x="798" y="796"/>
	  <point x="798" y="608" type="curve" smooth="yes"/>
	  <point x="798" y="0" type="line"/>
	  <point x="964" y="0" type="line"/>
	  <point x="964" y="631" type="line"/>
	  <point x="964" y="885"/>
	  <point x="869" y="1020"/>
	  <point x="661" y="1020" type="curve" smooth="yes"/>
	  <point x="523" y="1020"/>
	  <point x="423" y="946"/>
	  <point x="329" y="855" type="curve"/>
	  <point x="335" y="1061" type="line"/>
	  <point x="335" y="1458" type="line"/>
	  <point x="169" y="1458" type="line"/>
	</contour>
	<contour>
	  <point x="112" y="1534" type="line"/>
	  <point x="250" y="1673" type="line"/>
	  <point x="258" y="1673" type="line"/>
	  <point x="395" y="1534" type="line"/>
	  <point x="529" y="1534" type="line"/>
	  <point x="333" y="1761" type="line"/>
	  <point x="173" y="1761" type="line"/>
	  <point x="-24" y="1534" type="line"/>
	</contour>
  </outline>
</glyph>
<glyph name="Itilde" format="1">
  <advance width="526"/>
  <unicode hex="0128"/>
  <outline>
	<contour>
	  <point x="178" y="0" type="line"/>
	  <point x="348" y="0" type="line"/>
	  <point x="348" y="1343" type="line"/>
	  <point x="178" y="1343" type="line"/>
	</contour>
	<contour>
	  <point x="386" y="1456" type="curve" smooth="yes"/>
	  <point x="484" y="1456"/>
	  <point x="548" y="1552"/>
	  <point x="560" y="1676" type="curve"/>
	  <point x="466" y="1676" type="line"/>
	  <point x="456" y="1609"/>
	  <point x="424" y="1570"/>
	  <point x="382" y="1570" type="curve" smooth="yes"/>
	  <point x="308" y="1570"/>
	  <point x="247" y="1676"/>
	  <point x="140" y="1676" type="curve" smooth="yes"/>
	  <point x="43" y="1676"/>
	  <point x="-20" y="1582"/>
	  <point x="-33" y="1456" type="curve"/>
	  <point x="60" y="1456" type="line"/>
	  <point x="71" y="1526"/>
	  <point x="103" y="1564"/>
	  <point x="142" y="1564" type="curve" smooth="yes"/>
	  <point x="219" y="1564"/>
	  <point x="278" y="1456"/>
	</contour>
  </outline>
</glyph>
<glyph name="itilde" format="1">
  <advance width="503"/>
  <unicode hex="0129"/>
  <outline>
	<contour>
	  <point x="169" y="0" type="line"/>
	  <point x="335" y="0" type="line"/>
	  <point x="335" y="995" type="line"/>
	  <point x="169" y="995" type="line"/>
	</contour>
	<contour>
	  <point x="-33" y="1186" type="curve"/>
	  <point x="62" y="1186" type="line"/>
	  <point x="73" y="1255"/>
	  <point x="95" y="1290"/>
	  <point x="137" y="1290" type="curve" smooth="yes"/>
	  <point x="207" y="1290"/>
	  <point x="267" y="1186"/>
	  <point x="370" y="1186" type="curve" smooth="yes"/>
	  <point x="470" y="1186"/>
	  <point x="525" y="1280"/>
	  <point x="536" y="1402" type="curve"/>
	  <point x="442" y="1402" type="line"/>
	  <point x="430" y="1332"/>
	  <point x="408" y="1297"/>
	  <point x="367" y="1297" type="curve" smooth="yes"/>
	  <point x="300" y="1297"/>
	  <point x="238" y="1402"/>
	  <point x="133" y="1402" type="curve" smooth="yes"/>
	  <point x="33" y="1402"/>
	  <point x="-23" y="1308"/>
	</contour>
  </outline>
</glyph>
<glyph name="Imacron" format="1">
  <advance width="526"/>
  <unicode hex="012A"/>
  <outline>
	<contour>
	  <point x="178" y="0" type="line"/>
	  <point x="348" y="0" type="line"/>
	  <point x="348" y="1343" type="line"/>
	  <point x="178" y="1343" type="line"/>
	</contour>
	<contour>
	  <point x="10" y="1493" type="line"/>
	  <point x="517" y="1493" type="line"/>
	  <point x="517" y="1609" type="line"/>
	  <point x="10" y="1609" type="line"/>
	</contour>
  </outline>
</glyph>
<glyph name="imacron" format="1">
  <advance width="503"/>
  <unicode hex="012B"/>
  <outline>
	<contour>
	  <point x="169" y="0" type="line"/>
	  <point x="335" y="0" type="line"/>
	  <point x="335" y="995" type="line"/>
	  <point x="169" y="995" type="line"/>
	</contour>
	<contour>
	  <point x="2" y="1231" type="line"/>
	  <point x="503" y="1231" type="line"/>
	  <point x="503" y="1347" type="line"/>
	  <point x="2" y="1347" type="line"/>
	</contour>
  </outline>
</glyph>
<glyph name="uni012C" format="1">
  <advance width="526"/>
  <unicode hex="012C"/>
  <outline>
	<contour>
	  <point x="178" y="0" type="line"/>
	  <point x="348" y="0" type="line"/>
	  <point x="348" y="1343" type="line"/>
	  <point x="178" y="1343" type="line"/>
	</contour>
	<contour>
	  <point x="263" y="1450" type="curve" smooth="yes"/>
	  <point x="427" y="1450"/>
	  <point x="501" y="1561"/>
	  <point x="515" y="1675" type="curve"/>
	  <point x="414" y="1675" type="line"/>
	  <point x="401" y="1610"/>
	  <point x="356" y="1545"/>
	  <point x="263" y="1545" type="curve" smooth="yes"/>
	  <point x="171" y="1545"/>
	  <point x="126" y="1610"/>
	  <point x="114" y="1675" type="curve"/>
	  <point x="12" y="1675" type="line"/>
	  <point x="27" y="1561"/>
	  <point x="100" y="1450"/>
	</contour>
  </outline>
</glyph>
<glyph name="uni012D" format="1">
  <advance width="503"/>
  <unicode hex="012D"/>
  <outline>
	<contour>
	  <point x="169" y="0" type="line"/>
	  <point x="335" y="0" type="line"/>
	  <point x="335" y="995" type="line"/>
	  <point x="169" y="995" type="line"/>
	</contour>
	<contour>
	  <point x="254" y="1178" type="curve" smooth="yes"/>
	  <point x="429" y="1178"/>
	  <point x="503" y="1317"/>
	  <point x="511" y="1438" type="curve"/>
	  <point x="408" y="1438" type="line"/>
	  <point x="397" y="1357"/>
	  <point x="350" y="1281"/>
	  <point x="254" y="1281" type="curve" smooth="yes"/>
	  <point x="157" y="1281"/>
	  <point x="110" y="1357"/>
	  <point x="97" y="1438" type="curve"/>
	  <point x="-6" y="1438" type="line"/>
	  <point x="4" y="1317"/>
	  <point x="78" y="1178"/>
	</contour>
  </outline>
</glyph>
<glyph name="Idotaccent" format="1">
  <advance width="526"/>
  <unicode hex="0130"/>
  <outline>
	<contour>
	  <point x="178" y="0" type="line"/>
	  <point x="348" y="0" type="line"/>
	  <point x="348" y="1343" type="line"/>
	  <point x="178" y="1343" type="line"/>
	</contour>
	<contour>
	  <point x="263" y="1462" type="curve" smooth="yes"/>
	  <point x="329" y="1462"/>
	  <point x="379" y="1507"/>
	  <point x="379" y="1573" type="curve" smooth="yes"/>
	  <point x="379" y="1635"/>
	  <point x="329" y="1680"/>
	  <point x="263" y="1680" type="curve" smooth="yes"/>
	  <point x="199" y="1680"/>
	  <point x="147" y="1635"/>
	  <point x="147" y="1573" type="curve" smooth="yes"/>
	  <point x="147" y="1507"/>
	  <point x="199" y="1462"/>
	</contour>
  </outline>
</glyph>
<glyph name="dotlessi" format="1">
  <advance width="503"/>
  <unicode hex="0131"/>
  <outline>
	<contour>
	  <point x="169" y="0" type="line"/>
	  <point x="335" y="0" type="line"/>
	  <point x="335" y="995" type="line"/>
	  <point x="169" y="995" type="line"/>
	</contour>
	<contour>
	  <point x="310" y="0" type="move" name="mark0"/>
	</contour>
  </outline>
</glyph>
<glyph name="Jcircumflex" format="1">
  <advance width="970"/>
  <unicode hex="0134"/>
  <outline>
	<contour>
	  <point x="59" y="190" type="line"/>
	  <point x="137" y="49"/>
	  <point x="258" y="-25"/>
	  <point x="428" y="-25" type="curve" smooth="yes"/>
	  <point x="691" y="-25"/>
	  <point x="798" y="164"/>
	  <point x="798" y="394" type="curve" smooth="yes"/>
	  <point x="798" y="1343" type="line"/>
	  <point x="630" y="1343" type="line"/>
	  <point x="630" y="411" type="line"/>
	  <point x="630" y="206"/>
	  <point x="557" y="123"/>
	  <point x="414" y="123" type="curve" smooth="yes"/>
	  <point x="316" y="123"/>
	  <point x="241" y="168"/>
	  <point x="179" y="275" type="curve"/>
	</contour>
	<contour>
	  <point x="564" y="1446" type="line"/>
	  <point x="702" y="1585" type="line"/>
	  <point x="711" y="1585" type="line"/>
	  <point x="848" y="1446" type="line"/>
	  <point x="984" y="1446" type="line"/>
	  <point x="787" y="1675" type="line"/>
	  <point x="626" y="1675" type="line"/>
	  <point x="429" y="1446" type="line"/>
	</contour>
  </outline>
</glyph>
<glyph name="jcircumflex" format="1">
  <advance width="505"/>
  <unicode hex="0135"/>
  <outline>
	<contour>
	  <point x="170" y="-115" type="line"/>
	  <point x="170" y="-235"/>
	  <point x="146" y="-309"/>
	  <point x="47" y="-309" type="curve" smooth="yes"/>
	  <point x="12" y="-309"/>
	  <point x="-23" y="-301"/>
	  <point x="-47" y="-293" type="curve"/>
	  <point x="-82" y="-419" type="line"/>
	  <point x="-47" y="-433"/>
	  <point x="4" y="-445"/>
	  <point x="66" y="-445" type="curve" smooth="yes"/>
	  <point x="263" y="-445"/>
	  <point x="337" y="-317"/>
	  <point x="337" y="-115" type="curve" smooth="yes"/>
	  <point x="337" y="995" type="line"/>
	  <point x="170" y="995" type="line"/>
	</contour>
	<contour>
	  <point x="-10" y="1174" type="line"/>
	  <point x="112" y="1174" type="line"/>
	  <point x="250" y="1360" type="line"/>
	  <point x="258" y="1360" type="line"/>
	  <point x="395" y="1174" type="line"/>
	  <point x="515" y="1174" type="line"/>
	  <point x="323" y="1462" type="line"/>
	  <point x="184" y="1462" type="line"/>
	</contour>
  </outline>
</glyph>
<glyph name="uni0136" format="1">
  <advance width="1174"/>
  <unicode hex="0136"/>
  <outline>
	<contour>
	  <point x="178" y="0" type="line"/>
	  <point x="348" y="0" type="line"/>
	  <point x="348" y="427" type="line"/>
	  <point x="580" y="700" type="line"/>
	  <point x="982" y="0" type="line"/>
	  <point x="1170" y="0" type="line"/>
	  <point x="684" y="831" type="line"/>
	  <point x="1107" y="1343" type="line"/>
	  <point x="914" y="1343" type="line"/>
	  <point x="352" y="668" type="line"/>
	  <point x="348" y="668" type="line"/>
	  <point x="348" y="1343" type="line"/>
	  <point x="178" y="1343" type="line"/>
	</contour>
	<contour>
	  <point x="602" y="-98" type="curve"/>
	  <point x="565" y="-176" type="line"/>
	  <point x="625" y="-190"/>
	  <point x="671" y="-213"/>
	  <point x="671" y="-266" type="curve" smooth="yes"/>
	  <point x="671" y="-319"/>
	  <point x="596" y="-346"/>
	  <point x="489" y="-360" type="curve"/>
	  <point x="506" y="-442" type="line"/>
	  <point x="659" y="-430"/>
	  <point x="800" y="-375"/>
	  <point x="800" y="-256" type="curve" smooth="yes"/>
	  <point x="800" y="-164"/>
	  <point x="740" y="-119"/>
	</contour>
  </outline>
</glyph>
<glyph name="uni0137" format="1">
  <advance width="1012"/>
  <unicode hex="0137"/>
  <outline>
	<contour>
	  <point x="169" y="0" type="line"/>
	  <point x="333" y="0" type="line"/>
	  <point x="333" y="262" type="line"/>
	  <point x="519" y="480" type="line"/>
	  <point x="811" y="0" type="line"/>
	  <point x="993" y="0" type="line"/>
	  <point x="614" y="596" type="line"/>
	  <point x="948" y="995" type="line"/>
	  <point x="764" y="995" type="line"/>
	  <point x="339" y="469" type="line"/>
	  <point x="333" y="469" type="line"/>
	  <point x="333" y="1458" type="line"/>
	  <point x="169" y="1458" type="line"/>
	</contour>
	<contour>
	  <point x="495" y="-98" type="curve"/>
	  <point x="459" y="-176" type="line"/>
	  <point x="518" y="-190"/>
	  <point x="563" y="-213"/>
	  <point x="563" y="-266" type="curve" smooth="yes"/>
	  <point x="563" y="-319"/>
	  <point x="489" y="-346"/>
	  <point x="381" y="-360" type="curve"/>
	  <point x="399" y="-442" type="line"/>
	  <point x="552" y="-430"/>
	  <point x="693" y="-375"/>
	  <point x="693" y="-256" type="curve" smooth="yes"/>
	  <point x="693" y="-164"/>
	  <point x="634" y="-119"/>
	</contour>
  </outline>
</glyph>
<glyph name="Lacute" format="1">
  <advance width="983"/>
  <unicode hex="0139"/>
  <outline>
	<contour>
	  <point x="178" y="0" type="line"/>
	  <point x="935" y="0" type="line"/>
	  <point x="935" y="143" type="line"/>
	  <point x="348" y="143" type="line"/>
	  <point x="348" y="1343" type="line"/>
	  <point x="178" y="1343" type="line"/>
	</contour>
	<contour>
	  <point x="537" y="1675" type="line"/>
	  <point x="346" y="1675" type="line"/>
	  <point x="166" y="1446" type="line"/>
	  <point x="306" y="1446" type="line"/>
	</contour>
  </outline>
</glyph>
<glyph name="lacute" format="1">
  <advance width="521"/>
  <unicode hex="013A"/>
  <outline>
	<contour>
	  <point x="169" y="199" type="line"/>
	  <point x="169" y="54"/>
	  <point x="219" y="-25"/>
	  <point x="345" y="-25" type="curve" smooth="yes"/>
	  <point x="390" y="-25"/>
	  <point x="418" y="-18"/>
	  <point x="440" y="-8" type="curve"/>
	  <point x="418" y="117" type="line"/>
	  <point x="399" y="113"/>
	  <point x="391" y="113"/>
	  <point x="381" y="113" type="curve" smooth="yes"/>
	  <point x="356" y="113"/>
	  <point x="335" y="133"/>
	  <point x="335" y="186" type="curve" smooth="yes"/>
	  <point x="335" y="1458" type="line"/>
	  <point x="169" y="1458" type="line"/>
	</contour>
	<contour>
	  <point x="510" y="1782" type="line"/>
	  <point x="319" y="1782" type="line"/>
	  <point x="139" y="1554" type="line"/>
	  <point x="280" y="1554" type="line"/>
	</contour>
  </outline>
</glyph>
<glyph name="uni013B" format="1">
  <advance width="983"/>
  <unicode hex="013B"/>
  <outline>
	<contour>
	  <point x="178" y="0" type="line"/>
	  <point x="935" y="0" type="line"/>
	  <point x="935" y="143" type="line"/>
	  <point x="348" y="143" type="line"/>
	  <point x="348" y="1343" type="line"/>
	  <point x="178" y="1343" type="line"/>
	</contour>
	<contour>
	  <point x="524" y="-98" type="curve"/>
	  <point x="487" y="-176" type="line"/>
	  <point x="547" y="-190"/>
	  <point x="593" y="-213"/>
	  <point x="593" y="-266" type="curve" smooth="yes"/>
	  <point x="593" y="-319"/>
	  <point x="519" y="-346"/>
	  <point x="412" y="-360" type="curve"/>
	  <point x="428" y="-442" type="line"/>
	  <point x="582" y="-430"/>
	  <point x="722" y="-375"/>
	  <point x="722" y="-256" type="curve" smooth="yes"/>
	  <point x="722" y="-164"/>
	  <point x="663" y="-119"/>
	</contour>
  </outline>
</glyph>
<glyph name="uni013C" format="1">
  <advance width="521"/>
  <unicode hex="013C"/>
  <outline>
	<contour>
	  <point x="169" y="199" type="line"/>
	  <point x="169" y="54"/>
	  <point x="219" y="-25"/>
	  <point x="345" y="-25" type="curve" smooth="yes"/>
	  <point x="390" y="-25"/>
	  <point x="418" y="-18"/>
	  <point x="440" y="-8" type="curve"/>
	  <point x="418" y="117" type="line"/>
	  <point x="399" y="113"/>
	  <point x="391" y="113"/>
	  <point x="381" y="113" type="curve" smooth="yes"/>
	  <point x="356" y="113"/>
	  <point x="335" y="133"/>
	  <point x="335" y="186" type="curve" smooth="yes"/>
	  <point x="335" y="1458" type="line"/>
	  <point x="169" y="1458" type="line"/>
	</contour>
	<contour>
	  <point x="289" y="-98" type="curve"/>
	  <point x="252" y="-176" type="line"/>
	  <point x="311" y="-190"/>
	  <point x="356" y="-213"/>
	  <point x="356" y="-266" type="curve" smooth="yes"/>
	  <point x="356" y="-319"/>
	  <point x="283" y="-346"/>
	  <point x="174" y="-360" type="curve"/>
	  <point x="193" y="-442" type="line"/>
	  <point x="345" y="-430"/>
	  <point x="486" y="-375"/>
	  <point x="486" y="-256" type="curve" smooth="yes"/>
	  <point x="486" y="-164"/>
	  <point x="427" y="-119"/>
	</contour>
  </outline>
</glyph>
<glyph name="Lcaron" format="1">
  <advance width="983"/>
  <unicode hex="013D"/>
  <outline>
	<contour>
	  <point x="178" y="0" type="line"/>
	  <point x="935" y="0" type="line"/>
	  <point x="935" y="143" type="line"/>
	  <point x="348" y="143" type="line"/>
	  <point x="348" y="1343" type="line"/>
	  <point x="178" y="1343" type="line"/>
	</contour>
	<contour>
	  <point x="759" y="1053" type="line"/>
	  <point x="786" y="1370" type="line"/>
	  <point x="789" y="1487" type="line"/>
	  <point x="669" y="1487" type="line"/>
	  <point x="677" y="1053" type="line"/>
	</contour>
  </outline>
</glyph>
<glyph name="lcaron" format="1">
  <advance width="541"/>
  <unicode hex="013E"/>
  <outline>
	<contour>
	  <point x="169" y="199" type="line"/>
	  <point x="169" y="54"/>
	  <point x="219" y="-25"/>
	  <point x="345" y="-25" type="curve" smooth="yes"/>
	  <point x="390" y="-25"/>
	  <point x="418" y="-18"/>
	  <point x="440" y="-8" type="curve"/>
	  <point x="418" y="117" type="line"/>
	  <point x="399" y="113"/>
	  <point x="391" y="113"/>
	  <point x="381" y="113" type="curve" smooth="yes"/>
	  <point x="356" y="113"/>
	  <point x="335" y="133"/>
	  <point x="335" y="186" type="curve" smooth="yes"/>
	  <point x="335" y="1458" type="line"/>
	  <point x="169" y="1458" type="line"/>
	</contour>
	<contour>
	  <point x="535" y="1122" type="line"/>
	  <point x="563" y="1440" type="line"/>
	  <point x="563" y="1556" type="line"/>
	  <point x="445" y="1556" type="line"/>
	  <point x="452" y="1122" type="line"/>
	</contour>
  </outline>
</glyph>
<glyph name="Ldot" format="1">
  <advance width="983"/>
  <unicode hex="013F"/>
  <outline>
	<contour>
	  <point x="178" y="0" type="line"/>
	  <point x="935" y="0" type="line"/>
	  <point x="935" y="143" type="line"/>
	  <point x="348" y="143" type="line"/>
	  <point x="348" y="1343" type="line"/>
	  <point x="178" y="1343" type="line"/>
	</contour>
	<contour>
	  <point x="645" y="666" type="curve" smooth="yes"/>
	  <point x="645" y="590"/>
	  <point x="699" y="540"/>
	  <point x="765" y="540" type="curve" smooth="yes"/>
	  <point x="832" y="540"/>
	  <point x="887" y="590"/>
	  <point x="887" y="666" type="curve" smooth="yes"/>
	  <point x="887" y="742"/>
	  <point x="832" y="794"/>
	  <point x="765" y="794" type="curve" smooth="yes"/>
	  <point x="699" y="794"/>
	  <point x="645" y="742"/>
	</contour>
  </outline>
</glyph>
<glyph name="ldot" format="1">
  <advance width="738"/>
  <unicode hex="0140"/>
  <outline>
	<contour>
	  <point x="169" y="199" type="line"/>
	  <point x="169" y="54"/>
	  <point x="219" y="-25"/>
	  <point x="345" y="-25" type="curve" smooth="yes"/>
	  <point x="390" y="-25"/>
	  <point x="418" y="-18"/>
	  <point x="440" y="-8" type="curve"/>
	  <point x="418" y="117" type="line"/>
	  <point x="399" y="113"/>
	  <point x="391" y="113"/>
	  <point x="381" y="113" type="curve" smooth="yes"/>
	  <point x="356" y="113"/>
	  <point x="335" y="133"/>
	  <point x="335" y="186" type="curve" smooth="yes"/>
	  <point x="335" y="1458" type="line"/>
	  <point x="169" y="1458" type="line"/>
	</contour>
	<contour>
	  <point x="499" y="666" type="curve" smooth="yes"/>
	  <point x="499" y="590"/>
	  <point x="554" y="540"/>
	  <point x="619" y="540" type="curve" smooth="yes"/>
	  <point x="686" y="540"/>
	  <point x="740" y="590"/>
	  <point x="740" y="666" type="curve" smooth="yes"/>
	  <point x="740" y="742"/>
	  <point x="686" y="794"/>
	  <point x="619" y="794" type="curve" smooth="yes"/>
	  <point x="554" y="794"/>
	  <point x="499" y="742"/>
	</contour>
  </outline>
</glyph>
<glyph name="uni0145" format="1">
  <advance width="1314"/>
  <unicode hex="0145"/>
  <outline>
	<contour>
	  <point x="178" y="0" type="line"/>
	  <point x="338" y="0" type="line"/>
	  <point x="338" y="705" type="line"/>
	  <point x="338" y="847"/>
	  <point x="327" y="990"/>
	  <point x="318" y="1125" type="curve"/>
	  <point x="327" y="1125" type="line"/>
	  <point x="472" y="849" type="line"/>
	  <point x="959" y="0" type="line"/>
	  <point x="1134" y="0" type="line"/>
	  <point x="1134" y="1343" type="line"/>
	  <point x="974" y="1343" type="line"/>
	  <point x="974" y="646" type="line"/>
	  <point x="974" y="505"/>
	  <point x="988" y="354"/>
	  <point x="996" y="219" type="curve"/>
	  <point x="988" y="219" type="line"/>
	  <point x="842" y="497" type="line"/>
	  <point x="352" y="1343" type="line"/>
	  <point x="178" y="1343" type="line"/>
	</contour>
	<contour>
	  <point x="606" y="-98" type="curve"/>
	  <point x="569" y="-176" type="line"/>
	  <point x="629" y="-190"/>
	  <point x="674" y="-213"/>
	  <point x="674" y="-266" type="curve" smooth="yes"/>
	  <point x="674" y="-319"/>
	  <point x="600" y="-346"/>
	  <point x="494" y="-360" type="curve"/>
	  <point x="510" y="-442" type="line"/>
	  <point x="663" y="-430"/>
	  <point x="804" y="-375"/>
	  <point x="804" y="-256" type="curve" smooth="yes"/>
	  <point x="804" y="-164"/>
	  <point x="744" y="-119"/>
	</contour>
  </outline>
</glyph>
<glyph name="uni0146" format="1">
  <advance width="1119"/>
  <unicode hex="0146"/>
  <outline>
	<contour>
	  <point x="169" y="0" type="line"/>
	  <point x="335" y="0" type="line"/>
	  <point x="335" y="722" type="line"/>
	  <point x="435" y="822"/>
	  <point x="505" y="875"/>
	  <point x="608" y="875" type="curve" smooth="yes"/>
	  <point x="740" y="875"/>
	  <point x="798" y="796"/>
	  <point x="798" y="608" type="curve" smooth="yes"/>
	  <point x="798" y="0" type="line"/>
	  <point x="964" y="0" type="line"/>
	  <point x="964" y="631" type="line"/>
	  <point x="964" y="885"/>
	  <point x="869" y="1020"/>
	  <point x="661" y="1020" type="curve" smooth="yes"/>
	  <point x="523" y="1020"/>
	  <point x="421" y="946"/>
	  <point x="327" y="851" type="curve"/>
	  <point x="321" y="851" type="line"/>
	  <point x="306" y="995" type="line"/>
	  <point x="169" y="995" type="line"/>
	</contour>
	<contour>
	  <point x="512" y="-98" type="curve"/>
	  <point x="475" y="-176" type="line"/>
	  <point x="532" y="-190"/>
	  <point x="580" y="-213"/>
	  <point x="580" y="-266" type="curve" smooth="yes"/>
	  <point x="580" y="-319"/>
	  <point x="506" y="-346"/>
	  <point x="397" y="-360" type="curve"/>
	  <point x="414" y="-442" type="line"/>
	  <point x="569" y="-430"/>
	  <point x="710" y="-375"/>
	  <point x="710" y="-256" type="curve" smooth="yes"/>
	  <point x="710" y="-164"/>
	  <point x="648" y="-119"/>
	</contour>
  </outline>
</glyph>
<glyph name="napostrophe" format="1">
  <advance width="1584"/>
  <unicode hex="0149"/>
  <outline>
	<contour>
	  <point x="175" y="885" type="line"/>
	  <point x="316" y="967"/>
	  <point x="393" y="1083"/>
	  <point x="393" y="1246" type="curve" smooth="yes"/>
	  <point x="393" y="1365"/>
	  <point x="345" y="1432"/>
	  <point x="265" y="1432" type="curve" smooth="yes"/>
	  <point x="203" y="1432"/>
	  <point x="158" y="1389"/>
	  <point x="158" y="1318" type="curve" smooth="yes"/>
	  <point x="158" y="1252"/>
	  <point x="209" y="1216"/>
	  <point x="265" y="1216" type="curve" smooth="yes"/>
	  <point x="271" y="1216"/>
	  <point x="275" y="1216"/>
	  <point x="282" y="1219" type="curve"/>
	  <point x="282" y="1100"/>
	  <point x="230" y="1030"/>
	  <point x="129" y="963" type="curve"/>
	</contour>
	<contour>
	  <point x="773" y="851" type="line"/>
	  <point x="759" y="995" type="line"/>
	  <point x="622" y="995" type="line"/>
	  <point x="622" y="0" type="line"/>
	  <point x="790" y="0" type="line"/>
	  <point x="790" y="722" type="line"/>
	  <point x="888" y="822"/>
	  <point x="961" y="875"/>
	  <point x="1061" y="875" type="curve" smooth="yes"/>
	  <point x="1195" y="875"/>
	  <point x="1250" y="796"/>
	  <point x="1250" y="608" type="curve" smooth="yes"/>
	  <point x="1250" y="0" type="line"/>
	  <point x="1416" y="0" type="line"/>
	  <point x="1416" y="631" type="line"/>
	  <point x="1416" y="885"/>
	  <point x="1322" y="1020"/>
	  <point x="1113" y="1020" type="curve" smooth="yes"/>
	  <point x="976" y="1020"/>
	  <point x="874" y="946"/>
	  <point x="779" y="851" type="curve"/>
	</contour>
  </outline>
</glyph>
<glyph name="omacron" format="1">
  <advance width="1109"/>
  <unicode hex="014D"/>
  <outline>
	<contour>
	  <point x="94" y="496" type="curve" smooth="yes"/>
	  <point x="94" y="166"/>
	  <point x="311" y="-25"/>
	  <point x="555" y="-25" type="curve" smooth="yes"/>
	  <point x="799" y="-25"/>
	  <point x="1015" y="166"/>
	  <point x="1015" y="496" type="curve" smooth="yes"/>
	  <point x="1015" y="829"/>
	  <point x="799" y="1020"/>
	  <point x="555" y="1020" type="curve" smooth="yes"/>
	  <point x="311" y="1020"/>
	  <point x="94" y="829"/>
	</contour>
	<contour>
	  <point x="266" y="496" type="curve" smooth="yes"/>
	  <point x="266" y="726"/>
	  <point x="384" y="882"/>
	  <point x="555" y="882" type="curve" smooth="yes"/>
	  <point x="727" y="882"/>
	  <point x="843" y="726"/>
	  <point x="843" y="496" type="curve" smooth="yes"/>
	  <point x="843" y="267"/>
	  <point x="727" y="113"/>
	  <point x="555" y="113" type="curve" smooth="yes"/>
	  <point x="384" y="113"/>
	  <point x="266" y="267"/>
	</contour>
	<contour>
	  <point x="305" y="1231" type="line"/>
	  <point x="806" y="1231" type="line"/>
	  <point x="806" y="1347" type="line"/>
	  <point x="305" y="1347" type="line"/>
	</contour>
  </outline>
</glyph>
<glyph name="uni014E" format="1">
  <advance width="1349"/>
  <unicode hex="014E"/>
  <outline>
	<contour>
	  <point x="676" y="-25" type="curve" smooth="yes"/>
	  <point x="1011" y="-25"/>
	  <point x="1248" y="246"/>
	  <point x="1248" y="678" type="curve" smooth="yes"/>
	  <point x="1248" y="1106"/>
	  <point x="1011" y="1368"/>
	  <point x="676" y="1368" type="curve" smooth="yes"/>
	  <point x="338" y="1368"/>
	  <point x="100" y="1108"/>
	  <point x="100" y="678" type="curve" smooth="yes"/>
	  <point x="100" y="246"/>
	  <point x="338" y="-25"/>
	</contour>
	<contour>
	  <point x="676" y="123" type="curve" smooth="yes"/>
	  <point x="433" y="123"/>
	  <point x="274" y="341"/>
	  <point x="274" y="678" type="curve" smooth="yes"/>
	  <point x="274" y="1013"/>
	  <point x="433" y="1221"/>
	  <point x="676" y="1221" type="curve" smooth="yes"/>
	  <point x="915" y="1221"/>
	  <point x="1074" y="1013"/>
	  <point x="1074" y="678" type="curve" smooth="yes"/>
	  <point x="1074" y="341"/>
	  <point x="915" y="123"/>
	</contour>
	<contour>
	  <point x="676" y="1450" type="curve" smooth="yes"/>
	  <point x="837" y="1450"/>
	  <point x="912" y="1561"/>
	  <point x="927" y="1675" type="curve"/>
	  <point x="823" y="1675" type="line"/>
	  <point x="811" y="1610"/>
	  <point x="768" y="1545"/>
	  <point x="676" y="1545" type="curve" smooth="yes"/>
	  <point x="581" y="1545"/>
	  <point x="538" y="1610"/>
	  <point x="525" y="1675" type="curve"/>
	  <point x="424" y="1675" type="line"/>
	  <point x="436" y="1561"/>
	  <point x="512" y="1450"/>
	</contour>
  </outline>
</glyph>
<glyph name="uni014F" format="1">
  <advance width="1109"/>
  <unicode hex="014F"/>
  <outline>
	<contour>
	  <point x="94" y="496" type="curve" smooth="yes"/>
	  <point x="94" y="166"/>
	  <point x="311" y="-25"/>
	  <point x="555" y="-25" type="curve" smooth="yes"/>
	  <point x="799" y="-25"/>
	  <point x="1015" y="166"/>
	  <point x="1015" y="496" type="curve" smooth="yes"/>
	  <point x="1015" y="829"/>
	  <point x="799" y="1020"/>
	  <point x="555" y="1020" type="curve" smooth="yes"/>
	  <point x="311" y="1020"/>
	  <point x="94" y="829"/>
	</contour>
	<contour>
	  <point x="266" y="496" type="curve" smooth="yes"/>
	  <point x="266" y="726"/>
	  <point x="384" y="882"/>
	  <point x="555" y="882" type="curve" smooth="yes"/>
	  <point x="727" y="882"/>
	  <point x="843" y="726"/>
	  <point x="843" y="496" type="curve" smooth="yes"/>
	  <point x="843" y="267"/>
	  <point x="727" y="113"/>
	  <point x="555" y="113" type="curve" smooth="yes"/>
	  <point x="384" y="113"/>
	  <point x="266" y="267"/>
	</contour>
	<contour>
	  <point x="555" y="1178" type="curve" smooth="yes"/>
	  <point x="731" y="1178"/>
	  <point x="804" y="1317"/>
	  <point x="812" y="1438" type="curve"/>
	  <point x="709" y="1438" type="line"/>
	  <point x="698" y="1357"/>
	  <point x="651" y="1281"/>
	  <point x="555" y="1281" type="curve" smooth="yes"/>
	  <point x="458" y="1281"/>
	  <point x="411" y="1357"/>
	  <point x="400" y="1438" type="curve"/>
	  <point x="297" y="1438" type="line"/>
	  <point x="305" y="1317"/>
	  <point x="379" y="1178"/>
	</contour>
  </outline>
</glyph>
<glyph name="ohungarumlaut" format="1">
  <advance width="1109"/>
  <unicode hex="0151"/>
  <outline>
	<contour>
	  <point x="94" y="496" type="curve" smooth="yes"/>
	  <point x="94" y="166"/>
	  <point x="311" y="-25"/>
	  <point x="555" y="-25" type="curve" smooth="yes"/>
	  <point x="799" y="-25"/>
	  <point x="1015" y="166"/>
	  <point x="1015" y="496" type="curve" smooth="yes"/>
	  <point x="1015" y="829"/>
	  <point x="799" y="1020"/>
	  <point x="555" y="1020" type="curve" smooth="yes"/>
	  <point x="311" y="1020"/>
	  <point x="94" y="829"/>
	</contour>
	<contour>
	  <point x="266" y="496" type="curve" smooth="yes"/>
	  <point x="266" y="726"/>
	  <point x="384" y="882"/>
	  <point x="555" y="882" type="curve" smooth="yes"/>
	  <point x="727" y="882"/>
	  <point x="843" y="726"/>
	  <point x="843" y="496" type="curve" smooth="yes"/>
	  <point x="843" y="267"/>
	  <point x="727" y="113"/>
	  <point x="555" y="113" type="curve" smooth="yes"/>
	  <point x="384" y="113"/>
	  <point x="266" y="267"/>
	</contour>
	<contour>
	  <point x="355" y="1169" type="line"/>
	  <point x="501" y="1462" type="line"/>
	  <point x="646" y="1462" type="line"/>
	  <point x="467" y="1169" type="line"/>
	</contour>
	<contour>
	  <point x="655" y="1169" type="line"/>
	  <point x="767" y="1169" type="line"/>
	  <point x="947" y="1462" type="line"/>
	  <point x="801" y="1462" type="line"/>
	</contour>
  </outline>
</glyph>
<glyph name="OE" format="1">
  <advance width="1723"/>
  <unicode hex="0152"/>
  <outline>
	<contour>
	  <point x="100" y="678" type="curve" smooth="yes"/>
	  <point x="100" y="251"/>
	  <point x="341" y="0"/>
	  <point x="750" y="0" type="curve" smooth="yes"/>
	  <point x="1629" y="0" type="line"/>
	  <point x="1629" y="143" type="line"/>
	  <point x="1038" y="143" type="line"/>
	  <point x="1038" y="634" type="line"/>
	  <point x="1515" y="634" type="line"/>
	  <point x="1515" y="777" type="line"/>
	  <point x="1038" y="777" type="line"/>
	  <point x="1038" y="1202" type="line"/>
	  <point x="1609" y="1202" type="line"/>
	  <point x="1609" y="1343" type="line"/>
	  <point x="758" y="1343" type="line"/>
	  <point x="341" y="1343"/>
	  <point x="100" y="1104"/>
	</contour>
	<contour>
	  <point x="274" y="678" type="curve" smooth="yes"/>
	  <point x="274" y="1018"/>
	  <point x="444" y="1206"/>
	  <point x="770" y="1206" type="curve" smooth="yes"/>
	  <point x="868" y="1206" type="line"/>
	  <point x="868" y="137" type="line"/>
	  <point x="770" y="137" type="line"/>
	  <point x="444" y="137"/>
	  <point x="274" y="336"/>
	</contour>
	<contour>
	  <point x="1083" y="1389" type="move" name="mark0"/>
	</contour>
  </outline>
</glyph>
<glyph name="Racute" format="1">
  <advance width="1178"/>
  <unicode hex="0154"/>
  <outline>
	<contour>
	  <point x="863" y="1675" type="line"/>
	  <point x="672" y="1675" type="line"/>
	  <point x="492" y="1446" type="line"/>
	  <point x="632" y="1446" type="line"/>
	</contour>
	<contour>
	  <point x="348" y="1208" type="line"/>
	  <point x="574" y="1208" type="line"/>
	  <point x="784" y="1208"/>
	  <point x="900" y="1144"/>
	  <point x="900" y="968" type="curve" smooth="yes"/>
	  <point x="900" y="793"/>
	  <point x="784" y="707"/>
	  <point x="574" y="707" type="curve" smooth="yes"/>
	  <point x="348" y="707" type="line"/>
	</contour>
	<contour>
	  <point x="1108" y="0" type="line"/>
	  <point x="766" y="587" type="line"/>
	  <point x="948" y="634"/>
	  <point x="1068" y="759"/>
	  <point x="1068" y="968" type="curve" smooth="yes"/>
	  <point x="1068" y="1245"/>
	  <point x="871" y="1343"/>
	  <point x="599" y="1343" type="curve" smooth="yes"/>
	  <point x="178" y="1343" type="line"/>
	  <point x="178" y="0" type="line"/>
	  <point x="348" y="0" type="line"/>
	  <point x="348" y="568" type="line"/>
	  <point x="592" y="568" type="line"/>
	  <point x="916" y="0" type="line"/>
	</contour>
  </outline>
</glyph>
<glyph name="racute" format="1">
  <advance width="709"/>
  <unicode hex="0155"/>
  <outline>
	<contour>
	  <point x="169" y="0" type="line"/>
	  <point x="335" y="0" type="line"/>
	  <point x="335" y="640" type="line"/>
	  <point x="402" y="808"/>
	  <point x="503" y="869"/>
	  <point x="587" y="869" type="curve" smooth="yes"/>
	  <point x="628" y="869"/>
	  <point x="650" y="863"/>
	  <point x="683" y="853" type="curve"/>
	  <point x="715" y="999" type="line"/>
	  <point x="682" y="1014"/>
	  <point x="652" y="1020"/>
	  <point x="609" y="1020" type="curve" smooth="yes"/>
	  <point x="497" y="1020"/>
	  <point x="394" y="940"/>
	  <point x="327" y="815" type="curve"/>
	  <point x="321" y="815" type="line"/>
	  <point x="306" y="995" type="line"/>
	  <point x="169" y="995" type="line"/>
	</contour>
	<contour>
	  <point x="670" y="1462" type="line"/>
	  <point x="498" y="1462" type="line"/>
	  <point x="311" y="1174" type="line"/>
	  <point x="440" y="1174" type="line"/>
	</contour>
  </outline>
</glyph>
<glyph name="uni0156" format="1">
  <advance width="1178"/>
  <unicode hex="0156"/>
  <outline>
	<contour>
	  <point x="532" y="-176" type="line"/>
	  <point x="590" y="-190"/>
	  <point x="637" y="-213"/>
	  <point x="637" y="-266" type="curve" smooth="yes"/>
	  <point x="637" y="-319"/>
	  <point x="561" y="-346"/>
	  <point x="455" y="-360" type="curve"/>
	  <point x="471" y="-442" type="line"/>
	  <point x="626" y="-430"/>
	  <point x="767" y="-375"/>
	  <point x="767" y="-256" type="curve" smooth="yes"/>
	  <point x="767" y="-164"/>
	  <point x="706" y="-119"/>
	  <point x="569" y="-98" type="curve"/>
	</contour>
	<contour>
	  <point x="348" y="1208" type="line"/>
	  <point x="574" y="1208" type="line"/>
	  <point x="784" y="1208"/>
	  <point x="900" y="1144"/>
	  <point x="900" y="968" type="curve" smooth="yes"/>
	  <point x="900" y="793"/>
	  <point x="784" y="707"/>
	  <point x="574" y="707" type="curve" smooth="yes"/>
	  <point x="348" y="707" type="line"/>
	</contour>
	<contour>
	  <point x="766" y="587" type="line"/>
	  <point x="948" y="634"/>
	  <point x="1068" y="759"/>
	  <point x="1068" y="968" type="curve" smooth="yes"/>
	  <point x="1068" y="1245"/>
	  <point x="871" y="1343"/>
	  <point x="599" y="1343" type="curve" smooth="yes"/>
	  <point x="178" y="1343" type="line"/>
	  <point x="178" y="0" type="line"/>
	  <point x="348" y="0" type="line"/>
	  <point x="348" y="568" type="line"/>
	  <point x="592" y="568" type="line"/>
	  <point x="916" y="0" type="line"/>
	  <point x="1108" y="0" type="line"/>
	</contour>
  </outline>
</glyph>
<glyph name="uni0157" format="1">
  <advance width="709"/>
  <unicode hex="0157"/>
  <outline>
	<contour>
	  <point x="169" y="0" type="line"/>
	  <point x="335" y="0" type="line"/>
	  <point x="335" y="640" type="line"/>
	  <point x="402" y="808"/>
	  <point x="503" y="869"/>
	  <point x="587" y="869" type="curve" smooth="yes"/>
	  <point x="628" y="869"/>
	  <point x="650" y="863"/>
	  <point x="683" y="853" type="curve"/>
	  <point x="715" y="999" type="line"/>
	  <point x="682" y="1014"/>
	  <point x="652" y="1020"/>
	  <point x="609" y="1020" type="curve" smooth="yes"/>
	  <point x="497" y="1020"/>
	  <point x="394" y="940"/>
	  <point x="327" y="815" type="curve"/>
	  <point x="321" y="815" type="line"/>
	  <point x="306" y="995" type="line"/>
	  <point x="169" y="995" type="line"/>
	</contour>
	<contour>
	  <point x="188" y="-98" type="curve"/>
	  <point x="152" y="-176" type="line"/>
	  <point x="211" y="-190"/>
	  <point x="256" y="-213"/>
	  <point x="256" y="-266" type="curve" smooth="yes"/>
	  <point x="256" y="-319"/>
	  <point x="182" y="-346"/>
	  <point x="76" y="-360" type="curve"/>
	  <point x="92" y="-442" type="line"/>
	  <point x="245" y="-430"/>
	  <point x="386" y="-375"/>
	  <point x="386" y="-256" type="curve" smooth="yes"/>
	  <point x="386" y="-164"/>
	  <point x="327" y="-119"/>
	</contour>
  </outline>
</glyph>
<glyph name="rcaron" format="1">
  <advance width="709"/>
  <unicode hex="0159"/>
  <outline>
	<contour>
	  <point x="169" y="0" type="line"/>
	  <point x="335" y="0" type="line"/>
	  <point x="335" y="640" type="line"/>
	  <point x="402" y="808"/>
	  <point x="503" y="869"/>
	  <point x="587" y="869" type="curve" smooth="yes"/>
	  <point x="628" y="869"/>
	  <point x="650" y="863"/>
	  <point x="683" y="853" type="curve"/>
	  <point x="715" y="999" type="line"/>
	  <point x="682" y="1014"/>
	  <point x="652" y="1020"/>
	  <point x="609" y="1020" type="curve" smooth="yes"/>
	  <point x="497" y="1020"/>
	  <point x="394" y="940"/>
	  <point x="327" y="815" type="curve"/>
	  <point x="321" y="815" type="line"/>
	  <point x="306" y="995" type="line"/>
	  <point x="169" y="995" type="line"/>
	</contour>
	<contour>
	  <point x="377" y="1174" type="line"/>
	  <point x="512" y="1174" type="line"/>
	  <point x="707" y="1462" type="line"/>
	  <point x="587" y="1462" type="line"/>
	  <point x="450" y="1273" type="line"/>
	  <point x="441" y="1273" type="line"/>
	  <point x="304" y="1462" type="line"/>
	  <point x="182" y="1462" type="line"/>
	</contour>
  </outline>
</glyph>
<glyph name="Sacute" format="1">
  <advance width="1082"/>
  <unicode hex="015A"/>
  <outline>
	<contour>
	  <point x="82" y="174" type="line"/>
	  <point x="199" y="53"/>
	  <point x="362" y="-25"/>
	  <point x="551" y="-25" type="curve" smooth="yes"/>
	  <point x="833" y="-25"/>
	  <point x="1009" y="145"/>
	  <point x="1009" y="357" type="curve" smooth="yes"/>
	  <point x="1009" y="557"/>
	  <point x="888" y="648"/>
	  <point x="732" y="716" type="curve" smooth="yes"/>
	  <point x="540" y="799" type="line"/>
	  <point x="435" y="844"/>
	  <point x="315" y="893"/>
	  <point x="315" y="1023" type="curve" smooth="yes"/>
	  <point x="315" y="1144"/>
	  <point x="417" y="1221"/>
	  <point x="569" y="1221" type="curve" smooth="yes"/>
	  <point x="692" y="1221"/>
	  <point x="793" y="1171"/>
	  <point x="874" y="1093" type="curve"/>
	  <point x="964" y="1202" type="line"/>
	  <point x="869" y="1300"/>
	  <point x="729" y="1368"/>
	  <point x="569" y="1368" type="curve" smooth="yes"/>
	  <point x="326" y="1368"/>
	  <point x="145" y="1218"/>
	  <point x="145" y="1013" type="curve" smooth="yes"/>
	  <point x="145" y="816"/>
	  <point x="294" y="720"/>
	  <point x="418" y="667" type="curve" smooth="yes"/>
	  <point x="611" y="583" type="line"/>
	  <point x="738" y="525"/>
	  <point x="837" y="481"/>
	  <point x="837" y="344" type="curve" smooth="yes"/>
	  <point x="837" y="212"/>
	  <point x="731" y="123"/>
	  <point x="555" y="123" type="curve" smooth="yes"/>
	  <point x="413" y="123"/>
	  <point x="280" y="191"/>
	  <point x="183" y="292" type="curve"/>
	</contour>
	<contour>
	  <point x="833" y="1675" type="line"/>
	  <point x="642" y="1675" type="line"/>
	  <point x="461" y="1446" type="line"/>
	  <point x="601" y="1446" type="line"/>
	</contour>
  </outline>
</glyph>
<glyph name="scircumflex" format="1">
  <advance width="857"/>
  <unicode hex="015D"/>
  <outline>
	<contour>
	  <point x="57" y="113" type="line"/>
	  <point x="152" y="35"/>
	  <point x="287" y="-25"/>
	  <point x="428" y="-25" type="curve" smooth="yes"/>
	  <point x="663" y="-25"/>
	  <point x="792" y="111"/>
	  <point x="792" y="271" type="curve" smooth="yes"/>
	  <point x="792" y="461"/>
	  <point x="632" y="519"/>
	  <point x="488" y="572" type="curve" smooth="yes"/>
	  <point x="376" y="615"/>
	  <point x="266" y="653"/>
	  <point x="266" y="745" type="curve" smooth="yes"/>
	  <point x="266" y="822"/>
	  <point x="325" y="890"/>
	  <point x="450" y="890" type="curve" smooth="yes"/>
	  <point x="539" y="890"/>
	  <point x="610" y="853"/>
	  <point x="678" y="802" type="curve"/>
	  <point x="757" y="907" type="line"/>
	  <point x="681" y="969"/>
	  <point x="572" y="1020"/>
	  <point x="449" y="1020" type="curve" smooth="yes"/>
	  <point x="233" y="1020"/>
	  <point x="106" y="897"/>
	  <point x="106" y="737" type="curve" smooth="yes"/>
	  <point x="106" y="569"/>
	  <point x="262" y="502"/>
	  <point x="404" y="451" type="curve" smooth="yes"/>
	  <point x="513" y="410"/>
	  <point x="632" y="365"/>
	  <point x="632" y="262" type="curve" smooth="yes"/>
	  <point x="632" y="175"/>
	  <point x="566" y="105"/>
	  <point x="434" y="105" type="curve" smooth="yes"/>
	  <point x="314" y="105"/>
	  <point x="226" y="155"/>
	  <point x="140" y="224" type="curve"/>
	</contour>
	<contour>
	  <point x="186" y="1174" type="line"/>
	  <point x="308" y="1174" type="line"/>
	  <point x="446" y="1360" type="line"/>
	  <point x="455" y="1360" type="line"/>
	  <point x="592" y="1174" type="line"/>
	  <point x="712" y="1174" type="line"/>
	  <point x="519" y="1462" type="line"/>
	  <point x="381" y="1462" type="line"/>
	</contour>
  </outline>
</glyph>
<glyph name="Tcaron" format="1">
  <advance width="1086"/>
  <unicode hex="0164"/>
  <outline>
	<contour>
	  <point x="460" y="0" type="line"/>
	  <point x="628" y="0" type="line"/>
	  <point x="628" y="1202" type="line"/>
	  <point x="1035" y="1202" type="line"/>
	  <point x="1035" y="1343" type="line"/>
	  <point x="51" y="1343" type="line"/>
	  <point x="51" y="1202" type="line"/>
	  <point x="460" y="1202" type="line"/>
	</contour>
	<contour>
	  <point x="684" y="1675" type="line"/>
	  <point x="547" y="1536" type="line"/>
	  <point x="539" y="1536" type="line"/>
	  <point x="400" y="1675" type="line"/>
	  <point x="265" y="1675" type="line"/>
	  <point x="462" y="1446" type="line"/>
	  <point x="624" y="1446" type="line"/>
	  <point x="820" y="1675" type="line"/>
	</contour>
  </outline>
</glyph>
<glyph name="tcaron" format="1">
  <advance width="690"/>
  <unicode hex="0165"/>
  <outline>
	<contour>
	  <point x="197" y="306" type="line"/>
	  <point x="197" y="111"/>
	  <point x="268" y="-25"/>
	  <point x="480" y="-25" type="curve" smooth="yes"/>
	  <point x="542" y="-25"/>
	  <point x="609" y="-6"/>
	  <point x="665" y="12" type="curve"/>
	  <point x="632" y="138" type="line"/>
	  <point x="599" y="126"/>
	  <point x="554" y="112"/>
	  <point x="519" y="112" type="curve" smooth="yes"/>
	  <point x="404" y="112"/>
	  <point x="365" y="181"/>
	  <point x="365" y="304" type="curve" smooth="yes"/>
	  <point x="365" y="859" type="line"/>
	  <point x="634" y="859" type="line"/>
	  <point x="634" y="995" type="line"/>
	  <point x="365" y="995" type="line"/>
	  <point x="365" y="1274" type="line"/>
	  <point x="225" y="1274" type="line"/>
	  <point x="205" y="995" type="line"/>
	  <point x="49" y="985" type="line"/>
	  <point x="49" y="859" type="line"/>
	  <point x="197" y="859" type="line"/>
	</contour>
	<contour>
	  <point x="607" y="1122" type="line"/>
	  <point x="635" y="1440" type="line"/>
	  <point x="637" y="1556" type="line"/>
	  <point x="517" y="1556" type="line"/>
	  <point x="523" y="1122" type="line"/>
	</contour>
  </outline>
</glyph>
<glyph name="Utilde" format="1">
  <advance width="1310"/>
  <unicode hex="0168"/>
  <outline>
	<contour>
	  <point x="172" y="554" type="line"/>
	  <point x="172" y="122"/>
	  <point x="382" y="-25"/>
	  <point x="655" y="-25" type="curve" smooth="yes"/>
	  <point x="929" y="-25"/>
	  <point x="1138" y="122"/>
	  <point x="1138" y="554" type="curve" smooth="yes"/>
	  <point x="1138" y="1343" type="line"/>
	  <point x="976" y="1343" type="line"/>
	  <point x="976" y="550" type="line"/>
	  <point x="976" y="226"/>
	  <point x="834" y="123"/>
	  <point x="655" y="123" type="curve" smooth="yes"/>
	  <point x="480" y="123"/>
	  <point x="342" y="226"/>
	  <point x="342" y="550" type="curve" smooth="yes"/>
	  <point x="342" y="1343" type="line"/>
	  <point x="172" y="1343" type="line"/>
	</contour>
	<contour>
	  <point x="778" y="1456" type="curve" smooth="yes"/>
	  <point x="876" y="1456"/>
	  <point x="939" y="1552"/>
	  <point x="951" y="1676" type="curve"/>
	  <point x="858" y="1676" type="line"/>
	  <point x="848" y="1609"/>
	  <point x="817" y="1570"/>
	  <point x="776" y="1570" type="curve" smooth="yes"/>
	  <point x="700" y="1570"/>
	  <point x="641" y="1676"/>
	  <point x="532" y="1676" type="curve" smooth="yes"/>
	  <point x="434" y="1676"/>
	  <point x="371" y="1582"/>
	  <point x="360" y="1456" type="curve"/>
	  <point x="453" y="1456" type="line"/>
	  <point x="464" y="1526"/>
	  <point x="496" y="1564"/>
	  <point x="537" y="1564" type="curve" smooth="yes"/>
	  <point x="612" y="1564"/>
	  <point x="672" y="1456"/>
	</contour>
  </outline>
</glyph>
<glyph name="utilde" format="1">
  <advance width="1113"/>
  <unicode hex="0169"/>
  <outline>
	<contour>
	  <point x="155" y="365" type="line"/>
	  <point x="155" y="111"/>
	  <point x="249" y="-25"/>
	  <point x="459" y="-25" type="curve" smooth="yes"/>
	  <point x="596" y="-25"/>
	  <point x="694" y="47"/>
	  <point x="786" y="156" type="curve"/>
	  <point x="793" y="156" type="line"/>
	  <point x="807" y="0" type="line"/>
	  <point x="945" y="0" type="line"/>
	  <point x="945" y="995" type="line"/>
	  <point x="779" y="995" type="line"/>
	  <point x="779" y="288" type="line"/>
	  <point x="684" y="171"/>
	  <point x="612" y="119"/>
	  <point x="509" y="119" type="curve" smooth="yes"/>
	  <point x="378" y="119"/>
	  <point x="322" y="200"/>
	  <point x="322" y="386" type="curve" smooth="yes"/>
	  <point x="322" y="995" type="line"/>
	  <point x="155" y="995" type="line"/>
	</contour>
	<contour>
	  <point x="272" y="1186" type="curve"/>
	  <point x="369" y="1186" type="line"/>
	  <point x="379" y="1255"/>
	  <point x="402" y="1290"/>
	  <point x="442" y="1290" type="curve" smooth="yes"/>
	  <point x="512" y="1290"/>
	  <point x="573" y="1186"/>
	  <point x="675" y="1186" type="curve" smooth="yes"/>
	  <point x="777" y="1186"/>
	  <point x="830" y="1280"/>
	  <point x="843" y="1402" type="curve"/>
	  <point x="748" y="1402" type="line"/>
	  <point x="735" y="1332"/>
	  <point x="713" y="1297"/>
	  <point x="672" y="1297" type="curve" smooth="yes"/>
	  <point x="606" y="1297"/>
	  <point x="543" y="1402"/>
	  <point x="440" y="1402" type="curve" smooth="yes"/>
	  <point x="338" y="1402"/>
	  <point x="285" y="1308"/>
	</contour>
  </outline>
</glyph>
<glyph name="Umacron" format="1">
  <advance width="1310"/>
  <unicode hex="016A"/>
  <outline>
	<contour>
	  <point x="172" y="554" type="line"/>
	  <point x="172" y="122"/>
	  <point x="382" y="-25"/>
	  <point x="655" y="-25" type="curve" smooth="yes"/>
	  <point x="929" y="-25"/>
	  <point x="1138" y="122"/>
	  <point x="1138" y="554" type="curve" smooth="yes"/>
	  <point x="1138" y="1343" type="line"/>
	  <point x="976" y="1343" type="line"/>
	  <point x="976" y="550" type="line"/>
	  <point x="976" y="226"/>
	  <point x="834" y="123"/>
	  <point x="655" y="123" type="curve" smooth="yes"/>
	  <point x="480" y="123"/>
	  <point x="342" y="226"/>
	  <point x="342" y="550" type="curve" smooth="yes"/>
	  <point x="342" y="1343" type="line"/>
	  <point x="172" y="1343" type="line"/>
	</contour>
	<contour>
	  <point x="401" y="1493" type="line"/>
	  <point x="908" y="1493" type="line"/>
	  <point x="908" y="1609" type="line"/>
	  <point x="401" y="1609" type="line"/>
	</contour>
  </outline>
</glyph>
<glyph name="Ubreve" format="1">
  <advance width="1310"/>
  <unicode hex="016C"/>
  <outline>
	<contour>
	  <point x="172" y="554" type="line"/>
	  <point x="172" y="122"/>
	  <point x="382" y="-25"/>
	  <point x="655" y="-25" type="curve" smooth="yes"/>
	  <point x="929" y="-25"/>
	  <point x="1138" y="122"/>
	  <point x="1138" y="554" type="curve" smooth="yes"/>
	  <point x="1138" y="1343" type="line"/>
	  <point x="976" y="1343" type="line"/>
	  <point x="976" y="550" type="line"/>
	  <point x="976" y="226"/>
	  <point x="834" y="123"/>
	  <point x="655" y="123" type="curve" smooth="yes"/>
	  <point x="480" y="123"/>
	  <point x="342" y="226"/>
	  <point x="342" y="550" type="curve" smooth="yes"/>
	  <point x="342" y="1343" type="line"/>
	  <point x="172" y="1343" type="line"/>
	</contour>
	<contour>
	  <point x="655" y="1450" type="curve" smooth="yes"/>
	  <point x="818" y="1450"/>
	  <point x="894" y="1561"/>
	  <point x="906" y="1675" type="curve"/>
	  <point x="805" y="1675" type="line"/>
	  <point x="793" y="1610"/>
	  <point x="748" y="1545"/>
	  <point x="655" y="1545" type="curve" smooth="yes"/>
	  <point x="562" y="1545"/>
	  <point x="517" y="1610"/>
	  <point x="505" y="1675" type="curve"/>
	  <point x="403" y="1675" type="line"/>
	  <point x="418" y="1561"/>
	  <point x="492" y="1450"/>
	</contour>
  </outline>
</glyph>
<glyph name="ubreve" format="1">
  <advance width="1113"/>
  <unicode hex="016D"/>
  <outline>
	<contour>
	  <point x="155" y="365" type="line"/>
	  <point x="155" y="111"/>
	  <point x="249" y="-25"/>
	  <point x="459" y="-25" type="curve" smooth="yes"/>
	  <point x="596" y="-25"/>
	  <point x="694" y="47"/>
	  <point x="786" y="156" type="curve"/>
	  <point x="793" y="156" type="line"/>
	  <point x="807" y="0" type="line"/>
	  <point x="945" y="0" type="line"/>
	  <point x="945" y="995" type="line"/>
	  <point x="779" y="995" type="line"/>
	  <point x="779" y="288" type="line"/>
	  <point x="684" y="171"/>
	  <point x="612" y="119"/>
	  <point x="509" y="119" type="curve" smooth="yes"/>
	  <point x="378" y="119"/>
	  <point x="322" y="200"/>
	  <point x="322" y="386" type="curve" smooth="yes"/>
	  <point x="322" y="995" type="line"/>
	  <point x="155" y="995" type="line"/>
	</contour>
	<contour>
	  <point x="557" y="1178" type="curve" smooth="yes"/>
	  <point x="732" y="1178"/>
	  <point x="806" y="1317"/>
	  <point x="816" y="1438" type="curve"/>
	  <point x="713" y="1438" type="line"/>
	  <point x="700" y="1357"/>
	  <point x="653" y="1281"/>
	  <point x="557" y="1281" type="curve" smooth="yes"/>
	  <point x="462" y="1281"/>
	  <point x="413" y="1357"/>
	  <point x="402" y="1438" type="curve"/>
	  <point x="299" y="1438" type="line"/>
	  <point x="309" y="1317"/>
	  <point x="381" y="1178"/>
	</contour>
  </outline>
</glyph>
<glyph name="Uring" format="1">
  <advance width="1310"/>
  <unicode hex="016E"/>
  <outline>
	<contour>
	  <point x="172" y="554" type="line"/>
	  <point x="172" y="122"/>
	  <point x="382" y="-25"/>
	  <point x="655" y="-25" type="curve" smooth="yes"/>
	  <point x="929" y="-25"/>
	  <point x="1138" y="122"/>
	  <point x="1138" y="554" type="curve" smooth="yes"/>
	  <point x="1138" y="1343" type="line"/>
	  <point x="976" y="1343" type="line"/>
	  <point x="976" y="550" type="line"/>
	  <point x="976" y="226"/>
	  <point x="834" y="123"/>
	  <point x="655" y="123" type="curve" smooth="yes"/>
	  <point x="480" y="123"/>
	  <point x="342" y="226"/>
	  <point x="342" y="550" type="curve" smooth="yes"/>
	  <point x="342" y="1343" type="line"/>
	  <point x="172" y="1343" type="line"/>
	</contour>
	<contour>
	  <point x="655" y="1432" type="curve" smooth="yes"/>
	  <point x="763" y="1432"/>
	  <point x="847" y="1501"/>
	  <point x="847" y="1612" type="curve" smooth="yes"/>
	  <point x="847" y="1720"/>
	  <point x="763" y="1791"/>
	  <point x="655" y="1791" type="curve" smooth="yes"/>
	  <point x="545" y="1791"/>
	  <point x="465" y="1720"/>
	  <point x="465" y="1612" type="curve" smooth="yes"/>
	  <point x="465" y="1501"/>
	  <point x="545" y="1432"/>
	</contour>
	<contour>
	  <point x="655" y="1505" type="curve" smooth="yes"/>
	  <point x="601" y="1505"/>
	  <point x="556" y="1544"/>
	  <point x="556" y="1612" type="curve" smooth="yes"/>
	  <point x="556" y="1675"/>
	  <point x="601" y="1716"/>
	  <point x="655" y="1716" type="curve" smooth="yes"/>
	  <point x="709" y="1716"/>
	  <point x="752" y="1675"/>
	  <point x="752" y="1612" type="curve" smooth="yes"/>
	  <point x="752" y="1544"/>
	  <point x="709" y="1505"/>
	</contour>
  </outline>
</glyph>
<glyph name="uring" format="1">
  <advance width="1113"/>
  <unicode hex="016F"/>
  <outline>
	<contour>
	  <point x="155" y="365" type="line"/>
	  <point x="155" y="111"/>
	  <point x="249" y="-25"/>
	  <point x="459" y="-25" type="curve" smooth="yes"/>
	  <point x="596" y="-25"/>
	  <point x="694" y="47"/>
	  <point x="786" y="156" type="curve"/>
	  <point x="793" y="156" type="line"/>
	  <point x="807" y="0" type="line"/>
	  <point x="945" y="0" type="line"/>
	  <point x="945" y="995" type="line"/>
	  <point x="779" y="995" type="line"/>
	  <point x="779" y="288" type="line"/>
	  <point x="684" y="171"/>
	  <point x="612" y="119"/>
	  <point x="509" y="119" type="curve" smooth="yes"/>
	  <point x="378" y="119"/>
	  <point x="322" y="200"/>
	  <point x="322" y="386" type="curve" smooth="yes"/>
	  <point x="322" y="995" type="line"/>
	  <point x="155" y="995" type="line"/>
	</contour>
	<contour>
	  <point x="557" y="1110" type="curve" smooth="yes"/>
	  <point x="669" y="1110"/>
	  <point x="749" y="1186"/>
	  <point x="749" y="1299" type="curve" smooth="yes"/>
	  <point x="749" y="1412"/>
	  <point x="669" y="1488"/>
	  <point x="557" y="1488" type="curve" smooth="yes"/>
	  <point x="446" y="1488"/>
	  <point x="367" y="1412"/>
	  <point x="367" y="1299" type="curve" smooth="yes"/>
	  <point x="367" y="1186"/>
	  <point x="446" y="1110"/>
	</contour>
	<contour>
	  <point x="557" y="1185" type="curve" smooth="yes"/>
	  <point x="503" y="1185"/>
	  <point x="458" y="1230"/>
	  <point x="458" y="1299" type="curve" smooth="yes"/>
	  <point x="458" y="1368"/>
	  <point x="503" y="1413"/>
	  <point x="557" y="1413" type="curve" smooth="yes"/>
	  <point x="612" y="1413"/>
	  <point x="655" y="1368"/>
	  <point x="655" y="1299" type="curve" smooth="yes"/>
	  <point x="655" y="1230"/>
	  <point x="612" y="1185"/>
	</contour>
  </outline>
</glyph>
<glyph name="Uhungarumlaut" format="1">
  <advance width="1310"/>
  <unicode hex="0170"/>
  <outline>
	<contour>
	  <point x="172" y="554" type="line"/>
	  <point x="172" y="122"/>
	  <point x="382" y="-25"/>
	  <point x="655" y="-25" type="curve" smooth="yes"/>
	  <point x="929" y="-25"/>
	  <point x="1138" y="122"/>
	  <point x="1138" y="554" type="curve" smooth="yes"/>
	  <point x="1138" y="1343" type="line"/>
	  <point x="976" y="1343" type="line"/>
	  <point x="976" y="550" type="line"/>
	  <point x="976" y="226"/>
	  <point x="834" y="123"/>
	  <point x="655" y="123" type="curve" smooth="yes"/>
	  <point x="480" y="123"/>
	  <point x="342" y="226"/>
	  <point x="342" y="550" type="curve" smooth="yes"/>
	  <point x="342" y="1343" type="line"/>
	  <point x="172" y="1343" type="line"/>
	</contour>
	<contour>
	  <point x="554" y="1446" type="line"/>
	  <point x="724" y="1675" type="line"/>
	  <point x="568" y="1675" type="line"/>
	  <point x="433" y="1446" type="line"/>
	</contour>
	<contour>
	  <point x="756" y="1446" type="line"/>
	  <point x="878" y="1446" type="line"/>
	  <point x="1047" y="1675" type="line"/>
	  <point x="891" y="1675" type="line"/>
	</contour>
  </outline>
</glyph>
<glyph name="wcircumflex" format="1">
  <advance width="1468"/>
  <unicode hex="0175"/>
  <outline>
	<contour>
	  <point x="326" y="0" type="line"/>
	  <point x="520" y="0" type="line"/>
	  <point x="661" y="534" type="line"/>
	  <point x="687" y="629"/>
	  <point x="708" y="723"/>
	  <point x="730" y="823" type="curve"/>
	  <point x="738" y="823" type="line"/>
	  <point x="763" y="723"/>
	  <point x="781" y="631"/>
	  <point x="806" y="537" type="curve" smooth="yes"/>
	  <point x="950" y="0" type="line"/>
	  <point x="1153" y="0" type="line"/>
	  <point x="1419" y="995" type="line"/>
	  <point x="1262" y="995" type="line"/>
	  <point x="1115" y="418" type="line"/>
	  <point x="1095" y="324"/>
	  <point x="1076" y="234"/>
	  <point x="1054" y="141" type="curve"/>
	  <point x="1046" y="141" type="line"/>
	  <point x="1023" y="234"/>
	  <point x="1000" y="324"/>
	  <point x="976" y="418" type="curve" smooth="yes"/>
	  <point x="819" y="995" type="line"/>
	  <point x="657" y="995" type="line"/>
	  <point x="503" y="418" type="line"/>
	  <point x="478" y="326"/>
	  <point x="458" y="234"/>
	  <point x="435" y="141" type="curve"/>
	  <point x="427" y="141" type="line"/>
	  <point x="409" y="234"/>
	  <point x="390" y="324"/>
	  <point x="368" y="418" type="curve"/>
	  <point x="219" y="995" type="line"/>
	  <point x="49" y="995" type="line"/>
	</contour>
	<contour>
	  <point x="475" y="1174" type="line"/>
	  <point x="595" y="1174" type="line"/>
	  <point x="732" y="1360" type="line"/>
	  <point x="740" y="1360" type="line"/>
	  <point x="879" y="1174" type="line"/>
	  <point x="999" y="1174" type="line"/>
	  <point x="805" y="1462" type="line"/>
	  <point x="668" y="1462" type="line"/>
	</contour>
  </outline>
</glyph>
<glyph name="Ycircumflex" format="1">
  <advance width="963"/>
  <unicode hex="0176"/>
  <outline>
	<contour>
	  <point x="397" y="0" type="line"/>
	  <point x="565" y="0" type="line"/>
	  <point x="565" y="521" type="line"/>
	  <point x="969" y="1343" type="line"/>
	  <point x="795" y="1343" type="line"/>
	  <point x="621" y="964" type="line"/>
	  <point x="579" y="865"/>
	  <point x="531" y="771"/>
	  <point x="486" y="671" type="curve"/>
	  <point x="478" y="671" type="line"/>
	  <point x="431" y="771"/>
	  <point x="390" y="865"/>
	  <point x="347" y="964" type="curve" smooth="yes"/>
	  <point x="174" y="1343" type="line"/>
	  <point x="-8" y="1343" type="line"/>
	  <point x="397" y="521" type="line"/>
	</contour>
	<contour>
	  <point x="339" y="1446" type="line"/>
	  <point x="476" y="1585" type="line"/>
	  <point x="484" y="1585" type="line"/>
	  <point x="623" y="1446" type="line"/>
	  <point x="758" y="1446" type="line"/>
	  <point x="561" y="1675" type="line"/>
	  <point x="401" y="1675" type="line"/>
	  <point x="205" y="1446" type="line"/>
	</contour>
  </outline>
</glyph>
<glyph name="Ydieresis" format="1">
  <advance width="963"/>
  <unicode hex="0178"/>
  <outline>
	<contour>
	  <point x="397" y="0" type="line"/>
	  <point x="565" y="0" type="line"/>
	  <point x="565" y="521" type="line"/>
	  <point x="969" y="1343" type="line"/>
	  <point x="795" y="1343" type="line"/>
	  <point x="621" y="964" type="line"/>
	  <point x="579" y="865"/>
	  <point x="531" y="771"/>
	  <point x="486" y="671" type="curve"/>
	  <point x="478" y="671" type="line"/>
	  <point x="431" y="771"/>
	  <point x="390" y="865"/>
	  <point x="347" y="964" type="curve" smooth="yes"/>
	  <point x="174" y="1343" type="line"/>
	  <point x="-8" y="1343" type="line"/>
	  <point x="397" y="521" type="line"/>
	</contour>
	<contour>
	  <point x="305" y="1465" type="curve" smooth="yes"/>
	  <point x="361" y="1465"/>
	  <point x="405" y="1507"/>
	  <point x="405" y="1565" type="curve" smooth="yes"/>
	  <point x="405" y="1624"/>
	  <point x="361" y="1664"/>
	  <point x="305" y="1664" type="curve" smooth="yes"/>
	  <point x="248" y="1664"/>
	  <point x="205" y="1624"/>
	  <point x="205" y="1565" type="curve" smooth="yes"/>
	  <point x="205" y="1507"/>
	  <point x="248" y="1465"/>
	</contour>
	<contour>
	  <point x="658" y="1465" type="curve" smooth="yes"/>
	  <point x="715" y="1465"/>
	  <point x="758" y="1507"/>
	  <point x="758" y="1565" type="curve" smooth="yes"/>
	  <point x="758" y="1624"/>
	  <point x="715" y="1664"/>
	  <point x="658" y="1664" type="curve" smooth="yes"/>
	  <point x="599" y="1664"/>
	  <point x="558" y="1624"/>
	  <point x="558" y="1565" type="curve" smooth="yes"/>
	  <point x="558" y="1507"/>
	  <point x="599" y="1465"/>
	</contour>
  </outline>
</glyph>
<glyph name="Zacute" format="1">
  <advance width="1093"/>
  <unicode hex="0179"/>
  <outline>
	<contour>
	  <point x="86" y="0" type="line"/>
	  <point x="1012" y="0" type="line"/>
	  <point x="1012" y="143" type="line"/>
	  <point x="295" y="143" type="line"/>
	  <point x="1006" y="1244" type="line"/>
	  <point x="1006" y="1343" type="line"/>
	  <point x="150" y="1343" type="line"/>
	  <point x="150" y="1202" type="line"/>
	  <point x="797" y="1202" type="line"/>
	  <point x="86" y="101" type="line"/>
	</contour>
	<contour>
	  <point x="837" y="1675" type="line"/>
	  <point x="646" y="1675" type="line"/>
	  <point x="466" y="1446" type="line"/>
	  <point x="605" y="1446" type="line"/>
	</contour>
  </outline>
</glyph>
<glyph name="zacute" format="1">
  <advance width="868"/>
  <unicode hex="017A"/>
  <outline>
	<contour>
	  <point x="63" y="0" type="line"/>
	  <point x="816" y="0" type="line"/>
	  <point x="816" y="136" type="line"/>
	  <point x="273" y="136" type="line"/>
	  <point x="800" y="906" type="line"/>
	  <point x="800" y="995" type="line"/>
	  <point x="121" y="995" type="line"/>
	  <point x="121" y="859" type="line"/>
	  <point x="589" y="859" type="line"/>
	  <point x="63" y="89" type="line"/>
	</contour>
	<contour>
	  <point x="694" y="1462" type="line"/>
	  <point x="520" y="1462" type="line"/>
	  <point x="334" y="1174" type="line"/>
	  <point x="464" y="1174" type="line"/>
	</contour>
  </outline>
</glyph>
<glyph name="Zdotaccent" format="1">
  <advance width="1093"/>
  <unicode hex="017B"/>
  <outline>
	<contour>
	  <point x="86" y="0" type="line"/>
	  <point x="1012" y="0" type="line"/>
	  <point x="1012" y="143" type="line"/>
	  <point x="295" y="143" type="line"/>
	  <point x="1006" y="1244" type="line"/>
	  <point x="1006" y="1343" type="line"/>
	  <point x="150" y="1343" type="line"/>
	  <point x="150" y="1202" type="line"/>
	  <point x="797" y="1202" type="line"/>
	  <point x="86" y="101" type="line"/>
	</contour>
	<contour>
	  <point x="569" y="1462" type="curve" smooth="yes"/>
	  <point x="634" y="1462"/>
	  <point x="685" y="1507"/>
	  <point x="685" y="1573" type="curve" smooth="yes"/>
	  <point x="685" y="1635"/>
	  <point x="634" y="1680"/>
	  <point x="569" y="1680" type="curve" smooth="yes"/>
	  <point x="504" y="1680"/>
	  <point x="454" y="1635"/>
	  <point x="454" y="1573" type="curve" smooth="yes"/>
	  <point x="454" y="1507"/>
	  <point x="504" y="1462"/>
	</contour>
  </outline>
</glyph>
<glyph name="zdotaccent" format="1">
  <advance width="868"/>
  <unicode hex="017C"/>
  <outline>
	<contour>
	  <point x="63" y="0" type="line"/>
	  <point x="816" y="0" type="line"/>
	  <point x="816" y="136" type="line"/>
	  <point x="273" y="136" type="line"/>
	  <point x="800" y="906" type="line"/>
	  <point x="800" y="995" type="line"/>
	  <point x="121" y="995" type="line"/>
	  <point x="121" y="859" type="line"/>
	  <point x="589" y="859" type="line"/>
	  <point x="63" y="89" type="line"/>
	</contour>
	<contour>
	  <point x="468" y="1201" type="curve" smooth="yes"/>
	  <point x="531" y="1201"/>
	  <point x="579" y="1245"/>
	  <point x="579" y="1311" type="curve" smooth="yes"/>
	  <point x="579" y="1373"/>
	  <point x="531" y="1420"/>
	  <point x="468" y="1420" type="curve" smooth="yes"/>
	  <point x="403" y="1420"/>
	  <point x="358" y="1373"/>
	  <point x="358" y="1311" type="curve" smooth="yes"/>
	  <point x="358" y="1245"/>
	  <point x="403" y="1201"/>
	</contour>
  </outline>
</glyph>
<glyph name="Zcaron" format="1">
  <advance width="1093"/>
  <unicode hex="017D"/>
  <outline>
	<contour>
	  <point x="86" y="0" type="line"/>
	  <point x="1012" y="0" type="line"/>
	  <point x="1012" y="143" type="line"/>
	  <point x="295" y="143" type="line"/>
	  <point x="1006" y="1244" type="line"/>
	  <point x="1006" y="1343" type="line"/>
	  <point x="150" y="1343" type="line"/>
	  <point x="150" y="1202" type="line"/>
	  <point x="797" y="1202" type="line"/>
	  <point x="86" y="101" type="line"/>
	</contour>
	<contour>
	  <point x="711" y="1675" type="line"/>
	  <point x="573" y="1536" type="line"/>
	  <point x="565" y="1536" type="line"/>
	  <point x="427" y="1675" type="line"/>
	  <point x="294" y="1675" type="line"/>
	  <point x="490" y="1446" type="line"/>
	  <point x="650" y="1446" type="line"/>
	  <point x="847" y="1675" type="line"/>
	</contour>
  </outline>
</glyph>
<glyph name="zcaron" format="1">
  <advance width="868"/>
  <unicode hex="017E"/>
  <outline>
	<contour>
	  <point x="63" y="0" type="line"/>
	  <point x="816" y="0" type="line"/>
	  <point x="816" y="136" type="line"/>
	  <point x="273" y="136" type="line"/>
	  <point x="800" y="906" type="line"/>
	  <point x="800" y="995" type="line"/>
	  <point x="121" y="995" type="line"/>
	  <point x="121" y="859" type="line"/>
	  <point x="589" y="859" type="line"/>
	  <point x="63" y="89" type="line"/>
	</contour>
	<contour>
	  <point x="399" y="1174" type="line"/>
	  <point x="536" y="1174" type="line"/>
	  <point x="730" y="1462" type="line"/>
	  <point x="610" y="1462" type="line"/>
	  <point x="472" y="1273" type="line"/>
	  <point x="464" y="1273" type="line"/>
	  <point x="327" y="1462" type="line"/>
	  <point x="205" y="1462" type="line"/>
	</contour>
  </outline>
</glyph>
<glyph name="uni01CF" format="1">
  <advance width="526"/>
  <unicode hex="01CF"/>
  <outline>
	<contour>
	  <point x="178" y="0" type="line"/>
	  <point x="348" y="0" type="line"/>
	  <point x="348" y="1343" type="line"/>
	  <point x="178" y="1343" type="line"/>
	</contour>
	<contour>
	  <point x="406" y="1675" type="line"/>
	  <point x="267" y="1536" type="line"/>
	  <point x="259" y="1536" type="line"/>
	  <point x="122" y="1675" type="line"/>
	  <point x="-14" y="1675" type="line"/>
	  <point x="182" y="1446" type="line"/>
	  <point x="344" y="1446" type="line"/>
	  <point x="541" y="1675" type="line"/>
	</contour>
  </outline>
</glyph>
